<svg id="Layer_1" enable-background="new 0 0 256 256" height="512" viewBox="0 0 256 256" width="512" xmlns="http://www.w3.org/2000/svg"><path d="m242.002 201.433h-228c-3.314 0-6-2.686-6-6v-158c0-3.314 2.686-6 6-6h228c3.314 0 6 2.686 6 6v158c0 3.314-2.687 6-6 6z" fill="#e0ebfc"/><path d="m20.002 186.433v-140c0-1.657 1.343-3 3-3h210c1.657 0 3 1.343 3 3v140c0 1.657-1.343 3-3 3h-210c-1.657 0-3-1.343-3-3z" fill="#a4c9ff"/><path d="m242.001 203.433h-228c-4.411 0-8-3.589-8-8v-158c0-4.411 3.589-8 8-8h228c4.411 0 8 3.589 8 8v158c0 4.411-3.588 8-8 8zm-228-170c-2.206 0-4 1.794-4 4v158c0 2.206 1.794 4 4 4h228c2.206 0 4-1.794 4-4v-158c0-2.206-1.794-4-4-4z" fill="#3762cc"/><path d="m233.001 191.434h-210c-2.757 0-5-2.243-5-5v-140c0-2.757 2.243-5 5-5h210c2.757 0 5 2.243 5 5v140c0 2.756-2.243 5-5 5zm-210-146c-.551 0-1 .448-1 1v140c0 .552.449 1 1 1h210c.551 0 1-.448 1-1v-140c0-.552-.449-1-1-1z" fill="#3762cc"/><path d="m130.877 95.384-8.687-6.254c-6.853-4.934-11.177-12.419-12.233-20.526l-.373-1.234c-14.96 16.468-39.7 19.63-39.7 19.63s-4.655.62-7.03.802c-15.409 1.183-26.765-1.864-35.048-6.374-.531 2.952-.824 5.987-.824 9.091v4.864c-.11-.002-.218-.016-.328-.016-8.753 0-15.848 7.031-15.848 15.706 0 8.674 7.096 15.706 15.848 15.706.575 0 1.141-.034 1.7-.093 5.361 22.774 25.961 39.745 50.575 39.745s45.215-16.97 50.575-39.745c.559.059 1.126.093 1.7.093 8.753 0 15.848-7.032 15.848-15.706.001-8.935-7.478-15.92-16.175-15.689z" fill="#f9cfcf"/><path d="m78.93 168.43c-24.633 0-45.823-16.221-52.111-39.652-.055.001-.11.001-.165.001-9.841 0-17.848-7.943-17.848-17.706 0-9.204 7.116-16.79 16.177-17.628v-2.925c0-3.113.288-6.291.855-9.445.114-.632.524-1.171 1.104-1.449.58-.277 1.256-.26 1.821.047 9.336 5.085 20.754 7.147 33.938 6.137 2.293-.177 6.874-.785 6.919-.791.25-.032 24.212-3.283 38.483-18.993.484-.532 1.218-.766 1.921-.606s1.266.683 1.474 1.373l.373 1.234c.032.104.055.211.069.32.999 7.672 5.161 14.655 11.418 19.16l8.159 5.874c4.519.062 8.93 1.886 12.196 5.066 3.444 3.354 5.34 7.838 5.34 12.626 0 9.763-8.007 17.706-17.848 17.706-.055 0-.11 0-.165-.001-6.288 23.431-27.477 39.652-52.11 39.652zm-50.574-43.744c.918 0 1.731.631 1.945 1.542 5.294 22.493 25.291 38.202 48.628 38.202s43.333-15.709 48.628-38.202c.23-.979 1.155-1.629 2.155-1.531.525.056 1.013.082 1.492.082 7.636 0 13.848-6.148 13.848-13.706 0-3.699-1.467-7.166-4.131-9.76-2.665-2.596-6.302-4.015-9.993-3.93-.435.029-.866-.12-1.221-.376l-8.687-6.255c-6.449-4.643-10.95-11.588-12.608-19.335-15.312 14.48-37.292 17.441-38.274 17.566-.182.024-4.727.629-7.13.813-12.817.983-24.119-.809-33.642-5.331-.254 2.03-.383 4.057-.383 6.054v4.864c0 .54-.218 1.057-.604 1.433-.387.376-.905.599-1.449.566-.078-.002-.155-.007-.231-.012-.002 0-.005 0-.007 0-7.677 0-13.885 6.146-13.885 13.701 0 7.558 6.212 13.706 13.848 13.706.479 0 .966-.026 1.492-.082.069-.006.14-.009.209-.009z" fill="#3762cc"/><path d="m111.587 171.853h-8.615c-.019-.001-.037-.004-.056-.004l-.003.004h-56.671c-14.972 0-27.109 12.137-27.109 27.109v24.612h119.563c0-9.177 0-15.439 0-24.612 0-14.972-12.137-27.109-27.109-27.109z" fill="#6bdddd"/><path d="m72.975 199.124-17.049-27.271h3.774 19.209v.008l.01-.008h19.209 3.774l-17.058 27.272c-2.741 4.385-9.127 4.384-11.869-.001z" fill="#e0ebfc"/><g fill="#3762cc"><path d="m138.696 225.573h-119.563c-1.104 0-2-.896-2-2v-24.611c0-16.051 13.058-29.109 29.109-29.109h6.553v-9.315c0-.699.365-1.348.963-1.71.598-.363 1.342-.387 1.961-.063 7.111 3.707 15.134 5.666 23.202 5.666 8.057 0 16.071-1.954 23.177-5.652.621-.321 1.364-.297 1.961.064.598.363.962 1.011.962 1.71v9.301h6.566c16.05 0 29.108 13.059 29.108 29.109v24.611c.001 1.104-.895 1.999-1.999 1.999zm-117.563-4h115.563v-22.611c0-13.846-11.264-25.109-25.108-25.109h-8.566c-1.104 0-2-.896-2-2v-8.117c-6.916 3.079-14.491 4.694-22.1 4.694-7.62 0-15.205-1.62-22.126-4.707v8.13c0 1.104-.896 2-2 2h-8.553c-13.845 0-25.109 11.264-25.109 25.109v22.611z"/><path d="m78.91 204.413c-3.124 0-5.976-1.581-7.631-4.229v.001l-17.049-27.272c-.385-.617-.406-1.394-.054-2.03.353-.636 1.022-1.03 1.75-1.03h22.983.011 22.983c.727 0 1.397.395 1.75 1.03.353.637.332 1.414-.054 2.03l-17.058 27.272c-1.656 2.648-4.508 4.228-7.631 4.228zm-19.375-30.56 15.136 24.211v.001c.919 1.471 2.504 2.349 4.239 2.349 1.735 0 3.319-.878 4.239-2.349l15.144-24.212h-19.274c-.072.004-.145.004-.217 0z"/><path d="m78.94 144.371c-3.561 0-6.876-1.282-9.095-3.52-1.685-1.699-2.612-3.841-2.612-6.032 0-1.104.896-2 2-2s2 .896 2 2c0 1.146.502 2.258 1.453 3.216 1.451 1.463 3.79 2.336 6.255 2.336 2.48 0 4.748-.852 6.22-2.336.95-.958 1.452-2.07 1.452-3.216 0-1.104.896-2 2-2s2 .896 2 2c0 2.191-.928 4.334-2.612 6.032-2.219 2.237-5.521 3.52-9.061 3.52z"/><path d="m53.232 123.646c-3.458 0-6.271-2.813-6.271-6.27v-10.451c0-3.458 2.813-6.271 6.271-6.271 3.457 0 6.27 2.813 6.27 6.271v10.451c.001 3.457-2.813 6.27-6.27 6.27z"/><path d="m104.615 123.646c-3.458 0-6.271-2.813-6.271-6.27v-10.451c0-3.458 2.813-6.271 6.271-6.271 3.457 0 6.27 2.813 6.27 6.271v10.451c0 3.457-2.813 6.27-6.27 6.27z"/></g><path d="m16.653 72.992c-1.002 5.295-1.176 10.761-.435 16.203l1.241 9.102c2.595-1.837 5.763-2.929 9.195-2.929.111 0 .218.014.328.017v-4.865c0-3.103.297-6.136.829-9.088-4.624-2.517-8.287-5.487-11.158-8.44z" fill="#4671c6"/><path d="m51.704 166.636-1.648 5.217 12.999 20.793c1.195 1.912 3.993 1.871 5.133-.074l10.726-18.315-23.708-9.294c-1.431-.561-3.039.206-3.502 1.673z" fill="#e0ebfc"/><path d="m106.118 166.636 1.648 5.217-12.999 20.793c-1.195 1.912-3.993 1.871-5.133-.074l-10.726-18.315 23.708-9.294c1.431-.561 3.039.206 3.502 1.673z" fill="#e0ebfc"/><path d="m65.597 196.056c-1.735 0-3.314-.875-4.237-2.35l-12.999-20.793c-.311-.497-.388-1.104-.211-1.663l1.647-5.217c.387-1.226 1.274-2.245 2.434-2.799 1.159-.554 2.51-.601 3.706-.134l23.708 9.294c.544.214.968.654 1.16 1.207s.132 1.161-.164 1.666l-10.726 18.314c-.892 1.523-2.478 2.447-4.243 2.473-.026.001-.05.002-.075.002zm-13.355-24.481 12.51 20.01c.27.432.688.485.862.47.169-.002.592-.055.849-.494l9.543-16.296-21.529-8.439c-.231-.093-.427-.027-.522.019-.096.046-.269.158-.343.395z" fill="#3762cc"/><path d="m92.225 196.056c-.024 0-.049-.001-.074-.001-1.765-.025-3.351-.949-4.243-2.473l-10.726-18.314c-.296-.505-.355-1.113-.164-1.666s.615-.993 1.16-1.207l23.708-9.294c1.195-.467 2.546-.421 3.706.134 1.16.554 2.047 1.574 2.434 2.799l1.648 5.217c.176.559.099 1.166-.211 1.663l-13 20.793c-.923 1.474-2.503 2.349-4.238 2.349zm-10.409-20.791 9.543 16.296c.257.439.68.492.849.494.15.018.592-.038.861-.469l12.511-20.011-1.37-4.337c-.075-.236-.247-.349-.343-.395-.097-.047-.293-.11-.522-.019z" fill="#3762cc"/><path d="m17.459 100.297c-.27 0-.541-.055-.796-.165-.642-.279-1.091-.872-1.185-1.564l-1.241-9.102c-.76-5.576-.608-11.244.451-16.846.139-.733.674-1.328 1.389-1.543.714-.217 1.49-.015 2.01.521 3.101 3.189 6.695 5.907 10.681 8.077.757.412 1.165 1.263 1.012 2.111-.529 2.936-.797 5.874-.797 8.733v4.864c0 .54-.218 1.057-.604 1.433-.387.376-.905.599-1.449.566-.078-.002-.155-.007-.231-.012-.006 0-.012 0-.018 0-2.929 0-5.702.886-8.065 2.559-.345.243-.75.368-1.157.368zm.601-23.219c-.44 3.957-.395 7.927.14 11.847l.837 6.143c1.871-.883 3.875-1.431 5.945-1.623v-2.925c0-2.638.21-5.334.625-8.033-2.699-1.573-5.224-3.383-7.547-5.409z" fill="#3762cc"/><path d="m129.901 51.58c-3.999-5.214-9.716-2.77-11.802-2.138-.172 5.238-2.013 10.127-5.148 13.768-1.048 1.481-2.183 2.863-3.373 4.171.207.665.38 1.22.379 1.221 1.055 8.107 5.379 15.593 12.233 20.526l8.687 6.254c2.848-.069 5.528.607 7.906 1.893l1.102-8.082c1.822-13.367-1.772-26.909-9.984-37.613z" fill="#4671c6"/><path d="m138.783 99.277c-.328 0-.655-.08-.951-.241-2.139-1.157-4.461-1.726-6.906-1.653-.451.027-.864-.122-1.217-.376l-8.687-6.255c-7.105-5.114-11.846-13.024-13.025-21.723-.055-.177-.155-.499-.271-.873l-.056-.18c-.21-.677-.047-1.415.429-1.939 1.224-1.348 2.277-2.649 3.22-3.982.037-.052.076-.102.117-.149 2.852-3.312 4.508-7.761 4.665-12.529.028-.856.599-1.601 1.419-1.849.156-.048.334-.106.533-.171 2.433-.796 8.898-2.91 13.436 3.007v-.001c8.477 11.05 12.26 25.303 10.378 39.104l-1.102 8.082c-.088.65-.491 1.216-1.076 1.513-.285.143-.596.215-.906.215zm-7.266-5.897c1.95.025 3.837.358 5.643.994l.743-5.449c1.738-12.75-1.757-25.919-9.589-36.127v-.001c-2.392-3.117-5.483-2.716-8.302-1.864-.445 5.105-2.365 9.855-5.483 13.51-.821 1.154-1.714 2.284-2.711 3.431.05.181.087.335.112.474l.011-.001c.999 7.672 5.161 14.655 11.418 19.16z" fill="#3762cc"/><path d="m55.207 164.963 23.704 9.292 23.704-9.292c.134-.052.27-.082.406-.112v-4.3c-7.203 3.749-15.398 5.878-24.1 5.878-8.713 0-16.917-2.135-24.127-5.892v4.312c.139.03.277.061.413.114z" fill="#f9cfcf"/><path d="m78.911 176.256c-.248 0-.495-.046-.73-.138l-23.685-9.285c-.039-.012-.078-.019-.117-.027-.924-.195-1.585-1.012-1.585-1.956v-4.313c0-.699.365-1.348.963-1.71.598-.363 1.342-.387 1.961-.063 7.111 3.707 15.134 5.666 23.202 5.666 8.059 0 16.073-1.955 23.176-5.653.62-.321 1.364-.299 1.961.064.598.362.962 1.011.962 1.71v4.301c0 .942-.659 1.757-1.58 1.955l-.127.029-23.672 9.282c-.234.092-.481.138-.729.138zm-14.228-9.727 14.228 5.578 14.183-5.561c-9.234 2.491-19.18 2.485-28.411-.017zm-10.179.306h.01z" fill="#3762cc"/><path d="m110.966 31.537c-4.998-4.588-10.036-7.977-15.057-10.368h.003c-19.419-9.138-42.663-3.964-55.139 4.23l.015-.001c-16.168 9.619-27.424 24.922-31.196 30.528-.27.33-1.246 1.702-1.389 2.146-.326 1.016-.269 2.178.213 3.198 3.577 7.571 17.198 29.392 54.438 26.532 2.376-.182 7.03-.802 7.03-.802s28.828-3.67 43.066-23.79c7.804-9.063 6.496-23.889-1.984-31.673z" fill="#4671c6"/><path d="m56.365 90.058c-33.796 0-46.537-21.117-49.756-27.933-.683-1.445-.796-3.145-.31-4.663.268-.834 1.355-2.293 1.665-2.697 4.126-6.123 15.388-21.266 31.646-30.991.021-.016.043-.031.066-.046 13.767-9.041 37.797-13.446 57.089-4.368.025.012.049.023.074.036 5.346 2.555 10.554 6.144 15.481 10.668 9.441 8.667 10.464 24.706 2.21 34.378-14.596 20.535-43.182 24.388-44.393 24.542-.181.023-4.726.628-7.129.813-2.3.177-4.514.261-6.643.261zm-46.277-31.312c-.157.546-.109 1.151.136 1.67 2.958 6.259 14.696 25.638 46.181 25.64 2.018 0 4.112-.079 6.295-.247 2.292-.176 6.874-.785 6.919-.791.291-.037 28.149-3.817 41.698-22.963.036-.052.075-.102.117-.149 6.974-8.1 6.123-21.603-1.821-28.895-4.655-4.274-9.555-7.65-14.564-10.036-.018-.009-.036-.018-.054-.026-17.88-8.379-40.128-4.33-52.973 4.023-.067.053-.138.102-.212.146-15.686 9.331-26.597 24.036-30.56 29.925-.035.053-.072.103-.112.151-.235.287-.88 1.223-1.05 1.552z" fill="#3762cc"/><path d="m192.302 239.517h-57.842v-88.069h57.842c1.165 0 2.109.944 2.109 2.109v83.851c0 1.165-.944 2.109-2.109 2.109z" fill="#f9a7a7"/><path d="m134.46 239.517h-9.992v-85.433c0-1.456 1.18-2.636 2.636-2.636h7.355v88.069z" fill="#4671c6"/><path d="m184.072 179.662h-39.273c-1.165 0-2.109-.944-2.109-2.109v-12.477c0-1.165.944-2.109 2.109-2.109h39.273c1.165 0 2.109.944 2.109 2.109v12.477c0 1.165-.944 2.109-2.109 2.109z" fill="#f9cfcf"/><path d="m192.302 241.518h-57.842c-1.104 0-2-.896-2-2v-88.069c0-1.104.896-2 2-2h57.842c2.266 0 4.109 1.844 4.109 4.109v83.851c0 2.265-1.843 4.109-4.109 4.109zm-55.842-4h55.842c.061 0 .109-.049.109-.109v-83.851c0-.061-.049-.109-.109-.109h-55.842z" fill="#3762cc"/><path d="m134.46 241.518h-9.992c-1.104 0-2-.896-2-2v-85.434c0-2.557 2.08-4.636 4.637-4.636h7.355c1.104 0 2 .896 2 2v88.069c0 1.105-.896 2.001-2 2.001zm-7.992-4h5.992v-84.069h-5.355c-.351 0-.637.285-.637.636z" fill="#3762cc"/><path d="m184.072 181.662h-39.273c-2.266 0-4.109-1.844-4.109-4.109v-12.478c0-2.266 1.843-4.108 4.109-4.108h39.273c2.266 0 4.109 1.843 4.109 4.108v12.478c0 2.265-1.843 4.109-4.109 4.109zm-39.273-16.695c-.061 0-.109.049-.109.108v12.478c0 .061.049.109.109.109h39.273c.06 0 .109-.049.109-.109v-12.478c0-.06-.049-.108-.109-.108z" fill="#3762cc"/><path d="m170.804 83.2h-13.673c-1.628 4.372-2.393 6.633-3.212 7.721-.776 1.029-2.96 1.364-4.451-.058-1.677-1.597-.9-3.369 0-5.598 10.317-26.191 10.052-28.242 14.477-28.242 3.749 0 4.597 2.882 5.919 6.355l8.787 21.703c.688 1.651 1.033 2.853 1.033 3.602 0 1.478-1.379 3.12-3.327 3.12-.536 0-.995-.096-1.376-.286-1.339-.668-1.725-1.872-4.177-8.317zm-11.884-5.115h10.048l-5.07-13.881z" fill="#f9a7a7"/><path d="m180.102 134.392c-2.849 0-4.129-1.165-4.129-4.176v-25.282c0-1.483.325-2.55.975-3.2s1.701-.976 3.154-.976c12.11 0 19.239-1.213 21.75 5.655 1.036 2.841.879 7.65-4.565 10.176 10.015 3.189 8.441 16.127-2.249 17.539-2.582.342-4.16.264-14.936.264zm2.685-28.517v8.695c6.539 0 8.445.119 10.175-.481 3.241-1.125 3.624-6.109.883-7.376-1.208-.559-3.051-.838-5.529-.838zm0 13.582v9.819h7.318c4.604 0 6.906-1.659 6.906-4.979 0-5.964-7.277-4.84-14.224-4.84z" fill="#ffea92"/><path d="m229.423 168.084c-5.001 11.815-29.194 11.471-29.194-9.624 0-11.134 7.141-17.437 16.037-17.437 13.228 0 17.059 13.146 11.035 13.146-3.477 0-2.756-3.882-6.55-6.493-3.837-2.64-13.616-2.143-13.616 11.013 0 2.615.367 4.791 1.102 6.526 2.914 6.894 13.007 7.277 15.876-.562.29-.887.65-1.609 1.078-2.168 1.399-1.824 7.036-1.02 4.232 5.599z" fill="#4671c6"/></svg>