<svg id="Capa_1" enable-background="new 0 0 512 512" height="512" viewBox="0 0 512 512" width="512" xmlns="http://www.w3.org/2000/svg"><g><g><circle cx="256" cy="113.112" fill="#e5979d" r="113.112"/><path d="m256 0c-5.162 0-10.242.355-15.223 1.028 55.197 7.459 97.889 54.877 97.889 112.085s-42.693 104.626-97.889 112.085c4.981.673 10.061 1.028 15.223 1.028 62.37 0 113.112-50.742 113.112-113.112s-50.742-113.114-113.112-113.114z" fill="#e17f85"/><path d="m323.101 93.941h-44.095c-2.118 0-3.834-1.717-3.834-3.834v-44.095c0-4.235-3.433-7.669-7.669-7.669h-23.006c-4.235 0-7.669 3.433-7.669 7.669v44.095c0 2.118-1.717 3.834-3.834 3.834h-44.095c-4.235 0-7.669 3.433-7.669 7.669v23.006c0 4.235 3.433 7.669 7.669 7.669h44.095c2.118 0 3.834 1.717 3.834 3.834v44.095c0 4.235 3.433 7.669 7.669 7.669h23.006c4.235 0 7.669-3.433 7.669-7.669v-44.095c0-2.118 1.717-3.834 3.834-3.834h44.095c4.235 0 7.669-3.433 7.669-7.669v-23.006c-.001-4.236-3.434-7.669-7.669-7.669z" fill="#fff"/></g><g><path d="m481.572 101.031c-13.347 0-24.631 9.884-26.39 23.114l-12.116 91.139c-.945 7.106-4.241 13.692-9.364 18.706l-36.066 35.303c10.251-10.034 10.298-26.519.104-36.611-10.112-10.011-26.436-9.895-36.404.26l-70.425 71.745c-10.746 10.947-16.766 25.674-16.766 41.013v156.151c0 5.605 4.544 10.149 10.149 10.149h56.854 24.969 10.281c5.605 0 10.149-4.544 10.149-10.149v-71.046c0-7.883 2.799-15.51 7.898-21.522l102.99-121.42c6.946-8.189 10.759-18.578 10.759-29.317v-130.892c0-14.704-11.919-26.623-26.622-26.623z" fill="#e2a770"/><g fill="#d5985c"><path d="m481.572 101.031c-5.629 0-10.887 1.763-15.222 4.788 6.888 4.812 11.398 12.794 11.398 21.834v130.893c0 10.738-3.813 21.127-10.759 29.317l-102.99 121.42c-5.099 6.012-7.898 13.639-7.898 21.522v71.046c0 5.605-4.544 10.149-10.149 10.149h30.446c5.605 0 10.149-4.544 10.149-10.149v-71.046c0-7.883 2.799-15.51 7.898-21.522l102.99-121.42c6.946-8.189 10.759-18.578 10.759-29.317v-130.892c0-14.704-11.919-26.623-26.622-26.623z"/><path d="m397.741 232.682c-9.12-9.029-23.291-9.817-33.296-2.436.993.733 1.947 1.542 2.85 2.436 10.194 10.092 10.147 26.577-.104 36.611l-15.486 15.158c-6.819 6.675-2.093 18.258 7.449 18.258 2.785 0 5.459-1.091 7.449-3.039l31.034-30.377c10.25-10.034 10.297-26.519.104-36.611z"/></g></g><g><path d="m221.089 304.687-70.425-71.745c-9.968-10.155-26.292-10.272-36.404-.26-10.194 10.092-10.147 26.577.104 36.611l-36.066-35.303c-5.123-5.014-8.42-11.6-9.364-18.706l-12.116-91.139c-1.759-13.23-13.043-23.114-26.39-23.114-14.703 0-26.622 11.919-26.622 26.622v130.893c0 10.738 3.813 21.127 10.759 29.317l102.99 121.42c5.099 6.012 7.898 13.639 7.898 21.522v71.046c0 5.605 4.544 10.149 10.149 10.149h10.281 24.969 56.854c5.605 0 10.149-4.544 10.149-10.149v-156.151c0-15.339-6.02-30.066-16.766-41.013z" fill="#e2a770"/><g fill="#d5985c"><path d="m30.428 101.031c5.629 0 10.887 1.763 15.222 4.788-6.888 4.812-11.398 12.794-11.398 21.834v130.893c0 10.738 3.813 21.127 10.759 29.317l102.99 121.42c5.099 6.012 7.898 13.639 7.898 21.522v71.046c0 5.605 4.544 10.149 10.149 10.149h-30.446c-5.605 0-10.149-4.544-10.149-10.149v-71.046c0-7.883-2.799-15.51-7.898-21.522l-102.99-121.42c-6.946-8.189-10.759-18.578-10.759-29.317v-130.892c0-14.704 11.919-26.623 26.622-26.623z"/><path d="m114.259 232.682c9.12-9.029 23.291-9.817 33.296-2.436-.993.733-1.947 1.542-2.85 2.436-10.194 10.092-10.147 26.577.104 36.611l15.486 15.158c6.819 6.675 2.093 18.258-7.449 18.258-2.785 0-5.459-1.091-7.449-3.039l-31.034-30.377c-10.25-10.034-10.297-26.519-.104-36.611z"/></g></g></g></svg>