<svg xmlns="http://www.w3.org/2000/svg" height="511pt" version="1.1" viewBox="-34 1 511 511.999" width="511pt">
<g id="surface1">
<path d="M 197.546875 208.71875 L 195.496094 209.53125 L 195.65625 211.730469 C 195.929688 215.472656 197.453125 219.015625 199.949219 221.71875 C 201.792969 223.707031 204.164062 225.230469 206.800781 226.121094 L 209.488281 227.03125 L 210.542969 224.398438 C 212.835938 218.6875 214.769531 213.050781 216.289062 207.640625 L 217.667969 202.722656 L 212.703125 203.914062 C 207.675781 205.117188 202.574219 206.734375 197.546875 208.71875 Z M 197.546875 208.71875 " style=" stroke:none;fill-rule:nonzero;fill:rgb(35.686275%,36.470588%,42.745098%);fill-opacity:1;" />
<path d="M 51.550781 388.476562 C 54.074219 390.203125 56.449219 392.238281 58.609375 394.527344 L 60.019531 396.027344 L 61.171875 397.476562 C 64.101562 401.167969 66.421875 405.234375 68.066406 409.566406 L 69.910156 414.429688 L 150.585938 315.40625 C 164.429688 298.414062 178.738281 280.84375 191.160156 261.394531 L 193.164062 258.253906 L 189.667969 256.964844 C 187.359375 256.113281 185.304688 254.707031 183.726562 252.890625 C 182.332031 251.300781 181.28125 249.347656 180.691406 247.242188 L 179.796875 244.050781 L 180.226562 243.535156 L 179.648438 243.523438 L 179.15625 241.765625 L 177.71875 243.480469 L 173.972656 243.402344 C 172.972656 243.378906 171.988281 243.144531 171.136719 242.726562 C 168.808594 241.566406 167.078125 239.125 166.5 236.171875 C 166.359375 235.492188 166.289062 234.734375 166.28125 233.859375 L 166.203125 227.007812 L 161.222656 231.710938 C 151.375 241 142.871094 252.371094 135.367188 262.402344 L 48.824219 378.117188 C 47.921875 379.3125 47.015625 380.488281 46.09375 381.664062 L 43.4375 385.066406 L 47.554688 386.371094 C 49.089844 386.855469 50.488281 387.746094 51.550781 388.476562 Z M 51.550781 388.476562 " style=" stroke:none;fill-rule:nonzero;fill:rgb(35.686275%,81.568627%,98.823529%);fill-opacity:1;" />
<path d="M 95.117188 102.628906 L 95.121094 103.183594 C 95.234375 130.390625 95.359375 161.230469 96.019531 192.53125 L 96.121094 197.230469 L 100.339844 195.164062 C 103.144531 193.792969 105.710938 193.109375 108.140625 193.078125 L 108.359375 193.078125 C 111.839844 193.078125 115.078125 194.320312 118.214844 195.519531 L 149.765625 207.679688 C 150.035156 207.78125 150.179688 208.082031 150.082031 208.355469 C 145.488281 221.394531 140.738281 234.878906 132.675781 246.5 C 126.089844 255.996094 117.535156 263.894531 109.265625 271.539062 L 96.757812 283.101562 L 96.820312 312.164062 L 134.515625 261.765625 C 142.617188 250.921875 150.992188 239.710938 161.21875 230.230469 C 176.914062 215.6875 197.140625 205.539062 218.273438 201.640625 C 218.414062 201.640625 218.546875 201.699219 218.660156 201.820312 C 218.785156 201.953125 218.832031 202.117188 218.785156 202.308594 C 208.171875 246.402344 178.039062 283.390625 151.417969 316.074219 L 97.542969 382.199219 L 97.914062 396.335938 C 98.859375 432.386719 99.839844 469.667969 100.921875 505.003906 L 101.011719 507.929688 L 420.039062 506.042969 L 419.898438 502.925781 C 412.507812 337.992188 419.085938 171.316406 439.449219 7.519531 L 439.875 4.082031 L 94.160156 11.011719 L 94.222656 14.011719 C 94.855469 44.144531 94.988281 73.875 95.117188 102.628906 Z M 346.09375 63.65625 L 362.660156 59.414062 L 358.792969 47.476562 C 358.699219 47.191406 358.855469 46.894531 359.136719 46.804688 C 359.191406 46.785156 359.242188 46.777344 359.296875 46.777344 C 359.484375 46.777344 359.726562 46.894531 359.808594 47.148438 L 363.707031 59.144531 L 373.820312 56.558594 C 373.867188 56.546875 373.910156 56.539062 373.953125 56.539062 C 374.164062 56.539062 374.40625 56.675781 374.472656 56.9375 C 374.546875 57.226562 374.367188 57.519531 374.085938 57.59375 L 364.03125 60.164062 L 368.359375 73.492188 C 368.453125 73.777344 368.296875 74.074219 368.0625 74.152344 C 367.945312 74.1875 367.871094 74.191406 367.847656 74.191406 C 367.664062 74.191406 367.425781 74.078125 367.34375 73.824219 L 362.992188 60.433594 L 346.363281 64.695312 L 346.257812 64.703125 L 346.230469 64.710938 C 346.03125 64.710938 345.785156 64.585938 345.714844 64.3125 C 345.640625 64.019531 345.808594 63.730469 346.09375 63.65625 Z M 323.105469 55.15625 C 323.144531 54.949219 323.308594 54.792969 323.542969 54.753906 C 323.574219 54.75 323.601562 54.746094 323.632812 54.746094 C 323.816406 54.746094 323.992188 54.851562 324.082031 55.003906 C 340.054688 81.859375 353.546875 110.3125 364.183594 139.570312 C 364.246094 139.738281 364.207031 139.878906 364.164062 139.96875 C 364.125 140.058594 364.039062 140.175781 363.863281 140.238281 C 363.800781 140.261719 363.738281 140.273438 363.671875 140.273438 C 363.503906 140.273438 363.273438 140.1875 363.179688 139.921875 C 359.226562 129.074219 354.730469 117.988281 349.808594 106.976562 L 348.757812 104.617188 L 312.183594 114.769531 L 304.179688 154.511719 C 304.125 154.800781 303.875 154.949219 303.660156 154.949219 L 303.558594 154.9375 C 303.261719 154.878906 303.074219 154.597656 303.132812 154.3125 Z M 323.105469 55.15625 " style=" stroke:none;fill-rule:nonzero;fill:rgb(100%,100%,100%);fill-opacity:1;" />
<path d="M 346.839844 100.414062 C 340.976562 87.804688 334.589844 75.421875 327.859375 63.613281 L 323.890625 56.65625 L 312.425781 113.597656 L 348.332031 103.621094 Z M 346.839844 100.414062 " style=" stroke:none;fill-rule:nonzero;fill:rgb(100%,100%,100%);fill-opacity:1;" />
<path d="M 6.078125 294.707031 C 5.652344 301.539062 5.878906 304.246094 7.007812 305.839844 C 8.546875 308.023438 12.148438 309.980469 16.742188 312.335938 C 18.328125 313.140625 19.976562 313.992188 21.175781 314.746094 L 35.796875 324.007812 C 37.082031 324.820312 38.449219 325.664062 39.789062 326.253906 L 41.289062 326.914062 L 40.992188 328.210938 L 42.957031 327.652344 L 43.109375 327.71875 L 43.136719 327.601562 L 45.867188 326.828125 C 48.550781 326.066406 50.941406 324.003906 53.164062 321.953125 L 90.664062 287.289062 L 90.238281 285.769531 L 100.117188 245.347656 L 97.210938 247.632812 L 53.128906 228.777344 L 15.429688 255.015625 C 12.019531 257.382812 9.0625 259.597656 7.429688 262.734375 L 6.824219 263.894531 L 6.417969 263.726562 L 6.316406 264.871094 L 5.917969 265.640625 L 6.238281 265.773438 L 6.0625 267.800781 C 5.929688 269.320312 5.949219 270.855469 5.96875 272.367188 L 6.261719 290.640625 C 6.277344 291.632812 6.195312 292.9375 6.101562 294.316406 Z M 6.078125 294.707031 " style=" stroke:none;fill-rule:nonzero;fill:rgb(100%,100%,100%);fill-opacity:1;" />
<path d="M 201.382812 220.382812 C 199.472656 218.316406 198.171875 215.578125 197.726562 212.671875 L 197.128906 208.8125 L 193.554688 210.382812 C 183.519531 214.792969 174.242188 220.546875 165.972656 227.480469 L 165.257812 228.082031 L 165.007812 228.980469 C 164.261719 231.671875 164.117188 234.226562 164.578125 236.570312 C 165.273438 240.097656 167.398438 243.050781 170.269531 244.480469 C 171.453125 245.066406 172.792969 245.378906 174.132812 245.378906 C 175.605469 245.375 177.011719 245.007812 178.207031 244.328125 C 178.4375 247.949219 179.859375 251.457031 182.25 254.195312 C 184.28125 256.519531 186.953125 258.226562 189.976562 259.132812 L 192.179688 259.796875 L 193.390625 257.839844 C 199.734375 247.570312 204.832031 237.867188 208.976562 228.183594 L 210.238281 225.234375 L 207.214844 224.171875 C 204.949219 223.371094 202.933594 222.0625 201.382812 220.382812 Z M 201.382812 220.382812 " style=" stroke:none;fill-rule:nonzero;fill:rgb(100%,82.352941%,73.333333%);fill-opacity:1;" />
<path d="M 87.019531 290.644531 L 108.546875 270.753906 C 116.78125 263.136719 125.296875 255.261719 131.796875 245.890625 C 138.296875 236.511719 142.699219 225.617188 146.148438 216.199219 L 148.503906 209.769531 L 149.730469 208.804688 L 148.964844 208.511719 L 149.785156 206.277344 L 147.609375 207.988281 L 117.878906 196.535156 C 114.816406 195.363281 111.652344 194.148438 108.371094 194.148438 L 108.195312 194.148438 C 103.203125 194.210938 98.78125 197.011719 93.925781 200.386719 L 51.234375 230.101562 L 97.039062 249.683594 Z M 87.019531 290.644531 " style=" stroke:none;fill-rule:nonzero;fill:rgb(92.941176%,42.745098%,40%);fill-opacity:1;" />
<path d="M 19.316406 460.496094 C 21.585938 460.496094 23.84375 460.105469 25.847656 459.359375 C 34.984375 455.960938 42.847656 447.511719 49.984375 438.890625 L 50.867188 437.824219 L 50.625 436.457031 C 49.429688 429.675781 45.757812 423.203125 40.554688 418.710938 C 35.933594 414.710938 29.996094 412.136719 23.835938 411.46875 L 22.113281 411.277344 L 21.089844 412.679688 C 15.195312 420.742188 10.917969 428.066406 7.625 435.722656 C 5.410156 440.859375 3.1875 447.464844 5.664062 452.980469 C 7.753906 457.617188 12.988281 460.496094 19.316406 460.496094 Z M 19.316406 460.496094 " style=" stroke:none;fill-rule:nonzero;fill:rgb(92.941176%,42.745098%,40%);fill-opacity:1;" />
<path d="M 39.269531 420.191406 C 43.453125 423.804688 46.476562 428.53125 48.007812 433.859375 L 49.554688 439.234375 L 53.175781 434.972656 C 53.308594 434.816406 53.429688 434.664062 53.523438 434.539062 C 54.15625 433.765625 54.78125 433.003906 55.382812 432.257812 L 56.21875 431.222656 L 56.21875 431.234375 L 62.179688 423.902344 L 62.179688 423.90625 L 71.21875 412.808594 L 70.730469 411.261719 C 67.585938 401.347656 61.167969 392.679688 52.652344 386.851562 C 51.125 385.808594 49.277344 384.683594 47.128906 384.226562 C 46.695312 384.140625 46.234375 384.085938 45.757812 384.070312 L 44.257812 384.015625 L 43.316406 385.183594 C 41.476562 387.460938 39.636719 389.710938 37.804688 391.910156 L 35.851562 394.253906 L 35.847656 394.253906 L 34.808594 395.496094 C 33.535156 397.019531 32.273438 398.542969 31.019531 400.054688 L 27.957031 403.761719 L 27.988281 403.769531 C 26.480469 405.628906 25.136719 407.324219 23.894531 408.941406 L 20.894531 412.84375 L 25.738281 413.71875 C 30.753906 414.632812 35.433594 416.867188 39.269531 420.191406 Z M 39.269531 420.191406 " style=" stroke:none;fill-rule:nonzero;fill:rgb(97.647059%,84.705882%,53.72549%);fill-opacity:1;" />
<path d="M 443.113281 1.171875 C 442.425781 0.40625 441.445312 0.00390625 440.414062 0 L 93.539062 6.949219 C 92.597656 6.96875 91.707031 7.359375 91.058594 8.035156 C 90.410156 8.714844 90.054688 9.625 90.078125 10.5625 C 90.785156 42.066406 90.917969 73.144531 91.046875 103.195312 C 91.179688 133.296875 91.3125 164.417969 92.023438 196 C 92.027344 196.238281 92.058594 196.46875 92.109375 196.695312 C 91.941406 196.8125 91.769531 196.929688 91.605469 197.046875 L 13.101562 251.675781 C 9.839844 253.945312 5.367188 257.058594 3.304688 261.917969 C 1.792969 265.480469 1.851562 269.335938 1.902344 272.433594 L 2.191406 290.699219 C 2.207031 291.59375 2.121094 292.910156 2.03125 294.308594 C 1.710938 299.257812 1.351562 304.867188 3.679688 308.179688 C 5.921875 311.363281 10.679688 313.800781 14.878906 315.949219 C 16.476562 316.769531 17.984375 317.539062 19 318.183594 L 33.613281 327.4375 C 36.144531 329.042969 39.597656 331.230469 43.6875 331.230469 C 43.757812 331.230469 43.828125 331.226562 43.894531 331.226562 C 49.222656 331.132812 53.257812 327.402344 55.929688 324.933594 L 92.707031 290.933594 L 92.742188 311.878906 C 92.746094 312.097656 92.769531 312.304688 92.808594 312.511719 L 45.5625 375.679688 C 41.246094 381.453125 36.632812 386.96875 32.175781 392.304688 C 21.742188 404.78125 10.957031 417.683594 3.882812 434.109375 C 1.34375 440.011719 -1.175781 447.683594 1.957031 454.648438 C 5.015625 461.464844 12.164062 464.585938 19.226562 464.585938 C 22 464.585938 24.765625 464.101562 27.261719 463.171875 C 39.199219 458.730469 48.902344 446.730469 56.699219 437.089844 C 57.324219 436.316406 57.933594 435.566406 58.527344 434.832031 L 93.71875 391.640625 L 93.832031 395.972656 C 94.808594 433.382812 95.820312 472.0625 96.964844 508.574219 C 97.023438 510.484375 98.589844 512 100.496094 512 C 100.503906 512 100.511719 512 100.519531 512 L 420.621094 510.101562 C 421.585938 510.097656 422.503906 509.699219 423.164062 509 C 423.828125 508.304688 424.175781 507.367188 424.128906 506.40625 C 416.417969 339.140625 423.097656 170.101562 443.992188 3.976562 C 444.121094 2.957031 443.800781 1.933594 443.113281 1.171875 Z M 95.640625 202.847656 C 100.078125 199.761719 104.085938 197.203125 108.226562 197.152344 C 111.015625 197.113281 113.996094 198.257812 116.863281 199.359375 L 143.730469 209.714844 L 97.058594 246.429688 L 57.390625 229.46875 Z M 92.304688 281.679688 L 100.148438 249.589844 C 100.1875 249.425781 100.203125 249.261719 100.199219 249.097656 L 143.328125 215.167969 C 139.621094 225.300781 135.433594 235.378906 129.332031 244.179688 C 123.023438 253.277344 114.625 261.042969 106.507812 268.550781 Z M 17.140625 257.476562 L 53.480469 232.1875 L 93.441406 249.277344 L 52.386719 281.578125 L 10.09375 264.125 C 11.382812 261.640625 13.945312 259.703125 17.140625 257.476562 Z M 22.785156 312.214844 C 21.496094 311.398438 19.84375 310.554688 18.101562 309.660156 C 14.976562 308.058594 10.699219 305.867188 9.460938 304.109375 C 8.566406 302.835938 8.929688 297.179688 9.085938 294.761719 C 9.183594 293.222656 9.277344 291.765625 9.257812 290.589844 L 8.96875 272.320312 C 8.945312 270.890625 8.929688 269.4375 9.050781 268.0625 L 49.878906 284.910156 L 41.003906 323.507812 C 39.886719 323.015625 38.707031 322.296875 37.394531 321.46875 Z M 51.128906 319.746094 C 49.078125 321.644531 47.058594 323.367188 45.046875 323.941406 L 53.878906 285.539062 L 95.136719 253.082031 L 87.257812 285.316406 C 87.171875 285.660156 87.191406 286.003906 87.277344 286.324219 Z M 137.769531 264.199219 C 145.601562 253.726562 153.707031 242.921875 163.285156 233.890625 C 163.289062 234.871094 163.375 235.835938 163.558594 236.769531 C 164.3125 240.609375 166.648438 243.839844 169.804688 245.40625 C 171.101562 246.050781 172.511719 246.367188 173.90625 246.398438 C 134.492188 293.4375 96.457031 342.546875 60.792969 392.46875 C 58.507812 390.054688 55.976562 387.867188 53.238281 385.996094 C 51.886719 385.074219 50.289062 384.09375 48.464844 383.511719 C 49.390625 382.320312 50.3125 381.128906 51.222656 379.914062 Z M 207.761719 223.28125 C 205.628906 222.5625 203.664062 221.324219 202.148438 219.683594 C 200.109375 217.472656 198.871094 214.515625 198.644531 211.511719 C 203.460938 209.605469 208.394531 208.027344 213.402344 206.824219 C 211.824219 212.421875 209.921875 217.902344 207.761719 223.28125 Z M 194.765625 213.128906 C 195.289062 216.570312 196.832031 219.878906 199.183594 222.421875 C 201.089844 224.488281 203.550781 226.054688 206.21875 227.003906 C 201.886719 237.125 196.644531 246.867188 190.835938 256.261719 C 188.40625 255.53125 186.1875 254.136719 184.511719 252.21875 C 182.183594 249.550781 180.976562 245.996094 181.203125 242.464844 C 181.257812 241.613281 180.769531 240.820312 179.988281 240.480469 C 179.203125 240.140625 178.292969 240.332031 177.710938 240.957031 C 176.304688 242.464844 173.679688 242.824219 171.601562 241.789062 C 169.59375 240.792969 168.03125 238.570312 167.523438 235.992188 C 167.152344 234.101562 167.285156 232.019531 167.894531 229.78125 C 175.957031 223.015625 185.070312 217.386719 194.765625 213.128906 Z M 70.867188 408.496094 C 69.105469 403.859375 66.609375 399.496094 63.515625 395.605469 C 99.523438 345.160156 137.957031 295.539062 177.800781 248.046875 C 178.5 250.550781 179.742188 252.898438 181.46875 254.875 C 183.402344 257.089844 185.886719 258.769531 188.625 259.78125 C 176.332031 279.042969 161.832031 296.847656 148.257812 313.507812 Z M 57.480469 424.929688 C 55.761719 419.132812 52.464844 413.769531 48.015625 409.707031 C 43.902344 405.953125 38.765625 403.28125 33.332031 401.964844 C 34.578125 400.453125 35.839844 398.941406 37.113281 397.421875 C 42.847656 398.078125 48.394531 400.652344 52.515625 404.660156 C 57.003906 409.023438 59.839844 415.148438 60.351562 421.402344 Z M 55.332031 401.765625 C 51.199219 397.742188 45.789062 394.988281 40.109375 393.832031 C 41.953125 391.617188 43.800781 389.359375 45.648438 387.066406 C 45.945312 387.082031 46.242188 387.105469 46.542969 387.171875 C 48.140625 387.511719 49.671875 388.453125 50.957031 389.332031 C 58.914062 394.765625 64.960938 402.984375 67.871094 412.171875 L 63.789062 417.183594 C 62.527344 411.371094 59.574219 405.886719 55.332031 401.765625 Z M 24.796875 456.550781 C 19.027344 458.695312 10.875 457.253906 8.40625 451.753906 C 6.40625 447.300781 8.410156 441.480469 10.378906 436.90625 C 13.945312 428.625 18.464844 421.359375 23.511719 414.453125 C 29.023438 415.054688 34.417969 417.367188 38.59375 420.976562 C 43.292969 425.039062 46.589844 430.863281 47.667969 436.980469 C 41.09375 444.929688 33.339844 453.371094 24.796875 456.550781 Z M 51.203125 432.644531 C 51.101562 432.769531 50.996094 432.902344 50.894531 433.027344 C 49.210938 427.191406 45.859375 421.917969 41.234375 417.921875 C 36.964844 414.230469 31.777344 411.773438 26.269531 410.773438 C 27.632812 408.996094 29.03125 407.238281 30.449219 405.488281 C 35.9375 406.429688 41.191406 408.949219 45.289062 412.691406 C 49.90625 416.902344 53.113281 422.710938 54.28125 428.855469 L 53.046875 430.371094 C 52.449219 431.105469 51.832031 431.867188 51.203125 432.644531 Z M 416.90625 503.054688 L 103.925781 504.910156 C 102.824219 469.433594 101.847656 432.015625 100.902344 395.789062 L 100.570312 383.230469 L 153.738281 317.96875 C 180.542969 285.070312 210.921875 247.78125 221.703125 203.003906 C 221.984375 201.839844 221.65625 200.613281 220.832031 199.746094 C 220.007812 198.878906 218.804688 198.480469 217.625 198.703125 C 196.035156 202.691406 175.277344 213.105469 159.175781 228.027344 C 148.8125 237.628906 140.320312 248.980469 132.109375 259.964844 L 99.796875 303.164062 L 99.761719 284.410156 L 111.300781 273.738281 C 119.703125 265.972656 128.386719 257.945312 135.136719 248.207031 C 143.421875 236.257812 148.246094 222.578125 152.90625 209.351562 C 153.542969 207.546875 152.628906 205.566406 150.84375 204.878906 L 119.402344 192.765625 C 116.132812 191.503906 112.4375 190.082031 108.359375 190.082031 C 108.285156 190.082031 108.210938 190.082031 108.132812 190.082031 C 104.84375 190.125 101.78125 191.121094 99.019531 192.46875 C 98.375 162.109375 98.242188 132.160156 98.113281 103.164062 C 97.988281 74.207031 97.859375 44.296875 97.21875 13.945312 L 436.46875 7.148438 C 416.082031 171.148438 409.5 337.953125 416.90625 503.054688 Z M 416.90625 503.054688 " style=" stroke:none;fill-rule:nonzero;fill:rgb(0%,0%,0%);fill-opacity:1;" />
<path d="M 323.027344 51.796875 C 321.585938 52.042969 320.445312 53.152344 320.15625 54.585938 L 300.191406 153.714844 C 299.804688 155.628906 301.042969 157.492188 302.957031 157.878906 C 303.191406 157.925781 303.425781 157.945312 303.660156 157.945312 C 305.304688 157.945312 306.78125 156.789062 307.121094 155.109375 L 314.761719 117.171875 L 347.066406 108.199219 C 351.882812 118.96875 356.335938 129.894531 360.355469 140.949219 C 361.023438 142.785156 363.050781 143.730469 364.886719 143.0625 C 366.71875 142.398438 367.667969 140.367188 367 138.535156 C 356.277344 109.054688 342.703125 80.433594 326.65625 53.472656 C 325.910156 52.21875 324.464844 51.554688 323.027344 51.796875 Z M 316.324219 109.402344 L 325.25 65.101562 C 332.035156 77.011719 338.332031 89.230469 344.117188 101.683594 Z M 316.324219 109.402344 " style=" stroke:none;fill-rule:nonzero;fill:rgb(0%,0%,0%);fill-opacity:1;" />
<path d="M 358.824219 57.304688 L 345.355469 60.753906 C 343.464844 61.238281 342.324219 63.164062 342.808594 65.054688 C 343.21875 66.652344 344.65625 67.714844 346.230469 67.714844 C 346.519531 67.714844 346.816406 67.679688 347.109375 67.601562 L 361.011719 64.039062 L 364.488281 74.742188 C 364.972656 76.238281 366.359375 77.1875 367.847656 77.1875 C 368.210938 77.1875 368.578125 77.132812 368.941406 77.015625 C 370.796875 76.410156 371.816406 74.417969 371.210938 72.5625 L 367.875 62.28125 L 374.832031 60.496094 C 376.722656 60.011719 377.863281 58.085938 377.378906 56.195312 C 376.894531 54.304688 374.96875 53.164062 373.078125 53.648438 L 365.6875 55.542969 L 362.660156 46.222656 C 362.054688 44.367188 360.0625 43.351562 358.207031 43.953125 C 356.347656 44.554688 355.332031 46.550781 355.9375 48.40625 Z M 358.824219 57.304688 " style=" stroke:none;fill-rule:nonzero;fill:rgb(0%,0%,0%);fill-opacity:1;" />
<path d="M 291.84375 170.242188 C 302.355469 179.546875 316.59375 184.355469 331.289062 184.351562 C 341.777344 184.351562 352.5 181.902344 362.261719 176.894531 C 382.96875 166.269531 399.015625 145.359375 406.285156 119.527344 C 410.042969 106.160156 412.917969 86.164062 405.253906 66.8125 C 398.179688 48.945312 382.628906 35.707031 365.632812 33.082031 C 364.535156 32.910156 363.5 33.667969 363.328125 34.769531 C 363.160156 35.875 363.914062 36.90625 365.015625 37.074219 C 380.621094 39.484375 394.941406 51.738281 401.5 68.296875 C 408.746094 86.605469 405.988281 105.664062 402.394531 118.433594 C 395.429688 143.191406 380.128906 163.1875 360.417969 173.300781 C 338.417969 184.585938 311.316406 182.085938 294.519531 167.214844 C 283.460938 157.425781 276.476562 142.222656 275.355469 125.507812 C 274.390625 111.070312 277.546875 95.5 284.734375 79.226562 C 291.53125 63.839844 300.261719 51.726562 310.683594 43.222656 C 322.90625 33.257812 337.800781 28.320312 351.542969 29.691406 C 352.671875 29.804688 353.640625 28.988281 353.753906 27.878906 C 353.863281 26.769531 353.050781 25.78125 351.941406 25.671875 C 337.132812 24.199219 321.171875 29.457031 308.128906 40.09375 C 297.207031 49 288.09375 61.617188 281.039062 77.59375 C 273.582031 94.472656 270.316406 110.679688 271.328125 125.777344 C 272.515625 143.546875 279.996094 159.753906 291.84375 170.242188 Z M 291.84375 170.242188 " style=" stroke:none;fill-rule:nonzero;fill:rgb(0%,0%,0%);fill-opacity:1;" />
<path d="M 120.269531 58.390625 C 119.207031 58.390625 118.324219 57.554688 118.273438 56.480469 C 118.226562 55.375 119.082031 54.441406 120.183594 54.390625 L 253.578125 48.492188 C 254.632812 48.433594 255.617188 49.300781 255.664062 50.402344 C 255.714844 51.507812 254.859375 52.441406 253.753906 52.488281 L 120.359375 58.390625 C 120.332031 58.390625 120.300781 58.390625 120.269531 58.390625 Z M 120.269531 58.390625 " style=" stroke:none;fill-rule:nonzero;fill:rgb(0%,0%,0%);fill-opacity:1;" />
<path d="M 120.269531 84.414062 C 119.207031 84.414062 118.324219 83.574219 118.273438 82.503906 C 118.226562 81.398438 119.082031 80.464844 120.183594 80.414062 L 253.578125 74.519531 C 254.632812 74.457031 255.617188 75.324219 255.664062 76.429688 C 255.714844 77.53125 254.859375 78.464844 253.753906 78.515625 L 120.359375 84.410156 C 120.332031 84.414062 120.300781 84.414062 120.269531 84.414062 Z M 120.269531 84.414062 " style=" stroke:none;fill-rule:nonzero;fill:rgb(0%,0%,0%);fill-opacity:1;" />
<path d="M 120.269531 110.4375 C 119.207031 110.4375 118.324219 109.597656 118.273438 108.523438 C 118.226562 107.421875 119.082031 106.488281 120.183594 106.4375 L 253.578125 100.539062 C 254.632812 100.480469 255.617188 101.347656 255.664062 102.449219 C 255.714844 103.554688 254.859375 104.488281 253.753906 104.535156 L 120.359375 110.433594 C 120.332031 110.4375 120.300781 110.4375 120.269531 110.4375 Z M 120.269531 110.4375 " style=" stroke:none;fill-rule:nonzero;fill:rgb(0%,0%,0%);fill-opacity:1;" />
<path d="M 120.269531 136.460938 C 119.207031 136.460938 118.324219 135.621094 118.273438 134.546875 C 118.226562 133.445312 119.082031 132.511719 120.183594 132.460938 L 253.578125 126.5625 C 254.632812 126.503906 255.617188 127.367188 255.664062 128.472656 C 255.714844 129.578125 254.859375 130.511719 253.753906 130.558594 L 120.359375 136.457031 C 120.332031 136.460938 120.300781 136.460938 120.269531 136.460938 Z M 120.269531 136.460938 " style=" stroke:none;fill-rule:nonzero;fill:rgb(0%,0%,0%);fill-opacity:1;" />
<path d="M 120.269531 162.484375 C 119.207031 162.484375 118.324219 161.644531 118.273438 160.570312 C 118.226562 159.46875 119.082031 158.53125 120.183594 158.484375 L 253.578125 152.585938 C 254.632812 152.527344 255.617188 153.394531 255.664062 154.496094 C 255.714844 155.601562 254.859375 156.535156 253.753906 156.582031 L 120.359375 162.480469 C 120.332031 162.480469 120.300781 162.484375 120.269531 162.484375 Z M 120.269531 162.484375 " style=" stroke:none;fill-rule:nonzero;fill:rgb(0%,0%,0%);fill-opacity:1;" />
<path d="M 239.832031 232.867188 C 238.765625 232.839844 237.902344 231.980469 237.882812 230.90625 C 237.863281 229.800781 238.738281 228.886719 239.84375 228.867188 L 373.34375 226.3125 C 374.398438 226.277344 375.363281 227.167969 375.382812 228.273438 C 375.40625 229.375 374.527344 230.289062 373.421875 230.308594 L 239.921875 232.867188 C 239.890625 232.867188 239.859375 232.867188 239.832031 232.867188 Z M 239.832031 232.867188 " style=" stroke:none;fill-rule:nonzero;fill:rgb(0%,0%,0%);fill-opacity:1;" />
<path d="M 239.179688 258.882812 C 238.117188 258.855469 237.253906 257.992188 237.230469 256.921875 C 237.210938 255.816406 238.089844 254.902344 239.195312 254.882812 L 372.695312 252.324219 C 373.746094 252.289062 374.710938 253.183594 374.730469 254.285156 C 374.753906 255.390625 373.875 256.304688 372.769531 256.324219 L 239.269531 258.882812 C 239.238281 258.882812 239.210938 258.882812 239.179688 258.882812 Z M 239.179688 258.882812 " style=" stroke:none;fill-rule:nonzero;fill:rgb(0%,0%,0%);fill-opacity:1;" />
<path d="M 238.527344 284.894531 C 237.464844 284.867188 236.601562 284.007812 236.578125 282.933594 C 236.558594 281.832031 237.4375 280.917969 238.542969 280.898438 L 372.042969 278.339844 C 373.09375 278.304688 374.058594 279.199219 374.082031 280.300781 C 374.101562 281.40625 373.222656 282.320312 372.117188 282.339844 L 238.617188 284.894531 C 238.585938 284.898438 238.558594 284.898438 238.527344 284.894531 Z M 238.527344 284.894531 " style=" stroke:none;fill-rule:nonzero;fill:rgb(0%,0%,0%);fill-opacity:1;" />
<path d="M 237.875 310.910156 C 236.8125 310.882812 235.949219 310.023438 235.925781 308.949219 C 235.90625 307.847656 236.785156 306.933594 237.890625 306.910156 L 371.390625 304.355469 C 372.445312 304.320312 373.40625 305.210938 373.429688 306.316406 C 373.449219 307.421875 372.570312 308.335938 371.464844 308.355469 L 237.964844 310.910156 C 237.9375 310.910156 237.90625 310.910156 237.875 310.910156 Z M 237.875 310.910156 " style=" stroke:none;fill-rule:nonzero;fill:rgb(0%,0%,0%);fill-opacity:1;" />
<path d="M 237.222656 336.925781 C 236.160156 336.898438 235.296875 336.039062 235.277344 334.964844 C 235.253906 333.859375 236.132812 332.949219 237.238281 332.925781 L 370.738281 330.371094 C 371.792969 330.335938 372.753906 331.226562 372.777344 332.332031 C 372.796875 333.4375 371.917969 334.347656 370.8125 334.371094 L 237.3125 336.925781 C 237.285156 336.925781 237.253906 336.925781 237.222656 336.925781 Z M 237.222656 336.925781 " style=" stroke:none;fill-rule:nonzero;fill:rgb(0%,0%,0%);fill-opacity:1;" />
<path d="M 138.953125 370.519531 C 137.085938 370.472656 135.550781 369.597656 135.496094 368.523438 C 135.4375 367.417969 136.960938 366.519531 138.902344 366.519531 L 373.359375 366.492188 C 375.207031 366.476562 376.914062 367.386719 376.972656 368.492188 C 377.03125 369.597656 375.503906 370.496094 373.566406 370.496094 L 139.109375 370.523438 C 139.058594 370.523438 139.003906 370.523438 138.953125 370.519531 Z M 138.953125 370.519531 " style=" stroke:none;fill-rule:nonzero;fill:rgb(0%,0%,0%);fill-opacity:1;" />
<path d="M 138.300781 396.535156 C 136.433594 396.488281 134.898438 395.613281 134.84375 394.535156 C 134.785156 393.433594 136.308594 392.535156 138.25 392.535156 L 372.707031 392.507812 C 374.554688 392.492188 376.265625 393.402344 376.324219 394.507812 C 376.378906 395.613281 374.855469 396.511719 372.914062 396.511719 L 138.460938 396.539062 C 138.40625 396.539062 138.351562 396.535156 138.300781 396.535156 Z M 138.300781 396.535156 " style=" stroke:none;fill-rule:nonzero;fill:rgb(0%,0%,0%);fill-opacity:1;" />
<path d="M 137.648438 422.550781 C 135.78125 422.503906 134.246094 421.628906 134.191406 420.550781 C 134.132812 419.445312 135.660156 418.550781 137.597656 418.550781 L 372.054688 418.523438 C 373.902344 418.507812 375.613281 419.417969 375.667969 420.523438 C 375.726562 421.628906 374.203125 422.523438 372.261719 422.527344 L 137.804688 422.554688 C 137.753906 422.554688 137.703125 422.550781 137.648438 422.550781 Z M 137.648438 422.550781 " style=" stroke:none;fill-rule:nonzero;fill:rgb(0%,0%,0%);fill-opacity:1;" />
<path d="M 136.996094 448.566406 C 135.128906 448.519531 133.597656 447.640625 133.539062 446.566406 C 133.480469 445.460938 135.007812 444.5625 136.945312 444.5625 L 371.402344 444.535156 C 373.25 444.523438 374.960938 445.433594 375.019531 446.539062 C 375.078125 447.644531 373.550781 448.539062 371.613281 448.539062 L 137.15625 448.566406 C 137.101562 448.566406 137.050781 448.566406 136.996094 448.566406 Z M 136.996094 448.566406 " style=" stroke:none;fill-rule:nonzero;fill:rgb(0%,0%,0%);fill-opacity:1;" />
<path d="M 136.34375 474.578125 C 134.476562 474.53125 132.945312 473.65625 132.886719 472.582031 C 132.828125 471.476562 134.355469 470.578125 136.292969 470.578125 L 370.75 470.550781 C 372.597656 470.535156 374.308594 471.445312 374.367188 472.554688 C 374.425781 473.65625 372.898438 474.554688 370.960938 474.554688 L 136.503906 474.582031 C 136.453125 474.582031 136.398438 474.582031 136.34375 474.578125 Z M 136.34375 474.578125 " style=" stroke:none;fill-rule:nonzero;fill:rgb(0%,0%,0%);fill-opacity:1;" />
</g>
</svg>