<?xml version="1.0" encoding="utf-8"?>
<!-- Generator: Adobe Illustrator 24.3.0, SVG Export Plug-In . SVG Version: 6.00 Build 0)  -->
<svg version="1.1" id="Capa_1" xmlns="http://www.w3.org/2000/svg" xmlns:xlink="http://www.w3.org/1999/xlink" x="0px" y="0px"
	 viewBox="0 0 588 512" style="enable-background:new 0 0 588 512;" xml:space="preserve">
<style type="text/css">
	.st0{fill:#A0E65C;}
	.st1{fill:#79CC52;}
</style>
<g id="_x31__2_">
	<path class="st0" d="M275,0v512H155V181.8C102.2,222,45.8,235.5,35,240V125.1c6.6-2.7,34.8-7.2,83.7-45.6
		C135.2,66.6,146.9,53.7,155,42c14.7-21.3,18.3-38.4,20.1-42L275,0z"/>
	<path class="st1" d="M275,0v512H155V42c14.7-21.3,18.3-38.4,20.1-42L275,0z"/>
</g>
<g id="_x31__1_">
	<path class="st0" d="M552,0v512H432V181.8C379.2,222,322.8,235.5,312,240V125.1c6.6-2.7,34.8-7.2,83.7-45.6
		C412.2,66.6,423.9,53.7,432,42c14.7-21.3,18.3-38.4,20.1-42L552,0z"/>
	<path class="st1" d="M552,0v512H432V42c14.7-21.3,18.3-38.4,20.1-42L552,0z"/>
</g>
</svg>
