<?xml version="1.0" encoding="utf-8"?>
<!-- Generator: Adobe Illustrator 24.3.0, SVG Export Plug-In . SVG Version: 6.00 Build 0)  -->
<svg version="1.1" id="Capa_1" xmlns="http://www.w3.org/2000/svg" xmlns:xlink="http://www.w3.org/1999/xlink" x="0px" y="0px"
	 viewBox="0 0 636.9 512" style="enable-background:new 0 0 636.9 512;" xml:space="preserve">
<style type="text/css">
	.st0{fill:#A0E65C;}
	.st1{fill:#79CC52;}
	.st2{fill:#FFBE40;}
	.st3{fill:#FF9F40;}
</style>
<g id="_x31__2_">
	<path class="st0" d="M240,0v512H120V181.8C67.2,222,10.8,235.5,0,240V125.1c6.6-2.7,34.8-7.2,83.7-45.6
		C100.2,66.6,111.9,53.7,120,42c14.7-21.3,18.3-38.4,20.1-42L240,0z"/>
	<path class="st1" d="M240,0v512H120V42c14.7-21.3,18.3-38.4,20.1-42L240,0z"/>
</g>
<g id="_x32__2_">
	<path class="st2" d="M465.1,394.9h171.8V512H275.1l1.9-16.7c13-117,114.5-187.9,179.9-250.4c36.5-34.9,55.5-62,55.5-90.3
		c0-32.2-16.4-48.6-48.7-48.6c-2.3,0-4.6,0.1-6.9,0.2c-21.5,1.6-42,12.1-45.2,60.5l-1,15.4L286.4,170l1.7-15.1
		C299.2,53.6,360.8,0,466.1,0c118,0,170.8,74.4,170.8,148C636.9,268.8,519.5,334.8,465.1,394.9L465.1,394.9z"/>
	<path class="st3" d="M465.1,394.9h171.8V512h-180V244.9c36.5-34.9,55.5-62,55.5-90.4c0-32.2-16.4-48.6-48.7-48.6
		c-2.3,0-4.6,0.2-6.9,0.3V0.6c3.2-0.1,6-0.6,9.2-0.6c118,0,170.8,74.4,170.8,148C636.9,268.8,519.5,334.8,465.1,394.9L465.1,394.9z"
		/>
</g>
</svg>
