<?xml version="1.0" encoding="utf-8"?>
<!-- Generator: Adobe Illustrator 24.3.0, SVG Export Plug-In . SVG Version: 6.00 Build 0)  -->
<svg version="1.1" id="Capa_1" xmlns="http://www.w3.org/2000/svg" xmlns:xlink="http://www.w3.org/1999/xlink" x="0px" y="0px"
	 viewBox="0 0 614 512" style="enable-background:new 0 0 614 512;" xml:space="preserve">
<style type="text/css">
	.st0{fill:#A0E65C;}
	.st1{fill:#79CC52;}
	.st2{fill:#66CCFF;}
	.st3{fill:#59ABFF;}
</style>
<g id="_x31__2_">
	<path class="st0" d="M240,0v512H120V181.8C67.2,222,10.8,235.5,0,240V125.1c6.6-2.7,34.8-7.2,83.7-45.6
		C100.2,66.6,111.9,53.7,120,42c14.7-21.3,18.3-38.4,20.1-42L240,0z"/>
	<path class="st1" d="M240,0v512H120V42c14.7-21.3,18.3-38.4,20.1-42L240,0z"/>
</g>
<g id="_x30__2_">
	<path class="st2" d="M449,0C339.5,0,284,86.5,284,255.2c0,63.3,0,256.8,165,256.8c109.5,0,165-86.7,165-255.8
		C614,86.9,558.5,0,449,0z M449,105.7c45.3,0,42.3,104.9,42.3,150.5c0,45.2,3.2,150.1-42.3,150.1c-45.4,0-42.3-104.5-42.3-150.1
		C406.7,210.8,403.4,105.7,449,105.7L449,105.7z"/>
	<path class="st3" d="M491.3,256.2c0,45.2,3.2,150.1-42.3,150.1V512c109.5,0,165-86.7,165-255.8C614,86.9,558.5,0,449,0v105.7
		C494.3,105.7,491.3,210.6,491.3,256.2z"/>
</g>
</svg>
