<svg xmlns="http://www.w3.org/2000/svg" height="512pt" version="1.1" viewBox="0 -57 512.00023 512" width="512pt">
<g id="surface1">
<path d="M 487.601562 66.082031 C 487.507812 54.613281 487.402344 41.613281 481.273438 30.949219 C 473.574219 17.503906 457.730469 9.375 432.84375 6.09375 C 422.914062 4.785156 412.707031 4.121094 402.503906 4.121094 C 379.09375 4.121094 355.636719 7.527344 332.792969 14.242188 L 330.421875 14.9375 L 339.320312 110.246094 L 317.980469 90.019531 L 299.410156 120.710938 L 297.15625 27.703125 L 292.945312 29.777344 C 284.804688 33.785156 276.859375 38.28125 269.332031 43.132812 C 268.636719 43.578125 267.976562 44.011719 267.398438 44.402344 C 265.789062 45.46875 264.261719 46.46875 262.820312 47.167969 L 261.121094 47.984375 L 261.273438 364.007812 L 266.296875 359.410156 C 294.074219 333.972656 331.292969 317.175781 368.410156 313.320312 C 374.207031 312.71875 380.148438 312.410156 386.070312 312.410156 C 420.816406 312.410156 455.726562 322.753906 484.375 341.527344 L 487.109375 343.316406 L 484.953125 343.085938 C 484.804688 343.070312 484.738281 343.03125 484.699219 343.011719 C 456.0625 323.964844 421.046875 313.480469 386.109375 313.480469 C 380.214844 313.480469 374.296875 313.785156 368.519531 314.382812 C 334.953125 317.871094 301.761719 331.683594 275.0625 353.273438 L 278.296875 358.289062 C 280.386719 357.238281 282.496094 356.222656 284.605469 355.222656 L 286.144531 358.929688 C 289.449219 357.742188 292.78125 356.625 296.125 355.566406 L 296.691406 357.542969 C 289.511719 359.382812 282.414062 361.527344 275.417969 363.976562 L 276.4375 369.808594 L 443.886719 368.289062 L 444.492188 364.398438 C 447.15625 365.28125 449.804688 366.195312 452.4375 367.167969 L 453.183594 368.1875 L 454.765625 368.136719 C 461.898438 367.90625 469.359375 367.1875 475.578125 363.535156 L 480.984375 360.355469 L 480.140625 360.039062 C 482.152344 358.066406 483.878906 355.65625 485.253906 352.84375 L 485.738281 351.851562 L 485.867188 351.914062 L 486.210938 350.886719 L 486.558594 350.175781 L 486.464844 350.128906 L 486.964844 348.640625 C 487.160156 348.050781 487.355469 347.46875 487.519531 346.867188 L 488.289062 344.089844 L 488.382812 344.152344 L 488.996094 339.402344 C 489.691406 333.996094 489.75 328.367188 489.710938 323.574219 Z M 374.929688 112.769531 C 372.363281 112.761719 368.84375 112.75 366.488281 110.960938 C 363.523438 108.707031 362.941406 104.148438 362.558594 101.125 L 354.585938 37.746094 C 367.996094 34.488281 381.835938 32.363281 395.730469 31.421875 C 401.152344 31.058594 406.679688 30.875 412.15625 30.875 C 419.390625 30.875 426.691406 31.195312 433.835938 31.824219 C 434.703125 31.910156 435.589844 31.972656 436.492188 32.03125 C 444.277344 32.574219 449.960938 33.40625 452.210938 39.242188 C 454.960938 46.355469 455.351562 55.554688 455.730469 64.449219 L 458.730469 64.320312 L 455.738281 64.550781 C 455.90625 68.589844 456.070312 72.398438 456.449219 75.910156 L 460.472656 113.242188 Z M 374.929688 112.769531 " style=" stroke:none;fill-rule:nonzero;fill:rgb(94.117647%,94.901961%,98.039216%);fill-opacity:1;" />
<path d="M 249.746094 370.050781 L 250.5 364.152344 C 244.550781 362.550781 238.515625 361.136719 232.414062 359.894531 L 232.988281 357.898438 C 236.800781 359.328125 240.578125 360.839844 244.300781 362.445312 L 246.238281 358.941406 C 246.34375 359.015625 246.449219 359.085938 246.554688 359.160156 L 250.285156 354.476562 C 222.789062 329.363281 188.804688 313.476562 152.011719 308.527344 C 143.863281 307.429688 135.449219 306.875 127.003906 306.875 C 92.117188 306.875 57.8125 316.058594 30.410156 332.730469 L 28.933594 333.625 L 29.175781 345.113281 C 29.175781 345.113281 29.1875 345.496094 29.199219 345.617188 L 29.351562 347.773438 L 29.226562 347.820312 L 29.375 350.070312 C 29.667969 354.453125 30.332031 357.621094 31.535156 360.351562 L 31.9375 361.269531 L 31.488281 361.460938 L 32.574219 362.710938 L 32.730469 363.066406 L 32.84375 363.019531 L 34.195312 364.578125 C 39.695312 370.917969 48.929688 371.789062 58.097656 371.789062 C 58.636719 371.789062 59.171875 371.785156 59.703125 371.78125 L 62.433594 371.757812 L 62.855469 371.628906 C 67.378906 370.226562 71.914062 368.921875 76.460938 367.699219 L 76.996094 371.632812 Z M 249.746094 370.050781 " style=" stroke:none;fill-rule:nonzero;fill:rgb(94.117647%,94.901961%,98.039216%);fill-opacity:1;" />
<path d="M 395.597656 29.46875 C 381.964844 30.386719 368.316406 32.457031 355.035156 35.621094 L 352.417969 36.246094 L 357.226562 74.4375 L 375.511719 53.238281 C 375.929688 52.757812 376.90625 51.625 377.792969 51.625 C 377.832031 51.625 377.875 51.628906 377.917969 51.632812 C 378.628906 51.710938 379.296875 52.535156 379.742188 53.089844 L 388.839844 64.289062 L 391.195312 61.980469 C 394.085938 59.140625 398.230469 57.445312 402.285156 57.445312 C 402.628906 57.445312 402.96875 57.457031 403.304688 57.480469 C 407.769531 57.808594 412.046875 60.179688 414.738281 63.832031 L 416.742188 66.546875 L 424.378906 59.394531 C 425.019531 58.800781 425.8125 58.058594 426.621094 57.976562 C 426.679688 57.96875 426.734375 57.96875 426.789062 57.96875 C 428.113281 57.96875 429.394531 59.617188 429.9375 60.316406 L 448.523438 84.339844 L 450.417969 83.875 C 452.355469 83.398438 454.148438 83.152344 455.894531 83.128906 L 459.183594 83.082031 L 458.394531 75.699219 C 458.039062 72.351562 457.871094 68.761719 457.691406 64.414062 C 457.3125 55.359375 456.917969 45.996094 454.042969 38.542969 C 451.175781 31.085938 443.445312 30.550781 436.621094 30.074219 C 435.746094 30.015625 434.882812 29.960938 434.039062 29.882812 C 426.800781 29.238281 419.429688 28.910156 412.132812 28.910156 C 406.617188 28.910156 401.054688 29.097656 395.597656 29.46875 Z M 395.597656 29.46875 " style=" stroke:none;fill-rule:nonzero;fill:rgb(84.705882%,87.058824%,92.54902%);fill-opacity:1;" />
<path d="M 359.53125 92.734375 L 363.539062 90.140625 C 367.820312 87.367188 373.40625 85.90625 379.699219 85.90625 C 380.679688 85.90625 381.683594 85.941406 382.6875 86.011719 C 388.484375 86.425781 394.195312 87.867188 399.734375 89.261719 L 401.105469 89.601562 C 402.410156 89.921875 403.714844 90.246094 405.023438 90.554688 L 414.402344 92.679688 L 414.035156 92.226562 C 416.320312 92.515625 418.453125 92.664062 420.5 92.664062 C 423.207031 92.664062 425.789062 92.402344 428.183594 91.890625 C 432.261719 91.015625 436.167969 89.335938 439.996094 87.695312 C 442.332031 86.691406 444.4375 85.796875 446.570312 85.035156 L 450.464844 83.640625 L 431.425781 59.046875 C 430.195312 57.46875 428.789062 56.007812 426.804688 56.007812 L 426.585938 56.007812 L 426.433594 56.023438 C 425.023438 56.171875 423.929688 57.117188 423.042969 57.96875 L 402.105469 77.523438 L 381.269531 51.855469 C 380.480469 50.886719 379.671875 50 378.480469 49.738281 L 378.199219 49.65625 L 377.769531 49.65625 C 376.210938 49.65625 375.050781 50.761719 374.03125 51.949219 L 356.898438 71.820312 Z M 359.53125 92.734375 " style=" stroke:none;fill-rule:nonzero;fill:rgb(57.647059%,60.784314%,66.666667%);fill-opacity:1;" />
<path d="M 418.09375 65.269531 L 416.636719 63.144531 C 413.632812 58.761719 408.703125 55.914062 403.457031 55.527344 C 403.042969 55.496094 402.632812 55.480469 402.21875 55.480469 C 397.460938 55.480469 392.824219 57.46875 389.496094 60.929688 L 387.660156 62.84375 L 401.910156 80.398438 Z M 418.09375 65.269531 " style=" stroke:none;fill-rule:nonzero;fill:rgb(100%,100%,100%);fill-opacity:1;" />
<path d="M 257.335938 48.234375 C 255.867188 48.09375 254.261719 47.667969 252.433594 46.929688 C 248.949219 45.519531 245.53125 43.699219 242.210938 41.933594 C 239.265625 40.363281 236.480469 38.878906 233.554688 37.601562 C 221.132812 32.164062 208.0625 27.757812 194.699219 24.515625 C 175.757812 19.917969 156.269531 17.585938 136.78125 17.585938 C 128.4375 17.585938 119.976562 18.015625 111.628906 18.863281 C 80.925781 21.988281 50.820312 31.066406 24.566406 45.113281 L 22.945312 45.980469 L 28.90625 332.296875 L 33.292969 329.78125 C 60.257812 314.320312 93.5625 305.804688 127.070312 305.804688 C 135.546875 305.804688 143.988281 306.363281 152.160156 307.460938 C 190.652344 312.640625 227.214844 330.425781 255.109375 357.539062 L 260.207031 362.488281 L 260.050781 48.488281 Z M 257.335938 48.234375 " style=" stroke:none;fill-rule:nonzero;fill:rgb(100%,100%,100%);fill-opacity:1;" />
<path d="M 503.402344 79.261719 L 499.917969 80.089844 C 499.085938 80.289062 498.246094 80.390625 497.421875 80.390625 C 495.90625 80.390625 494.398438 80.0625 493.066406 79.441406 L 488.761719 77.4375 L 490.78125 323.570312 C 490.808594 326.238281 490.757812 328.90625 490.632812 331.496094 L 490.46875 334.96875 L 506.042969 333.429688 L 506.136719 330.8125 C 509.167969 248.546875 508.316406 165.117188 503.605469 82.839844 Z M 503.402344 79.261719 " style=" stroke:none;fill-rule:nonzero;fill:rgb(68.627451%,47.45098%,47.45098%);fill-opacity:1;" />
<path d="M 438.710938 369.402344 L 76.292969 372.703125 L 77.136719 376.347656 C 78.15625 380.734375 78.074219 385.359375 76.910156 389.730469 L 75.90625 393.5 L 435.460938 393.773438 L 433.144531 389.375 C 430.726562 384.78125 431.410156 378.59375 434.796875 374.328125 Z M 438.710938 369.402344 " style=" stroke:none;fill-rule:nonzero;fill:rgb(68.627451%,47.45098%,47.45098%);fill-opacity:1;" />
<path d="M 18.242188 104.558594 C 15.828125 106.53125 12.65625 107.660156 9.539062 107.660156 C 8.902344 107.660156 8.238281 107.605469 7.5625 107.5 L 4.085938 106.941406 L 4.261719 334.828125 L 8.511719 332.875 C 12.53125 331.03125 16.988281 330.054688 21.40625 330.054688 C 22.414062 330.054688 23.433594 330.105469 24.429688 330.207031 L 27.800781 330.546875 L 23.011719 100.660156 Z M 18.242188 104.558594 " style=" stroke:none;fill-rule:nonzero;fill:rgb(68.627451%,47.45098%,47.45098%);fill-opacity:1;" />
<path d="M 295.214844 28.660156 L 297.609375 127.453125 L 318.402344 93.117188 L 341.761719 115.257812 L 332.332031 14.351562 L 328.796875 15.457031 C 317.886719 18.859375 307.183594 23.019531 296.980469 27.828125 Z M 295.214844 28.660156 " style=" stroke:none;fill-rule:nonzero;fill:rgb(92.941176%,42.745098%,40%);fill-opacity:1;" />
<path d="M 490.371094 335.476562 C 488.929688 352.585938 483.953125 358.652344 478.792969 362.660156 C 470.46875 369.121094 458.644531 369.222656 450.011719 369.300781 L 437.511719 369.421875 L 436.777344 369.902344 C 436.683594 369.964844 436.59375 370.027344 436.503906 370.097656 C 430.082031 374.359375 427.800781 383.78125 431.519531 390.546875 L 430.902344 393.777344 L 451.703125 393.789062 C 467.234375 393.789062 483.265625 392.9375 493.625 382.726562 C 503.636719 372.878906 505.074219 357.550781 505.6875 342.683594 L 506.113281 331.441406 L 490.582031 332.992188 Z M 490.371094 335.476562 " style=" stroke:none;fill-rule:nonzero;fill:rgb(97.647059%,84.705882%,53.72549%);fill-opacity:1;" />
<path d="M 488.671875 66.082031 L 488.777344 79.550781 L 490.472656 80.199219 C 492.421875 81.578125 494.878906 82.339844 497.414062 82.339844 C 498.738281 82.339844 500.042969 82.136719 501.289062 81.738281 L 503.5 81.027344 L 503.367188 78.707031 C 502.894531 70.671875 502.429688 63.269531 501.945312 56.066406 C 501.589844 50.859375 501.070312 46.265625 498.332031 42.796875 C 496.722656 40.765625 494 39.445312 491.371094 39.429688 C 490.332031 39.429688 489.375 39.644531 488.527344 40.066406 L 486.460938 41.101562 L 486.933594 43.363281 C 488.542969 51.070312 488.613281 59.046875 488.671875 66.082031 Z M 488.671875 66.082031 " style=" stroke:none;fill-rule:nonzero;fill:rgb(97.647059%,84.705882%,53.72549%);fill-opacity:1;" />
<path d="M 77.800781 393.503906 L 78.457031 391.390625 C 80.121094 386.019531 80.238281 380.328125 78.789062 374.933594 L 78.183594 372.691406 L 59.652344 372.851562 C 58.988281 372.859375 58.277344 372.871094 57.519531 372.871094 C 49.039062 372.871094 38.570312 371.9375 32.851562 364.667969 C 28.394531 358.992188 28.230469 350.917969 28.109375 345.019531 L 27.765625 328.617188 L 25.171875 328.3125 C 23.925781 328.167969 22.660156 328.089844 21.398438 328.089844 C 15.964844 328.089844 10.585938 329.449219 5.839844 332.023438 L 4.269531 332.875 L 4.269531 341.484375 C 4.28125 355.53125 4.871094 367.945312 12.042969 377.570312 C 22.429688 391.527344 42.300781 393.46875 62.226562 393.492188 Z M 77.800781 393.503906 " style=" stroke:none;fill-rule:nonzero;fill:rgb(97.647059%,84.705882%,53.72549%);fill-opacity:1;" />
<path d="M 9.597656 109.617188 C 14.085938 109.617188 18.421875 107.667969 21.265625 104.382812 L 23.074219 103.726562 L 22.015625 52.734375 L 19.351562 52.484375 C 19.058594 52.457031 18.769531 52.441406 18.472656 52.441406 C 13.207031 52.441406 8.722656 56.625 6.785156 60.515625 C 4.070312 65.964844 4.070312 72.433594 4.070312 78.214844 L 4.09375 108.765625 L 6.449219 109.28125 C 7.46875 109.503906 8.53125 109.617188 9.597656 109.617188 Z M 9.597656 109.617188 " style=" stroke:none;fill-rule:nonzero;fill:rgb(97.647059%,84.705882%,53.72549%);fill-opacity:1;" />
<path d="M 459.273438 83.839844 L 458.953125 81.160156 L 456.261719 81.160156 C 450.242188 81.160156 444.886719 83.460938 439.164062 85.917969 C 435.472656 87.503906 431.65625 89.144531 427.777344 89.976562 C 425.476562 90.464844 423.019531 90.710938 420.46875 90.710938 C 415.035156 90.710938 409.59375 89.601562 405.457031 88.636719 C 403.707031 88.230469 401.957031 87.796875 400.199219 87.351562 C 394.855469 86.011719 388.800781 84.492188 382.835938 84.058594 C 381.769531 83.980469 380.703125 83.941406 379.664062 83.941406 C 372.015625 83.941406 365.425781 85.980469 360.605469 89.839844 L 359.292969 90.886719 L 360.613281 101.367188 C 361.152344 105.621094 361.960938 109.984375 365.300781 112.523438 C 367.957031 114.53125 371.367188 114.71875 374.921875 114.738281 L 462.652344 115.21875 Z M 459.273438 83.839844 " style=" stroke:none;fill-rule:nonzero;fill:rgb(74.901961%,78.039216%,84.705882%);fill-opacity:1;" />
<path d="M 506.003906 55.792969 C 505.699219 51.253906 505.277344 45.03125 501.53125 40.28125 C 499.15625 37.273438 495.285156 35.386719 491.421875 35.359375 C 491.394531 35.359375 491.367188 35.359375 491.335938 35.359375 C 490.148438 35.359375 489.015625 35.542969 487.96875 35.886719 C 487.125 33.496094 486.089844 31.160156 484.804688 28.921875 C 476.429688 14.3125 459.605469 5.523438 433.378906 2.0625 C 404.789062 -1.710938 375.703125 -0.300781 346.933594 6.25 C 318.34375 12.761719 291.492188 24.023438 267.125 39.714844 C 266.421875 40.167969 265.769531 40.597656 265.152344 41.007812 C 260.085938 44.351562 258.882812 45.144531 253.953125 43.152344 C 250.664062 41.824219 247.484375 40.128906 244.121094 38.339844 C 241.238281 36.804688 238.257812 35.214844 235.1875 33.871094 C 222.574219 28.347656 209.273438 23.867188 195.660156 20.5625 C 168.0625 13.859375 139.652344 11.929688 111.207031 14.816406 C 79.175781 18.074219 47.878906 27.675781 20.703125 42.585938 C 19.546875 43.21875 18.839844 44.441406 18.871094 45.757812 L 18.921875 48.363281 C 12.121094 48.117188 5.933594 53.089844 3.140625 58.695312 C -0.0117188 65.027344 -0.00390625 72.339844 0 78.214844 L 0.203125 341.488281 C 0.210938 352.890625 0.222656 368.507812 8.777344 380 C 20.238281 395.398438 41.234375 397.539062 62.21875 397.554688 L 451.371094 397.859375 C 451.480469 397.859375 451.589844 397.859375 451.703125 397.859375 C 468.121094 397.859375 485.066406 396.863281 496.480469 385.628906 C 507.539062 374.746094 509.097656 358.535156 509.75 342.859375 C 513.703125 247.546875 512.445312 150.964844 506.003906 55.792969 Z M 7.09375 110.457031 C 7.902344 110.585938 8.71875 110.65625 9.539062 110.65625 C 13.355469 110.65625 17.1875 109.289062 20.144531 106.878906 L 24.734375 327.222656 C 18.78125 326.625 12.695312 327.648438 7.261719 330.152344 Z M 484.089844 347.777344 C 450.335938 330.933594 409.726562 323.890625 369.335938 327.9375 C 338.5625 331.023438 307.019531 340.507812 276.953125 355.605469 C 303.039062 334.507812 335.625 320.816406 368.828125 317.367188 C 408.339844 313.257812 449.964844 323.519531 483.046875 345.515625 C 483.535156 345.839844 484.082031 346.011719 484.628906 346.070312 C 484.464844 346.648438 484.28125 347.214844 484.089844 347.777344 Z M 34.277344 359.144531 C 33.097656 356.464844 32.597656 353.328125 32.367188 349.871094 C 32.476562 349.835938 32.589844 349.789062 32.695312 349.730469 C 67.128906 330.480469 107.753906 321.597656 147.082031 324.722656 C 182.042969 327.5 216.511719 339.8125 245.492188 359.6875 C 178.882812 330.949219 101.105469 330.582031 34.277344 359.144531 Z M 147.402344 320.695312 C 107.84375 317.558594 66.996094 326.328125 32.183594 345.40625 C 32.179688 345.246094 32.175781 345.089844 32.175781 344.929688 L 31.972656 335.289062 C 65.597656 314.832031 110.292969 305.941406 151.617188 311.5 C 187.667969 316.351562 221.507812 332.257812 248.257812 356.6875 C 218.601562 336.222656 183.253906 323.542969 147.402344 320.695312 Z M 146.257812 342.152344 C 175.90625 342.941406 205.257812 348.667969 232.46875 358.839844 C 178.105469 347.800781 118.601562 351.1875 61.96875 368.761719 L 59.675781 368.785156 C 51.054688 368.863281 41.507812 368.429688 36.457031 362.609375 C 70.394531 348.21875 108.304688 341.128906 146.257812 342.152344 Z M 249.722656 367.054688 L 76.96875 368.625 C 135.144531 353.074219 195.625 352.46875 249.722656 367.054688 Z M 432.449219 372.460938 C 428.429688 377.523438 427.460938 385.011719 430.488281 390.773438 L 79.804688 390.5 C 81.097656 385.660156 81.1875 380.550781 80.058594 375.667969 Z M 276.414062 366.808594 C 329.949219 348.058594 389.996094 347.511719 443.863281 365.285156 Z M 454.675781 365.140625 C 454.449219 364.839844 454.140625 364.597656 453.761719 364.457031 C 403.890625 345.96875 348.078125 343.367188 296.488281 356.53125 C 353.941406 338.390625 417.730469 339.660156 474.058594 360.949219 C 468.726562 364.078125 462.097656 364.902344 454.675781 365.140625 Z M 477.878906 358.070312 C 416.8125 334.296875 346.804688 333.90625 285.132812 356.109375 C 312.824219 343.035156 341.617188 334.777344 369.742188 331.960938 C 409.488281 327.976562 449.421875 334.925781 482.558594 351.53125 C 481.359375 353.976562 479.839844 356.195312 477.878906 358.070312 Z M 493.78125 323.542969 L 491.800781 82.15625 C 493.558594 82.976562 495.488281 83.390625 497.421875 83.390625 C 498.492188 83.390625 499.5625 83.261719 500.605469 83.011719 C 505.320312 165.285156 506.171875 248.421875 503.136719 330.699219 L 493.628906 331.644531 C 493.75 329.136719 493.804688 326.449219 493.78125 323.542969 Z M 491.371094 42.429688 C 493.058594 42.441406 494.953125 43.359375 495.980469 44.660156 C 498.191406 47.464844 498.636719 51.578125 498.953125 56.269531 C 499.460938 63.796875 499.925781 71.335938 500.371094 78.878906 C 497.628906 79.761719 494.4375 79.386719 492.125 77.6875 C 492.007812 77.601562 491.886719 77.53125 491.761719 77.476562 L 491.667969 66.066406 C 491.609375 58.945312 491.542969 50.738281 489.871094 42.75 C 490.292969 42.542969 490.792969 42.425781 491.371094 42.429688 Z M 329.695312 18.320312 L 338.027344 107.589844 L 319.585938 90.101562 C 319.140625 89.683594 318.527344 89.484375 317.925781 89.566406 C 317.320312 89.648438 316.785156 90 316.46875 90.523438 L 300.359375 117.121094 L 298.261719 30.542969 C 308.433594 25.753906 318.953125 21.671875 329.695312 18.320312 Z M 269.046875 46.90625 C 269.644531 46.511719 270.277344 46.09375 270.953125 45.65625 C 278.457031 40.824219 286.25 36.425781 294.269531 32.46875 L 296.488281 124.128906 C 296.511719 125.027344 297.121094 125.800781 297.988281 126.03125 C 298.160156 126.078125 298.335938 126.101562 298.507812 126.101562 C 299.203125 126.101562 299.863281 125.742188 300.238281 125.128906 L 318.625 94.757812 L 339.148438 114.222656 C 339.757812 114.800781 340.664062 114.9375 341.421875 114.570312 C 342.179688 114.203125 342.625 113.40625 342.546875 112.566406 L 333.636719 17.117188 C 365.761719 7.675781 399.746094 4.753906 432.453125 9.070312 C 456.347656 12.222656 471.46875 19.867188 478.671875 32.4375 C 484.40625 42.429688 484.507812 55.015625 484.597656 66.117188 L 486.710938 323.597656 C 486.753906 328.679688 486.671875 333.976562 486.019531 339.015625 C 451.75 316.554688 408.839844 306.101562 368.097656 310.335938 C 329.957031 314.296875 292.613281 331.242188 264.269531 357.199219 L 264.121094 49.867188 C 265.738281 49.089844 267.316406 48.046875 269.046875 46.90625 Z M 111.925781 21.851562 C 139.5625 19.039062 167.175781 20.917969 193.992188 27.429688 C 207.207031 30.640625 220.113281 34.984375 232.351562 40.347656 C 235.171875 41.582031 237.90625 43.035156 240.800781 44.578125 C 244.179688 46.375 247.671875 48.234375 251.304688 49.703125 C 253.492188 50.589844 255.367188 51.054688 257.054688 51.214844 L 257.203125 355.390625 C 228.785156 327.769531 191.933594 309.792969 152.558594 304.492188 C 111.09375 298.910156 66.328125 307.382812 31.804688 327.179688 L 25.980469 47.761719 C 51.894531 33.890625 81.5625 24.9375 111.925781 21.851562 Z M 9.46875 61.847656 C 11.238281 58.300781 15.25 55.113281 19.074219 55.464844 L 20.035156 101.640625 C 19.695312 101.753906 19.382812 101.957031 19.136719 102.25 C 16.296875 105.671875 11.429688 107.300781 7.089844 106.351562 L 7.070312 78.210938 C 7.066406 72.808594 7.0625 66.6875 9.46875 61.847656 Z M 14.449219 375.777344 C 7.832031 366.886719 7.28125 354.984375 7.269531 341.480469 L 7.265625 334.660156 C 12.597656 331.765625 18.800781 330.582031 24.820312 331.289062 L 25.105469 345.074219 C 25.238281 351.398438 25.417969 360.0625 30.496094 366.519531 C 37.308594 375.183594 49.628906 375.863281 57.523438 375.863281 C 58.308594 375.863281 59.054688 375.855469 59.742188 375.851562 L 75.890625 375.703125 C 77.1875 380.554688 77.085938 385.699219 75.589844 390.492188 L 62.226562 390.484375 C 43.085938 390.46875 24.046875 388.675781 14.449219 375.777344 Z M 491.523438 380.59375 C 482.007812 389.957031 466.660156 390.792969 451.703125 390.792969 C 451.597656 390.792969 451.488281 390.792969 451.378906 390.792969 L 434.527344 390.777344 C 434.625 390.304688 434.558594 389.800781 434.296875 389.351562 C 431.117188 383.960938 433 375.945312 438.25 372.539062 C 438.3125 372.5 438.363281 372.449219 438.417969 372.40625 L 450.042969 372.300781 C 459.109375 372.214844 471.527344 372.101562 480.628906 365.035156 C 486.433594 360.53125 491.847656 353.683594 493.367188 335.726562 L 502.984375 334.773438 C 502.886719 337.371094 502.796875 339.972656 502.6875 342.566406 C 502.09375 356.828125 500.746094 371.511719 491.523438 380.59375 Z M 491.523438 380.59375 " style=" stroke:none;fill-rule:nonzero;fill:rgb(0%,0%,0%);fill-opacity:1;" />
<path d="M 39.914062 108.789062 C 39.957031 108.789062 40 108.789062 40.046875 108.785156 L 62.574219 107.316406 C 63.6875 107.242188 64.53125 106.28125 64.460938 105.167969 C 64.386719 104.054688 63.40625 103.210938 62.3125 103.28125 L 50.011719 104.085938 L 57.203125 83.535156 C 57.386719 83.589844 57.578125 83.625 57.773438 83.625 C 57.882812 83.625 57.996094 83.613281 58.109375 83.597656 L 80.203125 79.886719 C 83.539062 86.4375 86.511719 93.179688 89.074219 100.089844 L 79.964844 101.601562 C 78.863281 101.78125 78.121094 102.820312 78.300781 103.921875 C 78.464844 104.910156 79.320312 105.609375 80.292969 105.609375 C 80.402344 105.609375 80.511719 105.601562 80.625 105.582031 L 98.972656 102.542969 C 100.074219 102.359375 100.816406 101.320312 100.636719 100.21875 C 100.453125 99.117188 99.410156 98.371094 98.3125 98.558594 L 93.105469 99.421875 C 93.085938 99.316406 93.0625 99.214844 93.027344 99.113281 C 86.773438 82.121094 78.183594 66.097656 67.492188 51.488281 C 67.050781 50.882812 66.308594 50.574219 65.566406 50.683594 C 64.824219 50.792969 64.203125 51.304688 63.957031 52.011719 L 45.890625 103.628906 C 45.804688 103.871094 45.773438 104.117188 45.78125 104.363281 L 39.78125 104.753906 C 38.667969 104.828125 37.824219 105.789062 37.898438 106.902344 C 37.96875 107.972656 38.855469 108.789062 39.914062 108.789062 Z M 66.484375 57.023438 C 70.78125 63.15625 74.691406 69.539062 78.230469 76.125 L 58.648438 79.410156 Z M 66.484375 57.023438 " style=" stroke:none;fill-rule:nonzero;fill:rgb(0%,0%,0%);fill-opacity:1;" />
<path d="M 100.558594 71.363281 C 141.1875 63.378906 183.832031 64.707031 223.878906 75.207031 C 224.050781 75.25 224.222656 75.273438 224.390625 75.273438 C 225.289062 75.273438 226.105469 74.671875 226.34375 73.765625 C 226.628906 72.683594 225.984375 71.582031 224.902344 71.300781 C 184.273438 60.644531 141.003906 59.296875 99.78125 67.398438 C 98.6875 67.617188 97.972656 68.675781 98.1875 69.773438 C 98.402344 70.867188 99.46875 71.578125 100.558594 71.363281 Z M 100.558594 71.363281 " style=" stroke:none;fill-rule:nonzero;fill:rgb(0%,0%,0%);fill-opacity:1;" />
<path d="M 224.511719 87.554688 C 186.148438 77.515625 145.078125 74.882812 105.742188 79.953125 C 104.636719 80.09375 103.855469 81.109375 103.996094 82.214844 C 104.140625 83.320312 105.152344 84.105469 106.257812 83.960938 C 145.082031 78.957031 185.625 81.554688 223.492188 91.460938 C 223.660156 91.503906 223.832031 91.527344 224.003906 91.527344 C 224.898438 91.527344 225.71875 90.925781 225.957031 90.015625 C 226.238281 88.9375 225.59375 87.835938 224.511719 87.554688 Z M 224.511719 87.554688 " style=" stroke:none;fill-rule:nonzero;fill:rgb(0%,0%,0%);fill-opacity:1;" />
<path d="M 106.277344 95.386719 C 105.164062 95.5 104.359375 96.492188 104.472656 97.601562 C 104.585938 98.710938 105.585938 99.53125 106.6875 99.40625 C 145.808594 95.382812 185.054688 97.902344 223.339844 106.886719 C 223.496094 106.925781 223.652344 106.941406 223.804688 106.941406 C 224.722656 106.941406 225.550781 106.3125 225.769531 105.382812 C 226.023438 104.296875 225.351562 103.210938 224.265625 102.953125 C 185.539062 93.863281 145.839844 91.316406 106.277344 95.386719 Z M 106.277344 95.386719 " style=" stroke:none;fill-rule:nonzero;fill:rgb(0%,0%,0%);fill-opacity:1;" />
<path d="M 54.351562 146.097656 C 111.382812 137.035156 171.421875 137.230469 227.980469 146.664062 C 228.222656 146.707031 228.464844 146.722656 228.707031 146.71875 C 229.96875 146.691406 231.105469 146.070312 231.425781 145.15625 C 231.804688 144.070312 230.875 142.984375 229.347656 142.730469 C 171.964844 133.15625 111.042969 132.960938 53.179688 142.152344 C 51.644531 142.398438 50.660156 143.480469 50.984375 144.566406 C 51.308594 145.65625 52.820312 146.339844 54.351562 146.097656 Z M 54.351562 146.097656 " style=" stroke:none;fill-rule:nonzero;fill:rgb(0%,0%,0%);fill-opacity:1;" />
<path d="M 229.105469 158.992188 C 174.921875 149.976562 117.070312 148.4375 61.808594 154.550781 C 60.253906 154.71875 59.171875 155.753906 59.394531 156.855469 C 59.617188 157.960938 61.058594 158.71875 62.609375 158.539062 C 117.160156 152.507812 174.261719 154.027344 227.742188 162.925781 C 227.980469 162.96875 228.226562 162.984375 228.464844 162.980469 C 229.726562 162.953125 230.867188 162.332031 231.183594 161.417969 C 231.558594 160.332031 230.628906 159.246094 229.105469 158.992188 Z M 229.105469 158.992188 " style=" stroke:none;fill-rule:nonzero;fill:rgb(0%,0%,0%);fill-opacity:1;" />
<path d="M 62.851562 169.964844 C 61.289062 170.109375 60.171875 171.121094 60.355469 172.226562 C 60.535156 173.335938 61.953125 174.128906 63.507812 173.972656 C 118.488281 168.910156 173.769531 170.386719 227.824219 178.355469 C 228.042969 178.386719 228.261719 178.402344 228.476562 178.398438 C 229.765625 178.371094 230.921875 177.722656 231.210938 176.785156 C 231.546875 175.695312 230.578125 174.625 229.046875 174.398438 C 174.375 166.339844 118.457031 164.847656 62.851562 169.964844 Z M 62.851562 169.964844 " style=" stroke:none;fill-rule:nonzero;fill:rgb(0%,0%,0%);fill-opacity:1;" />
<path d="M 54.351562 198.371094 C 111.382812 189.308594 171.421875 189.503906 227.980469 198.9375 C 228.222656 198.976562 228.464844 198.996094 228.707031 198.988281 C 229.96875 198.964844 231.105469 198.34375 231.425781 197.429688 C 231.804688 196.34375 230.875 195.257812 229.347656 195.003906 C 171.964844 185.429688 111.042969 185.230469 53.179688 194.425781 C 51.644531 194.671875 50.660156 195.75 50.984375 196.839844 C 51.308594 197.929688 52.820312 198.613281 54.351562 198.371094 Z M 54.351562 198.371094 " style=" stroke:none;fill-rule:nonzero;fill:rgb(0%,0%,0%);fill-opacity:1;" />
<path d="M 229.105469 211.265625 C 174.921875 202.246094 117.070312 200.707031 61.808594 206.820312 C 60.253906 206.992188 59.171875 208.027344 59.394531 209.128906 C 59.617188 210.230469 61.058594 210.988281 62.609375 210.8125 C 117.160156 204.78125 174.261719 206.296875 227.742188 215.199219 C 227.980469 215.238281 228.226562 215.257812 228.464844 215.25 C 229.726562 215.226562 230.867188 214.605469 231.183594 213.691406 C 231.558594 212.605469 230.628906 211.519531 229.105469 211.265625 Z M 229.105469 211.265625 " style=" stroke:none;fill-rule:nonzero;fill:rgb(0%,0%,0%);fill-opacity:1;" />
<path d="M 62.851562 222.238281 C 61.289062 222.382812 60.171875 223.394531 60.355469 224.503906 C 60.535156 225.609375 61.953125 226.402344 63.507812 226.246094 C 118.488281 221.1875 173.769531 222.660156 227.824219 230.628906 C 228.042969 230.660156 228.261719 230.675781 228.476562 230.671875 C 229.765625 230.648438 230.921875 229.996094 231.210938 229.0625 C 231.546875 227.96875 230.578125 226.898438 229.046875 226.671875 C 174.375 218.609375 118.457031 217.117188 62.851562 222.238281 Z M 62.851562 222.238281 " style=" stroke:none;fill-rule:nonzero;fill:rgb(0%,0%,0%);fill-opacity:1;" />
<path d="M 54.351562 250.644531 C 111.382812 241.578125 171.421875 241.777344 227.980469 251.210938 C 228.222656 251.25 228.464844 251.269531 228.707031 251.261719 C 229.96875 251.238281 231.105469 250.617188 231.425781 249.703125 C 231.804688 248.617188 230.875 247.53125 229.347656 247.277344 C 171.964844 237.703125 111.042969 237.503906 53.179688 246.699219 C 51.644531 246.945312 50.660156 248.023438 50.984375 249.113281 C 51.308594 250.203125 52.820312 250.886719 54.351562 250.644531 Z M 54.351562 250.644531 " style=" stroke:none;fill-rule:nonzero;fill:rgb(0%,0%,0%);fill-opacity:1;" />
<path d="M 229.105469 263.539062 C 174.921875 254.519531 117.070312 252.980469 61.808594 259.09375 C 60.253906 259.265625 59.171875 260.300781 59.394531 261.402344 C 59.617188 262.503906 61.058594 263.261719 62.609375 263.085938 C 117.160156 257.054688 174.261719 258.570312 227.742188 267.472656 C 227.980469 267.511719 228.226562 267.527344 228.464844 267.523438 C 229.726562 267.5 230.867188 266.878906 231.183594 265.964844 C 231.558594 264.878906 230.628906 263.792969 229.105469 263.539062 Z M 229.105469 263.539062 " style=" stroke:none;fill-rule:nonzero;fill:rgb(0%,0%,0%);fill-opacity:1;" />
<path d="M 62.851562 274.511719 C 61.289062 274.652344 60.171875 275.667969 60.355469 276.773438 C 60.535156 277.878906 61.953125 278.675781 63.507812 278.519531 C 118.488281 273.457031 173.769531 274.933594 227.824219 282.902344 C 228.042969 282.933594 228.261719 282.945312 228.476562 282.941406 C 229.765625 282.917969 230.921875 282.269531 231.210938 281.332031 C 231.546875 280.242188 230.578125 279.171875 229.046875 278.945312 C 174.375 270.882812 118.457031 269.390625 62.851562 274.511719 Z M 62.851562 274.511719 " style=" stroke:none;fill-rule:nonzero;fill:rgb(0%,0%,0%);fill-opacity:1;" />
<path d="M 282.738281 146.09375 C 339.675781 136.457031 399.710938 136.046875 456.367188 144.910156 C 456.609375 144.949219 456.851562 144.964844 457.089844 144.957031 C 458.351562 144.921875 459.484375 144.285156 459.792969 143.367188 C 460.160156 142.277344 459.222656 141.203125 457.695312 140.964844 C 400.214844 131.96875 339.296875 132.386719 281.527344 142.164062 C 279.996094 142.421875 279.019531 143.511719 279.355469 144.597656 C 279.6875 145.683594 281.207031 146.351562 282.738281 146.09375 Z M 282.738281 146.09375 " style=" stroke:none;fill-rule:nonzero;fill:rgb(0%,0%,0%);fill-opacity:1;" />
<path d="M 457.613281 157.226562 C 403.339844 148.753906 345.476562 147.800781 290.277344 154.46875 C 288.726562 154.65625 287.65625 155.699219 287.886719 156.800781 C 288.121094 157.898438 289.570312 158.644531 291.121094 158.453125 C 345.605469 151.871094 402.71875 152.8125 456.289062 161.175781 C 456.527344 161.210938 456.773438 161.226562 457.007812 161.21875 C 458.269531 161.183594 459.40625 160.550781 459.714844 159.632812 C 460.082031 158.542969 459.140625 157.464844 457.613281 157.226562 Z M 457.613281 157.226562 " style=" stroke:none;fill-rule:nonzero;fill:rgb(0%,0%,0%);fill-opacity:1;" />
<path d="M 291.476562 169.875 C 289.917969 170.03125 288.808594 171.058594 289.003906 172.160156 C 289.195312 173.265625 290.621094 174.046875 292.171875 173.875 C 347.097656 168.261719 402.390625 169.179688 456.523438 176.601562 C 456.742188 176.632812 456.964844 176.640625 457.179688 176.636719 C 458.46875 176.597656 459.617188 175.9375 459.898438 174.996094 C 460.222656 173.902344 459.246094 172.84375 457.710938 172.632812 C 402.957031 165.121094 347.027344 164.195312 291.476562 169.875 Z M 291.476562 169.875 " style=" stroke:none;fill-rule:nonzero;fill:rgb(0%,0%,0%);fill-opacity:1;" />
<path d="M 283.265625 198.363281 C 340.203125 188.726562 400.238281 188.316406 456.890625 197.179688 C 457.136719 197.21875 457.378906 197.234375 457.617188 197.226562 C 458.878906 197.191406 460.011719 196.554688 460.320312 195.640625 C 460.6875 194.550781 459.75 193.472656 458.21875 193.234375 C 400.742188 184.238281 339.824219 184.65625 282.054688 194.433594 C 280.519531 194.691406 279.546875 195.78125 279.882812 196.867188 C 280.214844 197.953125 281.734375 198.621094 283.265625 198.363281 Z M 283.265625 198.363281 " style=" stroke:none;fill-rule:nonzero;fill:rgb(0%,0%,0%);fill-opacity:1;" />
<path d="M 458.136719 209.496094 C 403.867188 201.023438 346.003906 200.070312 290.804688 206.738281 C 289.253906 206.925781 288.179688 207.96875 288.414062 209.070312 C 288.648438 210.171875 290.097656 210.914062 291.648438 210.722656 C 346.132812 204.140625 403.246094 205.082031 456.8125 213.445312 C 457.054688 213.480469 457.300781 213.496094 457.535156 213.488281 C 458.796875 213.453125 459.933594 212.820312 460.242188 211.902344 C 460.605469 210.8125 459.667969 209.734375 458.136719 209.496094 Z M 458.136719 209.496094 " style=" stroke:none;fill-rule:nonzero;fill:rgb(0%,0%,0%);fill-opacity:1;" />
<path d="M 292.003906 222.144531 C 290.445312 222.304688 289.339844 223.328125 289.53125 224.433594 C 289.722656 225.535156 291.148438 226.316406 292.699219 226.144531 C 347.625 220.53125 402.921875 221.449219 457.050781 228.871094 C 457.269531 228.902344 457.492188 228.914062 457.707031 228.90625 C 458.996094 228.867188 460.144531 228.207031 460.425781 227.269531 C 460.753906 226.171875 459.773438 225.113281 458.238281 224.902344 C 403.484375 217.394531 347.554688 216.464844 292.003906 222.144531 Z M 292.003906 222.144531 " style=" stroke:none;fill-rule:nonzero;fill:rgb(0%,0%,0%);fill-opacity:1;" />
<path d="M 283.792969 250.632812 C 340.726562 240.996094 400.765625 240.585938 457.417969 249.449219 C 457.664062 249.488281 457.90625 249.503906 458.144531 249.496094 C 459.40625 249.460938 460.539062 248.824219 460.847656 247.910156 C 461.214844 246.820312 460.277344 245.742188 458.746094 245.503906 C 401.269531 236.511719 340.351562 236.925781 282.582031 246.703125 C 281.046875 246.960938 280.074219 248.050781 280.410156 249.136719 C 280.742188 250.222656 282.261719 250.890625 283.792969 250.632812 Z M 283.792969 250.632812 " style=" stroke:none;fill-rule:nonzero;fill:rgb(0%,0%,0%);fill-opacity:1;" />
<path d="M 458.664062 261.765625 C 404.394531 253.292969 346.53125 252.339844 291.332031 259.007812 C 289.78125 259.195312 288.707031 260.238281 288.941406 261.339844 C 289.175781 262.441406 290.625 263.183594 292.175781 262.992188 C 346.660156 256.410156 403.773438 257.351562 457.339844 265.714844 C 457.582031 265.753906 457.828125 265.765625 458.0625 265.761719 C 459.324219 265.722656 460.460938 265.089844 460.765625 264.171875 C 461.132812 263.082031 460.195312 262.003906 458.664062 261.765625 Z M 458.664062 261.765625 " style=" stroke:none;fill-rule:nonzero;fill:rgb(0%,0%,0%);fill-opacity:1;" />
<path d="M 292.53125 274.414062 C 290.96875 274.574219 289.863281 275.597656 290.054688 276.703125 C 290.25 277.804688 291.675781 278.585938 293.226562 278.414062 C 348.152344 272.800781 403.445312 273.71875 457.578125 281.140625 C 457.796875 281.171875 458.015625 281.183594 458.230469 281.175781 C 459.519531 281.140625 460.667969 280.476562 460.949219 279.539062 C 461.277344 278.441406 460.296875 277.382812 458.761719 277.171875 C 404.011719 269.664062 348.082031 268.734375 292.53125 274.414062 Z M 292.53125 274.414062 " style=" stroke:none;fill-rule:nonzero;fill:rgb(0%,0%,0%);fill-opacity:1;" />
<path d="M 359.585938 101.496094 C 360 104.800781 360.695312 110.328125 364.671875 113.347656 C 367.816406 115.734375 371.921875 115.757812 374.921875 115.773438 L 461.546875 116.246094 C 461.550781 116.246094 461.554688 116.246094 461.558594 116.246094 C 462.128906 116.246094 462.675781 116.007812 463.058594 115.582031 C 463.445312 115.15625 463.628906 114.582031 463.566406 114.011719 L 459.425781 75.585938 C 459.058594 72.15625 458.898438 68.378906 458.726562 64.371094 C 458.339844 55.21875 457.941406 45.75 455.015625 38.164062 C 451.902344 30.101562 443.472656 29.511719 436.699219 29.039062 C 435.824219 28.980469 434.960938 28.917969 434.125 28.84375 C 421.332031 27.707031 408.34375 27.566406 395.527344 28.429688 C 381.1875 29.394531 366.886719 31.621094 353.023438 35.046875 C 352.027344 35.289062 351.375 36.242188 351.503906 37.257812 Z M 412.738281 89.023438 C 412.691406 88.945312 412.644531 88.863281 412.585938 88.792969 L 404.761719 79.152344 L 425.085938 60.15625 C 425.554688 59.71875 426.261719 59.058594 426.742188 59.011719 C 427.570312 58.925781 428.722656 60.457031 429.113281 60.957031 L 445.566406 82.214844 C 443.269531 83.027344 441.023438 83.988281 438.808594 84.941406 C 435.148438 86.511719 431.359375 88.140625 427.554688 88.957031 C 422.636719 90.011719 417.550781 89.761719 412.738281 89.023438 Z M 402.210938 76.007812 L 391.664062 63.011719 C 394.621094 59.929688 398.96875 58.203125 403.230469 58.523438 C 407.574219 58.839844 411.699219 61.253906 414.15625 64.84375 Z M 406.609375 87.835938 C 406.304688 87.769531 406 87.699219 405.699219 87.628906 C 403.949219 87.222656 402.203125 86.785156 400.453125 86.347656 C 394.777344 84.925781 388.910156 83.453125 382.902344 83.023438 C 374.757812 82.4375 367.410156 84.0625 361.910156 87.617188 L 360.039062 72.769531 L 376.296875 53.914062 C 377.332031 52.714844 377.71875 52.644531 377.792969 52.664062 C 377.984375 52.683594 378.371094 53.050781 378.9375 53.746094 Z M 459.308594 112.195312 L 374.945312 111.734375 C 371.792969 111.71875 369.03125 111.585938 367.113281 110.132812 C 364.695312 108.292969 364.046875 104.609375 363.59375 100.992188 L 362.484375 92.175781 C 367.339844 88.292969 374.480469 86.464844 382.617188 87.054688 C 388.273438 87.457031 393.964844 88.886719 399.472656 90.265625 C 401.242188 90.707031 403.011719 91.152344 404.785156 91.566406 C 409.582031 92.683594 414.957031 93.710938 420.46875 93.710938 C 423.097656 93.710938 425.761719 93.476562 428.402344 92.90625 C 432.59375 92.007812 436.5625 90.300781 440.40625 88.652344 C 445.777344 86.34375 450.859375 84.160156 456.257812 84.160156 C 456.265625 84.160156 456.277344 84.160156 456.289062 84.160156 Z M 395.800781 32.460938 C 408.40625 31.613281 421.179688 31.75 433.765625 32.867188 C 434.628906 32.945312 435.515625 33.007812 436.417969 33.070312 C 442.917969 33.523438 449.058594 33.953125 451.246094 39.617188 C 453.933594 46.585938 454.320312 55.714844 454.691406 64.546875 C 454.863281 68.617188 455.027344 72.460938 455.410156 76.019531 L 455.851562 80.132812 C 453.75 80.164062 451.703125 80.472656 449.703125 80.960938 L 432.308594 58.484375 C 431.425781 57.347656 429.34375 54.703125 426.335938 54.992188 C 424.5 55.179688 423.195312 56.398438 422.332031 57.207031 L 417.148438 62.050781 C 413.96875 57.746094 408.867188 54.886719 403.523438 54.492188 C 398.25 54.117188 392.855469 56.140625 389.089844 59.847656 L 382.074219 51.203125 C 381.410156 50.386719 380.175781 48.863281 378.242188 48.648438 C 375.753906 48.386719 373.992188 50.40625 373.242188 51.277344 L 359.363281 67.371094 L 355.734375 38.546875 C 368.824219 35.417969 382.292969 33.371094 395.800781 32.460938 Z M 395.800781 32.460938 " style=" stroke:none;fill-rule:nonzero;fill:rgb(0%,0%,0%);fill-opacity:1;" />
</g>
</svg>