<svg height="412pt" viewBox="0 -9 412 412" width="412pt" xmlns="http://www.w3.org/2000/svg"><path d="m406 214.089844v146.660156c0 14.730469-11.941406 26.671875-26.671875 26.671875h-346.65625c-14.730469 0-26.671875-11.941406-26.671875-26.671875v-146.660156h110c12.886719-.003906 23.332031 10.445312 23.328125 23.332031.003906 12.886719 10.453125 23.332031 23.34375 23.328125h86.65625c12.890625.003906 23.339844-10.441406 23.34375-23.328125-.007813-12.890625 10.441406-23.335937 23.328125-23.332031zm-133.328125 106.660156v-26.660156h-133.34375v26.660156zm0 0" fill="#e48e66"/><path d="m366 151.109375h.691406l39.308594 62.980469h-80v-90.269532c0-14.007812-11.359375-25.363281-25.371094-25.359374h-92.75c-9.457031-.003907-18.132812-5.269532-22.5-13.660157l-13.078125-25.152343c-4.375-8.386719-13.050781-13.648438-22.511719-13.648438h-43.789062v-14.640625c.003906-14.007813 11.363281-25.359375 25.371094-25.359375h58.417968c9.460938 0 18.136719 5.261719 22.511719 13.648438l13.078125 25.152343c4.367188 8.390625 13.042969 13.65625 22.5 13.660157h92.75c14.011719-.003907 25.371094 11.351562 25.371094 25.359374zm0 0" fill="#f8ec7d"/><path d="m326 123.820312v90.269532h-30c-12.886719-.003906-23.335938 10.441406-23.328125 23.332031-.003906 12.886719-10.453125 23.332031-23.34375 23.328125h-86.65625c-12.890625.003906-23.339844-10.441406-23.34375-23.328125.003906-12.886719-10.441406-23.335937-23.328125-23.332031h-50v-142.730469c.003906-14.007813 11.363281-25.359375 25.371094-25.359375h58.417968c9.460938 0 18.136719 5.261719 22.511719 13.648438l13.078125 25.152343c4.367188 8.390625 13.042969 13.65625 22.5 13.660157h92.75c14.011719-.003907 25.371094 11.351562 25.371094 25.359374zm0 0" fill="#6fe3ff"/><path d="m139.328125 294.089844h133.34375v26.660156h-133.34375zm0 0" fill="#f8ec7d"/><path d="m66 134.238281v79.851563h-60l39.308594-62.980469c4.761718-7.828125 12.066406-13.78125 20.691406-16.871094zm0 0" fill="#f8ec7d"/><g fill="#63316d"><path d="m0 360.75c.0195312 18.035156 14.636719 32.648438 32.671875 32.671875h346.65625c18.035156-.023437 32.652344-14.636719 32.671875-32.671875v-146.660156c0-1.121094-.316406-2.222656-.914062-3.171875l-39.085938-62.632813v-64.464844c-.023438-17.316406-14.054688-31.34375-31.371094-31.359374h-92.75c-7.226562.011718-13.855468-4.011719-17.179687-10.429688l-13.078125-25.152344c-5.386719-10.390625-16.125-16.9023435-27.832032-16.878906h-58.417968c-17.316406.015625-31.347656 14.046875-31.371094 31.359375v8.640625h-8.628906c-17.316406.015625-31.347656 14.046875-31.371094 31.359375v58.878906c-8.1875 3.828125-15.066406 9.984375-19.78125 17.699219l-39.308594 62.972656h.003906c-.597656.953125-.914062 2.054688-.914062 3.179688zm400 0c-.011719 11.410156-9.257812 20.65625-20.671875 20.671875h-346.65625c-11.414063-.015625-20.660156-9.261719-20.671875-20.671875v-140.660156h104c9.566406.011718 17.320312 7.761718 17.328125 17.332031.007813 16.199219 13.140625 29.328125 29.34375 29.328125h86.65625c16.195313-.015625 29.320313-13.136719 29.34375-29.328125-.003906-4.597656 1.820313-9.007813 5.070313-12.261719 3.25-3.25 7.660156-5.074218 12.257812-5.070312h104zm-4.816406-152.660156h-23.183594v-37.140625zm-283.183594-176.730469c.015625-10.6875 8.679688-19.351563 19.371094-19.359375h58.417968c7.226563-.015625 13.859376 4.003906 17.1875 10.417969l13.082032 25.152343c5.382812 10.390626 16.117187 16.910157 27.820312 16.890626h92.75c10.691406.007812 19.355469 8.667968 19.371094 19.359374v124.269532h-28v-84.269532c-.023438-17.316406-14.054688-31.34375-31.371094-31.359374h-92.75c-7.226562.011718-13.855468-4.011719-17.179687-10.429688l-13.082031-25.152344c-5.386719-10.390625-16.125-16.902344-27.828126-16.878906h-37.789062zm-20.628906 20.640625h58.417968c7.226563-.015625 13.859376 4.003906 17.1875 10.417969l13.082032 25.152343c5.382812 10.390626 16.117187 16.910157 27.820312 16.890626h92.75c10.691406.007812 19.355469 8.667968 19.371094 19.359374v84.269532h-24c-16.199219-.003906-29.335938 13.128906-29.328125 29.332031-.015625 9.566406-7.773437 17.320313-17.34375 17.328125h-86.65625c-9.574219.003906-17.339844-7.757812-17.34375-17.328125-.015625-16.191406-13.136719-29.3125-29.328125-29.332031h-44v-136.730469c.015625-10.6875 8.679688-19.351563 19.371094-19.359375zm-40.933594 102.230469c2.449219-4.019531 5.707031-7.488281 9.5625-10.183594v64.042969h-43.183594zm0 0"/><path d="m272.671875 288.089844h-133.34375c-3.3125 0-6 2.6875-6 6v26.660156c0 3.3125 2.6875 6 6 6h133.34375c3.3125 0 6-2.6875 6-6v-26.660156c0-3.3125-2.6875-6-6-6zm-6 26.660156h-121.34375v-14.660156h121.34375zm0 0"/><path d="m246 157.109375h12.78125c3.3125 0 6-2.6875 6-6s-2.6875-6-6-6h-12.78125c-3.3125 0-6 2.6875-6 6s2.6875 6 6 6zm0 0"/><path d="m133.21875 157.109375h83.359375c3.316406 0 6-2.6875 6-6s-2.683594-6-6-6h-83.359375c-3.3125 0-6 2.6875-6 6s2.6875 6 6 6zm0 0"/><path d="m258.78125 175.109375h-86.742188c-3.3125 0-6 2.6875-6 6s2.6875 6 6 6h86.742188c3.3125 0 6-2.6875 6-6s-2.6875-6-6-6zm0 0"/><path d="m133.21875 187.109375h13.359375c3.316406 0 6-2.6875 6-6s-2.683594-6-6-6h-13.359375c-3.3125 0-6 2.6875-6 6s2.6875 6 6 6zm0 0"/></g></svg>