<?xml version="1.0" encoding="UTF-8"?>
<svg width="349px" height="321px" viewBox="0 0 349 321" version="1.1" xmlns="http://www.w3.org/2000/svg" xmlns:xlink="http://www.w3.org/1999/xlink">
    <!-- Generator: sketchtool 63.1 (101010) - https://sketch.com -->
    <title>42524F03-69F5-4F72-AC5E-F1E6184B1D04</title>
    <desc>Created with sketchtool.</desc>
    <defs>
        <rect id="path-1" x="0" y="0" width="349" height="321"></rect>
        <linearGradient x1="62.0361075%" y1="8.07098048%" x2="35.5242252%" y2="72.9641032%" id="linearGradient-3">
            <stop stop-color="#DAEBFF" offset="0%"></stop>
            <stop stop-color="#3C7BE4" offset="100%"></stop>
        </linearGradient>
    </defs>
    <g id="Design" stroke="none" stroke-width="1" fill="none" fill-rule="evenodd">
        <g id="[U2]-Home-page-Default" transform="translate(-1571.000000, -4610.000000)">
            <g id="Group-4-Copy" transform="translate(0.000000, 4185.000000)">
                <g id="IMG" transform="translate(1571.000000, 425.000000)">
                    <mask id="mask-2" fill="white">
                        <use xlink:href="#path-1"></use>
                    </mask>
                    <use id="Mask" fill="#FFFFFF" fill-rule="nonzero" xlink:href="#path-1"></use>
                    <g id="Group-111" mask="url(#mask-2)">
                        <g transform="translate(191.500000, 243.000000) scale(-1, 1) translate(-191.500000, -243.000000) translate(27.000000, 51.000000)">
                            <path d="M307.84513,160.176749 C312.960497,158.30038 319.090498,157.135738 323.518726,160.326373 C325.56206,161.800374 326.960448,164.048781 327.826404,166.428614 C332.602219,179.526799 322.003806,193.284139 310.442997,200.951369 C298.882188,208.62062 285.028906,214.122343 277.596957,225.896151 C288.108976,231.240162 301.242971,224.015739 312.422037,227.726015 C320.422583,230.380834 325.95385,238.767877 326.004079,247.260062 C326.054309,255.754269 321.015291,263.904745 313.792296,268.266089 C297.781158,277.935048 277.166993,269.028363 258.710686,271.788323 C253.707833,272.536445 248.618585,274.309694 245.198965,278.066475 C241.777335,281.821233 240.549727,287.919431 243.418833,292.119019 C249.558881,301.106581 267.259737,295.05691 271.898929,304.917955 C273.898061,309.166069 271.908975,314.485817 268.370813,317.547047 C264.830641,320.6103 260.111083,321.85582 255.512075,322.63427 C244.662514,324.4702 233.463357,324.195215 222.712246,321.829535 C218.784304,320.966163 214.822205,319.817696 210.817913,320.157383 C206.811613,320.495049 202.642569,322.735368 201.400897,326.593246 C197.673872,338.166881 221.374134,345.931165 216.523978,357.074125 C213.719166,363.516054 204.464893,362.533386 197.796432,360.464933 C182.094707,355.592036 166.392982,350.721161 150.691257,345.848265 C142.148233,343.199512 132.707106,339.806682 128.747017,331.724952 C126.713729,327.571869 126.486692,322.781873 126.412352,318.149588 C126.012526,292.778174 129.08255,267.35419 135.513928,242.821885 C136.942453,237.366667 138.738658,231.63242 143.004143,227.98078 C147.269627,224.331163 154.773907,224.013717 157.793701,228.763275 C159.75064,231.838659 161.191221,237.210977 164.592759,235.957368 C166.190055,235.368981 166.808882,233.460262 167.200672,231.792154 C173.308572,205.79798 175.8321,176.441305 195.230712,158.257919 C197.049018,156.553416 199.092352,154.931813 201.523457,154.426326 C207.82022,153.120147 213.12244,159.90783 213.992414,166.333583 C214.860379,172.759336 213.082257,179.312472 213.865836,185.748335 C214.649416,192.184198 219.724599,199.081066 226.067573,198.025609 C229.880993,180.378039 238.757541,163.874893 251.343031,151.029452 C256.297663,145.972558 264.860779,141.526293 269.700889,146.698438 C272.330902,149.512991 272.276655,153.876356 271.806507,157.716037 C270.787854,166.052532 268.587804,174.239403 265.294761,181.955159 C263.68541,185.730138 260.097018,194.347684 266.431956,194.527637 C269.86765,194.624691 275.923312,183.09756 278.000802,180.733902 C286.065642,171.554255 296.40889,164.370271 307.84513,160.176749" id="Fill-1" stroke="none" fill="#3B2CE0" fill-rule="evenodd"></path>
                            <path d="M303.1719,191.709916 C302.280856,192.340992 301.371585,192.98193 300.330683,193.32705 C299.287756,193.674142 298.07067,193.687947 297.145198,193.108145 C296.938638,192.977985 296.740178,192.808383 296.661199,192.579618 C296.541718,192.23647 296.717902,191.865713 296.906236,191.550174 C298.542518,188.789214 301.122498,186.702717 303.65995,184.689188 C304.409237,184.09361 305.186876,183.484226 306.116398,183.221935 C307.045919,182.959644 308.173901,183.129246 308.763206,183.876677 C309.623874,184.9712 308.931289,186.57453 308.005818,187.613834 C306.685451,189.096864 304.800082,190.556229 303.1719,191.709916" id="Fill-3" stroke="none" fill="#8AB6FD" fill-rule="evenodd"></path>
                            <path d="M309.844589,177.698678 C309.335517,177.983967 308.53797,177.934631 308.264041,177.460581 C308.176771,177.310429 308.15253,177.138827 308.135561,176.971515 C307.968294,175.231899 308.66645,173.438658 310.009431,172.160223 C310.375479,171.814874 310.899096,171.482396 311.405744,171.634692 C311.733005,171.735508 311.948754,172.018652 312.079659,172.301795 C312.377829,172.968898 312.334195,173.723947 312.094204,174.40821 C311.764519,175.339151 310.809402,177.153842 309.844589,177.698678" id="Fill-5" stroke="none" fill="#8AB6FD" fill-rule="evenodd"></path>
                            <path d="M301.350428,199.853591 C301.565833,199.817604 301.825424,199.941559 301.843374,200.153482 C301.848897,200.218791 301.832328,200.285434 301.810235,200.34941 C301.59483,201.00917 301.079792,201.572965 300.428054,201.86086 C300.251312,201.936832 300.02348,201.990146 299.878496,201.866191 C299.78184,201.784887 299.754224,201.652935 299.755604,201.530313 C299.759747,201.246417 299.892304,200.974516 300.080092,200.757262 C300.336921,200.460037 300.940331,199.922899 301.350428,199.853591" id="Fill-7" stroke="none" fill="#8AB6FD" fill-rule="evenodd"></path>
                            <path d="M279.538027,211.659048 C279.835601,211.818089 280.023992,212.217784 279.835601,212.49192 C279.775658,212.579811 279.685743,212.644683 279.59797,212.703277 C278.675278,213.305958 277.487125,213.508944 276.410294,213.241086 C276.119143,213.169936 275.791598,213.015081 275.740218,212.726296 C275.705965,212.535865 275.804443,212.347528 275.926469,212.19895 C276.21548,211.853664 276.647925,211.646492 277.093215,211.558601 C277.703347,211.43932 278.972851,211.353522 279.538027,211.659048" id="Fill-9" stroke="none" fill="#8AB6FD" fill-rule="evenodd"></path>
                            <path d="M316.469924,176.471459 C316.494314,176.095163 316.721954,175.721248 316.975609,175.790315 C317.055283,175.811749 317.126827,175.873672 317.195119,175.937975 C317.904054,176.611975 318.403235,177.733721 318.538193,178.957876 C318.575591,179.288922 318.565835,179.693798 318.373967,179.877183 C318.250391,179.996265 318.086166,179.981975 317.941452,179.922434 C317.609748,179.7843 317.331703,179.431819 317.134957,179.015035 C316.866668,178.448208 316.424396,177.188329 316.469924,176.471459" id="Fill-11" stroke="none" fill="#8AB6FD" fill-rule="evenodd"></path>
                            <path d="M270.236055,204.025936 C269.608375,203.967581 269.02268,203.630215 268.714088,203.152432 C268.340418,202.570704 268.380304,201.855853 268.531452,201.20118 C268.741378,200.30944 269.144437,199.443231 269.795209,198.730203 C270.236055,198.243302 270.836445,197.814757 271.543897,197.760049 C272.247151,197.708988 272.916816,198.035412 273.458427,198.42931 C274.02103,198.835972 274.520655,199.359345 274.652909,199.986663 C274.801956,200.681455 274.472372,201.405424 273.951754,201.945209 C273.204416,202.720239 271.497713,204.142646 270.236055,204.025936" id="Fill-13" stroke="none" fill="#8AB6FD" fill-rule="evenodd"></path>
                            <path d="M288.094083,205.075461 C287.14263,205.021901 286.272325,204.430766 285.763126,203.639279 C285.253926,202.849776 285.081488,201.883726 285.146406,200.949415 C285.18698,200.326541 285.351303,199.673912 285.8179,199.247421 C286.339272,198.771339 287.156831,198.691992 287.826296,198.934001 C288.497791,199.174025 289.035392,199.691765 289.437071,200.269014 C289.875267,200.901807 290.17754,201.627832 290.319548,202.381629 C290.56299,203.696806 289.544591,205.160759 288.094083,205.075461" id="Fill-15" stroke="none" fill="#8AB6FD" fill-rule="evenodd"></path>
                            <path d="M290.467856,193.539075 C290.164967,193.520241 289.891323,193.329811 289.728389,193.074508 C289.567545,192.817113 289.513234,192.505309 289.534123,192.201876 C289.548745,192.000982 289.598878,191.789625 289.7451,191.651511 C289.910123,191.494563 290.169145,191.471544 290.382211,191.548972 C290.595278,191.626399 290.764478,191.793811 290.8919,191.982149 C291.031856,192.187228 291.125856,192.421604 291.169723,192.666443 C291.247011,193.091249 290.927411,193.568372 290.467856,193.539075" id="Fill-17" stroke="none" fill="#8AB6FD" fill-rule="evenodd"></path>
                            <path d="M311.354688,194.585397 C311.051799,194.566563 310.778155,194.376132 310.615221,194.12083 C310.456466,193.863435 310.402155,193.551631 310.423043,193.248198 C310.435577,193.047304 310.487799,192.835947 310.634021,192.697833 C310.799043,192.540884 311.058066,192.517865 311.271132,192.595293 C311.484199,192.674813 311.653399,192.840132 311.778732,193.02847 C311.918688,193.233549 312.012688,193.467925 312.058643,193.712764 C312.135932,194.137571 311.814243,194.614694 311.354688,194.585397" id="Fill-19" stroke="none" fill="#8AB6FD" fill-rule="evenodd"></path>
                            <path d="M313.352658,187.226546 C313.425069,186.927298 313.665062,186.688737 313.946432,186.575734 C314.227802,186.464824 314.546413,186.469009 314.840197,186.546437 C315.032604,186.59666 315.233287,186.688737 315.34087,186.860333 C315.462935,187.057042 315.440177,187.318622 315.32225,187.517423 C315.206392,187.712039 315.011915,187.852246 314.802956,187.944323 C314.575377,188.044769 314.32711,188.094993 314.080911,188.0929 C313.646442,188.090808 313.238868,187.680649 313.352658,187.226546" id="Fill-21" stroke="none" fill="#8AB6FD" fill-rule="evenodd"></path>
                            <path d="M319.655499,183.606949 C319.507187,183.598579 319.369321,183.50441 319.289943,183.378851 C319.210565,183.2512 319.18341,183.096344 319.193854,182.947767 C319.200121,182.849413 319.227276,182.74478 319.300387,182.675723 C319.381854,182.600388 319.509276,182.587832 319.611632,182.6255 C319.718165,182.66526 319.801721,182.746873 319.864387,182.838949 C319.933321,182.941489 319.979276,183.054492 320.002254,183.175865 C320.041943,183.387222 319.881099,183.621598 319.655499,183.606949" id="Fill-23" stroke="none" fill="#8AB6FD" fill-rule="evenodd"></path>
                            <path d="M312.344643,183.607694 C312.196332,183.599324 312.058465,183.503062 311.979087,183.379596 C311.899709,183.251945 311.872554,183.09709 311.882998,182.948512 C311.889265,182.848065 311.916421,182.743433 311.987443,182.676468 C312.068909,182.601133 312.198421,182.586485 312.300776,182.624152 C312.407309,182.663912 312.490865,182.747618 312.553532,182.839694 C312.622465,182.940141 312.668421,183.055237 312.691398,183.17661 C312.728998,183.387967 312.570243,183.622343 312.344643,183.607694" id="Fill-25" stroke="none" fill="#8AB6FD" fill-rule="evenodd"></path>
                            <path d="M322.788487,179.422793 C322.640176,179.412329 322.504398,179.31816 322.42502,179.192602 C322.345643,179.064951 322.318487,178.910095 322.326843,178.761517 C322.335198,178.663163 322.360265,178.558531 322.433376,178.489474 C322.514843,178.414139 322.642265,178.401583 322.746709,178.43925 C322.851154,178.479011 322.934709,178.560624 322.999465,178.6527 C323.066309,178.755239 323.114354,178.870335 323.135243,178.989615 C323.174931,179.203065 323.014087,179.435348 322.788487,179.422793" id="Fill-27" stroke="none" fill="#8AB6FD" fill-rule="evenodd"></path>
                            <path d="M317.622452,171.579085 C317.317475,171.562344 317.039652,171.367728 316.876719,171.10824 C316.711697,170.848752 316.657386,170.530671 316.678275,170.227237 C316.692897,170.022158 316.745119,169.804523 316.89343,169.666409 C317.060541,169.511553 317.321652,169.484349 317.538897,169.56387 C317.751964,169.641297 317.925341,169.810801 318.052764,170.001232 C318.192719,170.210496 318.290897,170.446965 318.336852,170.693897 C318.414141,171.127074 318.088275,171.608382 317.622452,171.579085" id="Fill-29" stroke="none" fill="#8AB6FD" fill-rule="evenodd"></path>
                            <path d="M323.889004,174.705834 C323.586116,174.687 323.312471,174.494477 323.149538,174.239175 C322.988693,173.983872 322.936471,173.669976 322.955271,173.366543 C322.969893,173.167742 323.022116,172.954292 323.168338,172.81827 C323.33336,172.661322 323.590293,172.63621 323.80336,172.715731 C324.016427,172.793158 324.187716,172.96057 324.313049,173.148908 C324.453004,173.353987 324.547004,173.588363 324.59296,173.831109 C324.66816,174.258009 324.34856,174.733039 323.889004,174.705834" id="Fill-31" stroke="none" fill="#8AB6FD" fill-rule="evenodd"></path>
                            <path d="M292.503526,259.05007 C291.43408,259.300198 290.346474,259.550326 289.252814,259.473673 C288.159155,259.397021 287.037246,258.939126 286.415756,258.033421 C286.276527,257.831705 286.161511,257.59368 286.179671,257.349603 C286.205903,256.978446 286.51463,256.69806 286.813267,256.472138 C289.408187,254.501373 292.606435,253.53717 295.732042,252.619362 C296.656204,252.349062 297.612652,252.076745 298.5691,252.189706 C299.525548,252.30065 300.494102,252.89773 300.738259,253.831675 C301.097431,255.195276 299.826203,256.439864 298.565064,257.061149 C296.765167,257.946683 294.45476,258.592174 292.503526,259.05007" id="Fill-33" stroke="none" fill="#8AB6FD" fill-rule="evenodd"></path>
                            <path d="M304.114435,247.963712 C303.577334,248.051222 302.932812,247.735331 302.891159,247.206 C302.878006,247.037383 302.924043,246.8709 302.976657,246.71082 C303.52472,245.058795 304.818148,243.652226 306.442606,242.941472 C306.88544,242.749376 307.451041,242.623446 307.812762,242.937203 C308.049526,243.139971 308.115293,243.472937 308.110909,243.78029 C308.097755,244.493179 307.762341,245.171918 307.291007,245.71619 C306.648677,246.458961 305.133832,247.795094 304.114435,247.963712" id="Fill-35" stroke="none" fill="#8AB6FD" fill-rule="evenodd"></path>
                            <path d="M288.739154,263.696862 C289.088535,263.762857 289.399348,264.054334 289.288181,264.332979 C289.25415,264.420972 289.181552,264.494299 289.108953,264.56396 C288.346667,265.289903 287.194164,265.737201 286.021242,265.764698 C285.699086,265.773864 285.32248,265.720702 285.184089,265.48972 C285.093341,265.337566 285.136446,265.154247 285.21812,265.000259 C285.41096,264.642787 285.792103,264.365976 286.220888,264.188157 C286.801677,263.94251 288.072154,263.575872 288.739154,263.696862" id="Fill-37" stroke="none" fill="#8AB6FD" fill-rule="evenodd"></path>
                            <path d="M264.084825,267.865299 C264.299041,268.121357 264.314342,268.557068 264.027992,268.736722 C263.936186,268.792476 263.826892,268.817256 263.717598,268.837906 C262.604988,269.040274 261.404944,268.775956 260.499992,268.131682 C260.255174,267.956158 260.010356,267.69597 260.078118,267.411003 C260.124022,267.225154 260.292334,267.090931 260.46939,267.002136 C260.878148,266.795638 261.36997,266.772923 261.826817,266.859653 C262.44542,266.975292 263.676067,267.377963 264.084825,267.865299" id="Fill-39" stroke="none" fill="#8AB6FD" fill-rule="evenodd"></path>
                            <path d="M310.487729,249.403318 C310.642307,249.103418 311.041285,248.912767 311.314929,249.096991 C311.402663,249.156971 311.467418,249.244799 311.525907,249.334769 C312.135863,250.251606 312.348929,251.442637 312.094085,252.524419 C312.023063,252.817893 311.874752,253.147782 311.584396,253.201336 C311.398485,253.239895 311.208396,253.141356 311.057996,253.017112 C310.711241,252.734349 310.502352,252.301636 310.410441,251.856071 C310.283018,251.24556 310.189018,249.97527 310.487729,249.403318" id="Fill-41" stroke="none" fill="#8AB6FD" fill-rule="evenodd"></path>
                            <path d="M257.857827,257.184196 C257.35787,256.885399 257.009416,256.316455 256.945028,255.702488 C256.867383,254.961633 257.187431,254.237152 257.577548,253.619091 C258.107805,252.775909 258.793352,252.030962 259.620931,251.539787 C260.181489,251.204152 260.853779,250.989263 261.463574,251.202105 C262.069582,251.414947 262.493788,252.004356 262.787323,252.618324 C263.092221,253.252757 263.294855,253.983378 263.154715,254.681255 C262.999426,255.456901 262.433187,256.079055 261.781729,256.443342 C260.849991,256.961121 258.85774,257.785884 257.857827,257.184196" id="Fill-43" stroke="none" fill="#8AB6FD" fill-rule="evenodd"></path>
                            <path d="M274.34363,264.529606 C273.429554,264.132964 272.819446,263.292008 272.652263,262.405286 C272.487252,261.518564 272.726084,260.597517 273.184208,259.796606 C273.488176,259.258852 273.928931,258.740168 274.567264,258.532312 C275.285932,258.301574 276.124016,258.530405 276.682015,258.989975 C277.242185,259.449545 277.554839,260.101715 277.704652,260.761513 C277.869663,261.482332 277.860978,262.235569 277.678597,262.954482 C277.363773,264.209241 275.739713,265.134102 274.34363,264.529606" id="Fill-45" stroke="none" fill="#8AB6FD" fill-rule="evenodd"></path>
                            <path d="M280.698919,255.238787 C280.429452,255.108424 280.247719,254.827005 280.199674,254.531101 C280.149541,254.237267 280.220563,253.928948 280.356341,253.659944 C280.446163,253.481988 280.575674,253.308171 280.763674,253.239885 C280.976741,253.163323 281.225319,253.239885 281.390341,253.390941 C281.555363,253.546135 281.647274,253.763407 281.69323,253.984818 C281.741274,254.224851 281.739185,254.475231 281.684874,254.713196 C281.592963,255.131186 281.11043,255.441574 280.698919,255.238787" id="Fill-47" stroke="none" fill="#8AB6FD" fill-rule="evenodd"></path>
                            <path d="M300.545224,264.656779 C300.273668,264.524407 300.094024,264.243117 300.04389,263.947349 C299.993757,263.65365 300.066868,263.345472 300.200557,263.076592 C300.292468,262.898717 300.41989,262.724979 300.609979,262.656725 C300.823046,262.580198 301.069535,262.656725 301.236646,262.80978 C301.401668,262.962835 301.493579,263.180007 301.537446,263.401316 C301.58549,263.64124 301.583401,263.891505 301.531179,264.12936 C301.437179,264.547159 300.956735,264.857405 300.545224,264.656779" id="Fill-49" stroke="none" fill="#8AB6FD" fill-rule="evenodd"></path>
                            <path d="M305.101548,258.00832 C305.282339,257.763481 305.590506,257.63583 305.892509,257.642107 C306.192457,257.650478 306.482134,257.780222 306.720449,257.964375 C306.880695,258.089933 307.026561,258.253159 307.059432,258.454053 C307.098466,258.680058 306.9752,258.916527 306.794409,259.050456 C306.611563,259.186478 306.381466,259.236701 306.157532,259.240887 C305.910999,259.242979 305.662411,259.190663 305.436422,259.094402 C305.041969,258.920712 304.826253,258.382903 305.101548,258.00832" id="Fill-51" stroke="none" fill="#8AB6FD" fill-rule="evenodd"></path>
                            <path d="M312.162981,257.886446 C312.031381,257.819482 311.941559,257.679275 311.916492,257.53279 C311.891425,257.384212 311.926936,257.233542 311.993781,257.09752 C312.037648,257.009629 312.102403,256.921738 312.196403,256.886163 C312.298759,256.850588 312.422003,256.886163 312.50347,256.965683 C312.584936,257.041019 312.630892,257.147743 312.651781,257.258653 C312.676848,257.380027 312.674759,257.503493 312.647603,257.622773 C312.603736,257.832038 312.367692,257.986893 312.162981,257.886446" id="Fill-53" stroke="none" fill="#8AB6FD" fill-rule="evenodd"></path>
                            <path d="M305.896314,254.746779 C305.762625,254.681907 305.674892,254.539608 305.649825,254.393123 C305.624759,254.246638 305.66027,254.093875 305.727114,253.959946 C305.770981,253.869962 305.835736,253.784164 305.929736,253.748589 C306.032092,253.710921 306.155336,253.748589 306.236803,253.826016 C306.31827,253.901352 306.364225,254.010169 306.385114,254.118986 C306.410181,254.24036 306.408092,254.363826 306.380936,254.485199 C306.33707,254.694463 306.098936,254.847226 305.896314,254.746779" id="Fill-55" stroke="none" fill="#8AB6FD" fill-rule="evenodd"></path>
                            <path d="M316.340759,253.700458 C316.20707,253.635586 316.119336,253.493286 316.09427,253.346801 C316.069203,253.200316 316.104714,253.047553 316.171559,252.913624 C316.215425,252.82364 316.280181,252.737842 316.374181,252.702267 C316.476536,252.664599 316.599781,252.702267 316.681248,252.779695 C316.762714,252.85503 316.80867,252.963847 316.829559,253.072665 C316.854625,253.194038 316.852536,253.317504 316.825381,253.438877 C316.781514,253.648142 316.543381,253.800905 316.340759,253.700458" id="Fill-57" stroke="none" fill="#8AB6FD" fill-rule="evenodd"></path>
                            <path d="M314.118564,245.822234 C313.84492,245.689522 313.661098,245.409807 313.613053,245.111716 C313.560831,244.817709 313.633942,244.511451 313.771809,244.243986 C313.861631,244.066356 313.993231,243.89281 314.185409,243.823392 C314.400564,243.745807 314.651231,243.823392 314.818342,243.976521 C314.985453,244.127608 315.079453,244.346072 315.12332,244.566577 C315.173453,244.805458 315.171364,245.056589 315.117053,245.29547 C315.023053,245.714023 314.536342,246.024364 314.118564,245.822234" id="Fill-59" stroke="none" fill="#8AB6FD" fill-rule="evenodd"></path>
                            <path d="M318.299287,250.007217 C318.027731,249.874862 317.848087,249.593607 317.800042,249.297877 C317.749909,249.004214 317.820931,248.696075 317.956709,248.429297 C318.046531,248.249377 318.176042,248.077729 318.364042,248.009484 C318.577109,247.930898 318.825687,248.007415 318.990709,248.160451 C319.155731,248.313486 319.247642,248.530631 319.293598,248.751912 C319.341642,248.991806 319.337465,249.242039 319.285242,249.481933 C319.191242,249.899678 318.710798,250.209885 318.299287,250.007217" id="Fill-61" stroke="none" fill="#8AB6FD" fill-rule="evenodd"></path>
                            <path d="M252.755556,221.820163 C201.209444,257.732372 155.269869,301.696209 116.977778,351.564033" id="Stroke-95" stroke="#C8DCFE" stroke-width="0.662" fill="none" stroke-linecap="round" stroke-linejoin="round"></path>
                            <path d="M154.311205,259.487738 C144.999232,276.989202 140.964934,294.107348 151.154465,311.114802 C152.84998,313.94562 166.710044,322.800894 181.733333,323.313351" id="Stroke-97" stroke="#C8DCFE" stroke-width="0.662" fill="none" stroke-linecap="round" stroke-linejoin="round"></path>
                            <path d="M203.919747,218.681199 C191.430963,235.871426 192.669261,261.925705 206.731389,277.815898 C211.081107,282.732211 217.002209,286.874459 223.511111,286.685904" id="Stroke-99" stroke="#C8DCFE" stroke-width="0.662" fill="none" stroke-linecap="round" stroke-linejoin="round"></path>
                            <path d="M246.786124,196.708447 C242.685352,203.750477 239.714807,211.496099 238.03426,219.533354 C236.631831,226.242962 236.324125,233.902929 240.424897,239.295089 C243.292873,243.063891 247.902543,245.056379 252.498406,245.651883 C257.094269,246.245347 261.745361,245.596819 266.333333,244.948292" id="Stroke-101" stroke="#C8DCFE" stroke-width="0.662" fill="none" stroke-linecap="round" stroke-linejoin="round"></path>
                            <path d="M76.0535794,162.998096 C88.0978656,129.453294 104.97999,95.6500813 134.353157,75.6576534 C148.528587,66.0117057 168.006724,60.296411 182.411569,69.5931019 C194.339136,77.2908832 198.784554,92.9206293 198.424332,107.169499 C197.971539,125.181459 191.457361,142.454529 184.152306,158.909975 C160.88681,211.310607 128.72444,259.631193 109.097385,313.521718 C105.27984,324.003459 101.422046,335.39771 92.3400302,341.817574 C83.8255148,347.837712 71.5457764,347.837712 63.031261,341.815556 C40.1863593,325.660915 47.5437378,291.143038 50.5704055,268.172843 C55.2935366,232.332636 63.8422631,197.00521 76.0535794,162.998096" id="Fill-103" stroke="none" fill="url(#linearGradient-3)" fill-rule="evenodd"></path>
                            <path d="M178.6,68.0108992 C141.038137,110.605022 115.379781,162.755895 98.1988374,216.9519 C81.0199129,271.151946 71.9913372,327.59113 64.7555556,384" id="Stroke-105" stroke="#08073F" stroke-width="0.487" fill="none" stroke-linecap="round" stroke-linejoin="round"></path>
                            <path d="M19.1272583,290.877384 L81.3595217,272.910732 C81.3595217,272.910732 119.186185,142.915652 87.8320482,107.891771 C87.8320482,107.891771 101.557677,5.11082609 71.768726,0.204780688 C41.9797748,-4.70328117 30.930694,80.242082 30.930694,80.242082 C30.930694,80.242082 -29.9602699,95.6901764 19.1272583,290.877384" id="Fill-107" stroke="none" fill="#FAD20B" fill-rule="evenodd"></path>
                            <path d="M71.0222222,0 C71.0222222,0 38.5596096,147.392611 50.8048618,281.46049" id="Stroke-109" stroke="#433800" stroke-width="0.487" fill="none" stroke-linecap="round" stroke-linejoin="round"></path>
                        </g>
                    </g>
                </g>
            </g>
        </g>
    </g>
</svg>