<?xml version="1.0" encoding="UTF-8"?>
<svg width="961px" height="746px" viewBox="0 0 961 746" version="1.1" xmlns="http://www.w3.org/2000/svg" xmlns:xlink="http://www.w3.org/1999/xlink">
    <!-- Generator: sketchtool 63.1 (101010) - https://sketch.com -->
    <title>1AF9CC1E-EDE4-41C8-A0FC-985BFED71398</title>
    <desc>Created with sketchtool.</desc>
    <defs>
        <rect id="path-1" x="0" y="0" width="961" height="746"></rect>
        <linearGradient x1="104.505719%" y1="1.25026111%" x2="21.8525327%" y2="67.1981621%" id="linearGradient-3">
            <stop stop-color="#F9F2BE" offset="0%"></stop>
            <stop stop-color="#B4BCDA" offset="5.74032316%"></stop>
            <stop stop-color="#798FF1" offset="19.2222599%"></stop>
            <stop stop-color="#9494B9" offset="38.7673476%"></stop>
            <stop stop-color="#E5A314" offset="72.1671278%"></stop>
            <stop stop-color="#FFF2AA" offset="100%"></stop>
        </linearGradient>
        <path d="M631.20924,0 L139.905173,0 L15.5567742,0 C-9.42330606,38.1830203 -2.04706853,86.6387483 21.5860466,125.687884 C45.2347112,164.766214 84.7495752,191.872694 126.37138,210.602187 C152.31941,222.280142 179.552206,231.2021 204.493413,244.902287 C229.43462,258.602475 252.554606,278.003451 263.730723,304.19905 C276.683357,334.552002 271.798908,369.975132 259.330248,400.530501 C246.859645,431.085871 209.432285,473.258859 189.836178,492.550841 C190.355139,501.852332 172.146814,528.086858 179.468628,537.271569 C184.53967,540.922877 192.596193,534.449397 207.09016,527.975917 C222.225538,521.216327 244.381462,514.458684 277.489981,519.221343 C307.029918,523.470173 334.233559,536.777202 354.338909,558.862162 C390.971306,599.102448 423.401484,639.473139 481.002221,645.960243 C505.717962,648.745435 530.79717,645.9038 555.069753,640.45798 C573.161458,636.397944 591.033527,630.88011 609.510079,629.326942 C651.08718,625.833287 679.359841,650.538001 700.219336,684.176351 C717.135118,711.454107 721.465621,742.009477 732.435709,771 L796.883028,771 C801.889928,771 806.422573,768.968036 809.703492,765.682638 C812.836692,762.545161 814.827013,758.263244 815,753.518101 L815,745.976089 L815,646.400113 L815,396.777985 L815,235.801268 L815,230.676592 L815,17.483845 C814.827013,12.7387026 812.836692,8.45483943 809.703492,5.31736219 C806.422573,2.03196417 801.889928,0 796.883028,0 L631.20924,0 Z" id="path-4"></path>
        <filter x="-16.0%" y="-37.5%" width="132.1%" height="175.0%" filterUnits="objectBoundingBox" id="filter-6">
            <feGaussianBlur stdDeviation="50" in="SourceGraphic"></feGaussianBlur>
        </filter>
        <filter x="-20.0%" y="-46.7%" width="140.0%" height="193.5%" filterUnits="objectBoundingBox" id="filter-7">
            <feGaussianBlur stdDeviation="50" in="SourceGraphic"></feGaussianBlur>
        </filter>
        <filter x="-27.4%" y="-54.0%" width="154.7%" height="207.9%" filterUnits="objectBoundingBox" id="filter-8">
            <feGaussianBlur stdDeviation="50" in="SourceGraphic"></feGaussianBlur>
        </filter>
        <filter x="-47.8%" y="-29.1%" width="195.5%" height="158.3%" filterUnits="objectBoundingBox" id="filter-9">
            <feGaussianBlur stdDeviation="50" in="SourceGraphic"></feGaussianBlur>
        </filter>
        <filter x="-47.8%" y="-29.1%" width="195.5%" height="158.3%" filterUnits="objectBoundingBox" id="filter-10">
            <feGaussianBlur stdDeviation="50" in="SourceGraphic"></feGaussianBlur>
        </filter>
        <linearGradient x1="15.4774579%" y1="35.4002654%" x2="142.798907%" y2="40.3421898%" id="linearGradient-11">
            <stop stop-color="#FFFFFF" stop-opacity="0.0200775787" offset="0%"></stop>
            <stop stop-color="#FFFFFF" stop-opacity="0.842793925" offset="100%"></stop>
        </linearGradient>
        <linearGradient x1="11.8719305%" y1="38.8411676%" x2="100%" y2="51.0686907%" id="linearGradient-12">
            <stop stop-color="#FFFFFF" stop-opacity="0.049770542" offset="0%"></stop>
            <stop stop-color="#FFFFFF" stop-opacity="0.416220498" offset="100%"></stop>
        </linearGradient>
        <linearGradient x1="87.929136%" y1="55.1903641%" x2="-11.5453826%" y2="39.7192216%" id="linearGradient-13">
            <stop stop-color="#FFFFFF" stop-opacity="0" offset="0%"></stop>
            <stop stop-color="#FFFFFF" stop-opacity="0.22770979" offset="100%"></stop>
        </linearGradient>
        <polygon id="path-14" points="0.432023992 0.175476739 197.620147 0.175476739 197.620147 398.867021 0.432023992 398.867021"></polygon>
        <path d="M15.9166761,0.240551724 C12.2799155,0.710896552 8.7686338,2.08772414 5.75076056,4.17862069 L5.75076056,4.17862069 C1.7205493,6.97289655 0.0212676056,11.0606207 0,15.3642759 L0,15.3642759 L0,15.5267586 C0.0170140845,18.8897241 1.04849296,22.3702759 2.7881831,25.4595862 L2.7881831,25.4595862 C5.49980282,30.272069 9.6044507,34.1224828 13.7899155,37.712069 L13.7899155,37.712069 C17.675507,41.0429655 21.4781549,44.3246897 24.9915634,48.0532414 L24.9915634,48.0532414 C28.334831,51.5957931 31.4930704,54.5012414 32.9477746,59.412069 L32.9477746,59.412069 C33.4645775,61.1544828 33.7368028,63.0935862 32.9775493,64.7462069 L32.9775493,64.7462069 C32.2310563,66.3688966 30.5743099,67.44 28.8367465,67.8269655 L28.8367465,67.8269655 C25.1340563,68.6522069 21.3101408,68.0557241 17.7456901,67.0487586 L17.7456901,67.0487586 C15.1510423,66.3154483 12.3968873,65.7296552 9.77671831,66.3688966 L9.77671831,66.3688966 C5.54021127,67.4057931 2.53722535,71.6923448 2.27988732,76.0686897 L2.27988732,76.0686897 C1.8715493,82.9891724 6.6333662,88.115931 12.6265775,90.7263448 L12.6265775,90.7263448 C15.7018732,92.0646897 18.8197042,92.5478621 22.099169,93.016069 L22.099169,93.016069 C26.8078169,93.6852414 30.3488732,92.9348276 34.8597324,91.218069 L34.8597324,91.218069 C38.3582535,89.8861379 42.0247887,88.549931 45.7381127,88.9668276 L45.7381127,88.9668276 C49.4556901,89.3815862 53.196662,92.1502069 53.400831,95.9044138 L53.400831,95.9044138 C53.5135493,97.9824828 52.5139718,100.037034 50.9890845,101.443793 L50.9890845,101.443793 C47.5224648,104.635724 43.496507,104.13331 39.2110845,103.84469 L39.2110845,103.84469 C34.2897606,103.515448 29.1834085,104.359931 24.9702958,106.94469 L24.9702958,106.94469 C20.7593099,109.52731 17.560662,113.99131 17.1523239,118.934207 L17.1523239,118.934207 C16.4185915,127.810897 24.9086197,135.338552 33.6857606,136.550759 L33.6857606,136.550759 C42.4650282,137.760828 51.1783662,134.293103 59.147338,130.397793 L59.147338,130.397793 C62.6182113,128.700276 66.2018028,126.863793 70.064,126.810345 L70.064,126.810345 C73.2647746,126.765448 78.6157042,128.497172 79.6280423,131.982 L79.6280423,131.982 C80.7105634,135.710552 76.752662,140.264345 74.0091408,142.113655 L74.0091408,142.113655 C70.3532394,144.57869 65.9359577,145.542897 61.6888169,146.699517 L61.6888169,146.699517 C52.4544225,149.220138 40.4339718,157.573034 43.1136901,168.968207 L43.1136901,168.968207 C44.8980423,176.566414 53.5454507,180.337724 61.2783521,181.073172 L61.2783521,181.073172 C68.9750986,181.804345 76.7696761,180.694759 84.5280986,179.583034 L84.5280986,179.583034 C94.8428873,178.107862 105.096,176.630552 114.985437,179.48469 L114.985437,179.48469 C119.492042,180.78669 123.907197,182.986621 128.590324,182.738621 L128.590324,182.738621 C133.273451,182.492759 139.755817,177.524207 137.607789,173.331724 L137.607789,173.331724 C132.320662,163.009793 133.233042,150.507172 136.457211,139.355724 L136.457211,139.355724 C139.68138,128.206414 145.028056,117.777586 148.458521,106.688138 L148.458521,106.688138 C150.168437,101.159448 151.399831,95.3271724 150.561887,89.5996552 L150.561887,89.5996552 C149.723944,83.8721379 146.487014,78.2386897 141.25731,75.8142759 L141.25731,75.8142759 C134.068859,72.4833793 125.040761,76.3081379 120.580944,82.8822759 L120.580944,82.8822759 C116.123254,89.4564138 115.474592,97.9782069 116.561366,105.860759 L116.561366,105.860759 C116.999479,109.046276 117.697056,112.274552 117.16962,115.447241 L117.16962,115.447241 C116.640056,118.619931 114.504789,121.799034 111.350803,122.344207 L111.350803,122.344207 C105.938197,123.282759 102.482211,116.509793 102.22062,110.991793 L102.22062,110.991793 C101.184887,88.9604138 120.215141,70.7922759 123.264915,48.9468966 L123.264915,48.9468966 C123.919958,44.252 123.783845,39.3133793 121.884648,34.9733793 L121.884648,34.9733793 C119.985451,30.6333793 116.087099,26.9924828 111.416732,26.3190345 L111.416732,26.3190345 C106.07431,25.5515172 100.765915,28.781931 97.6268169,33.1924828 L97.6268169,33.1924828 C94.4877183,37.6051724 93.1350986,43.0291034 92.11,48.3546897 L92.11,48.3546897 C90.6595493,55.8844828 89.7280282,63.5168966 89.3260704,71.1749655 L89.3260704,71.1749655 C89.0729859,76.0515862 87.8968873,82.3349655 83.1010423,83.1024828 L83.1010423,83.1024828 C79.3494366,83.7032414 76.1848169,80.1072414 74.9364085,76.5026897 L74.9364085,76.5026897 C72.6777887,69.9691724 74.0538028,62.7044828 76.5017042,56.2393793 L76.5017042,56.2393793 C78.9517324,49.7785517 82.4417465,43.7303448 84.5748873,37.1562069 L84.5748873,37.1562069 C86.7122817,30.579931 87.3651972,23.0928966 84.1856901,16.9591724 L84.1856901,16.9591724 C81.0061831,10.8254483 73.084,6.91731034 66.8951268,9.94248276 L66.8951268,9.94248276 C61.954662,12.354069 59.5705634,18.2248276 59.2494225,23.7364138 L59.2494225,23.7364138 C59.0261127,27.5889655 59.600338,31.4158621 60.0618451,35.2277931 L60.0618451,35.2277931 C60.5339859,39.1231034 59.9895352,42.6784828 60.2000845,46.5908966 L60.2000845,46.5908966 C60.3149296,48.7224138 59.9789014,51.1446897 58.2753662,52.4188966 L58.2753662,52.4188966 C57.1247887,53.2847586 55.5190845,53.4173103 54.1600845,52.9405517 L54.1600845,52.9405517 C49.5960563,51.3371034 48.7496056,42.9264828 48.1817606,38.825931 L48.1817606,38.825931 C47.5288451,34.113931 47.3268028,29.3271034 46.2783099,24.689931 L46.2783099,24.689931 C44.7023803,17.7181379 41.1145352,11.1183448 35.6934225,6.48544828 L35.6934225,6.48544828 C31.0102958,2.48324138 24.9256338,0.0566896552 18.8069437,0.0566896552 L18.8069437,0.0566896552 C17.8435211,0.0566896552 16.8779718,0.116551724 15.9166761,0.240551724" id="path-16"></path>
        <linearGradient x1="68.4905292%" y1="95.1895742%" x2="9.87850518%" y2="-13.6919778%" id="linearGradient-18">
            <stop stop-color="#F9DF17" offset="0%"></stop>
            <stop stop-color="#0B00DB" offset="100%"></stop>
        </linearGradient>
        <polygon id="path-19" points="0.12066465 0.609200545 128.655856 0.609200545 128.655856 135.970466 0.12066465 135.970466"></polygon>
        <polygon id="path-21" points="0.077 0.22593311 175.972363 0.22593311 175.972363 138.522602 0.077 138.522602"></polygon>
        <polygon id="path-23" points="0.464587593 0.2275 26.9859285 0.2275 26.9859285 25.5036167 0.464587593 25.5036167"></polygon>
        <polygon id="path-25" points="0 0.46416 10.7536275 0.46416 10.7536275 10.88976 0 10.88976"></polygon>
        <polygon id="path-27" points="0.2552825 0.498575 9.8582825 0.498575 9.8582825 10.1013275 0.2552825 10.1013275"></polygon>
    </defs>
    <g id="Design" stroke="none" stroke-width="1" fill="none" fill-rule="evenodd">
        <g id="[U2]-Home-page-Default" transform="translate(0.000000, -4185.000000)">
            <g id="Group-4-Copy" transform="translate(0.000000, 4185.000000)">
                <g id="IMG-Vector">
                    <mask id="mask-2" fill="white">
                        <use xlink:href="#path-1"></use>
                    </mask>
                    <use id="Mask" fill="#00216C" xlink:href="#path-1"></use>
                    <path d="M447.414525,472.614562 C319.212103,514.283415 308.544191,577.600304 153.078344,632.149279 C72.4715403,660.432137 -63.4541095,589.095518 -126.850036,680.393449 C-220.849076,815.763628 -154.965701,898.544565 -32.7586235,945.060324 C126.486324,1005.68761 343.781772,786.709647 505.388468,712.344146 C574.224311,680.668405 767.619986,368.54013 447.414525,472.614562 Z" id="Path-Copy" fill="#060064" mask="url(#mask-2)" transform="translate(227.481950, 703.500871) rotate(39.000000) translate(-227.481950, -703.500871) "></path>
                    <g mask="url(#mask-2)">
                        <g transform="translate(69.000000, -9.000000)">
                            <path d="M74.1746322,0.694934263 C74.211448,0.45811309 74.2250117,0.232938859 74.2560145,0 L4.39709869,0 C-1.14270771,12.4039942 -0.524590102,26.6676171 1.27357021,40.1528358 C5.39112481,71.0249993 15.1163044,101.140111 29.8329289,128.578368 C41.4182743,150.183447 57.8788043,171.433295 81.4641571,178.009935 C88.8156875,180.059797 98.7443227,179.302746 101.404747,172.135993 C103.693139,165.970878 98.9303393,159.662118 94.8147224,154.537463 C76.4998395,131.744395 65.1392641,103.417089 62.6222272,74.2647906 C61.5022524,61.3017431 62.1358714,48.1969911 64.4223252,35.3931185 C66.5382639,23.5365306 72.3202794,12.4292293 74.1746322,0.694934263" id="Fill-1" fill="#001554"></path>
                            <g id="Oval" stroke-width="1" fill="none" transform="translate(91.000000, 3.000000)">
                                <mask id="mask-5" fill="white">
                                    <use xlink:href="#path-4"></use>
                                </mask>
                                <use id="Mask" fill="url(#linearGradient-3)" xlink:href="#path-4"></use>
                                <path d="M9.5546875,283.351562 C67.4560317,323.944268 201.181538,307.477293 291.523437,253.4375 C324.569339,233.670441 284.69683,126.807759 323.84375,119.632813 C379.650529,109.404404 526.835402,91.2569558 632.195312,136.859375 C689.780932,161.783879 722.811704,262.603813 749.551246,262.409447 C755.42074,262.366783 760.15845,261.363106 763.59375,259.242187 C815.908941,226.943336 799.601563,113.731263 799.601562,88.0625 C799.601562,2.18222141 357.312842,-94 185,-94 C12.6871581,-94 -127,-24.3802786 -127,61.5 C-127,147.380279 -175.007812,153.960937 9.5546875,283.351562 Z" fill="#000F84" opacity="0.735026042" filter="url(#filter-6)" mask="url(#mask-5)"></path>
                                <path d="M204.090787,529.841057 C250.554182,562.41847 357.86328,549.203006 430.358857,505.833719 C456.876804,489.969794 424.880792,404.20784 456.29455,398.449632 C501.077144,390.24089 619.186819,375.676772 703.733718,412.274699 C749.943757,432.277699 776.449563,513.190085 797.906922,513.034098 C802.616944,512.999858 806.418757,512.194363 809.175441,510.492234 C851.156182,484.570999 838.070197,393.713382 838.070197,373.113082 C838.070197,304.19042 483.152089,227 344.878276,227 C206.604463,227 94.5113905,282.872857 94.5113905,351.79552 C94.5113905,420.718182 55.9871389,425.999447 204.090787,529.841057 Z" id="Oval-Copy" fill="#FFFA0A" opacity="0.391834077" filter="url(#filter-7)" mask="url(#mask-5)"></path>
                                <path d="M405.362335,646.273563 C439.311589,674.487024 517.71877,663.041855 570.688872,625.482162 C590.064652,611.74331 566.686232,537.469718 589.639218,532.482859 C622.360367,525.37373 708.659169,512.760569 770.43477,544.45597 C804.198905,561.77944 823.565814,631.853095 839.243991,631.718004 C842.685447,631.68835 845.463305,630.990757 847.477522,629.516638 C878.151451,607.067719 868.589957,528.38106 868.589957,510.540302 C868.589957,450.85027 609.263127,384 508.231061,384 C407.198995,384 325.296323,432.388331 325.296323,492.078363 C325.296323,551.768394 297.147936,556.3422 405.362335,646.273563 Z" id="Oval-Copy-8" fill="#0A35FF" opacity="0.594308036" filter="url(#filter-8)" mask="url(#mask-5)"></path>
                                <path d="M673.76601,398.866493 C693.218684,451.132436 738.145427,429.930056 768.496908,360.350048 C779.599089,334.898579 766.203425,197.305412 779.355318,188.067167 C798.104298,174.897377 847.552881,151.53127 882.94985,210.24757 C902.296453,242.33961 913.39355,372.152316 922.377031,371.902057 C924.348961,371.847123 925.940653,370.554819 927.094785,367.823989 C944.670722,326.236961 939.192056,180.46851 939.192056,147.418185 C939.192056,36.8413279 790.599675,-87 732.709038,-87 C674.818402,-87 627.888769,2.64025389 627.888769,113.217111 C627.888769,223.793968 611.759949,232.267026 673.76601,398.866493 Z" id="Oval-Copy-2" fill="#FFFA0A" opacity="0.848330543" filter="url(#filter-9)" mask="url(#mask-5)"></path>
                                <path d="M689.76601,900.866493 C709.218684,953.132436 754.145427,931.930056 784.496908,862.350048 C795.599089,836.898579 782.203425,699.305412 795.355318,690.067167 C814.104298,676.897377 863.552881,653.53127 898.94985,712.24757 C918.296453,744.33961 929.39355,874.152316 938.377031,873.902057 C940.348961,873.847123 941.940653,872.554819 943.094785,869.823989 C960.670722,828.236961 955.192056,682.46851 955.192056,649.418185 C955.192056,538.841328 806.599675,415 748.709038,415 C690.818402,415 643.888769,504.640254 643.888769,615.217111 C643.888769,725.793968 627.759949,734.267026 689.76601,900.866493 Z" id="Oval-Copy-3" fill="#0A13FF" opacity="0.848330543" filter="url(#filter-10)" mask="url(#mask-5)"></path>
                            </g>
                            <path d="M271.828719,4.96265174 C272.542175,7.01491542 273.272272,9.05939801 274.039809,11.0941542 C297.149129,72.3255323 346.365118,126.046209 410.81745,150.202617 C469.258447,172.106398 534.370154,168.873353 597.279091,171.203791 C660.192188,173.536174 727.695949,183.910318 772.356635,225.412731 C807.869275,258.414299 823.028656,305.746697 851.731223,344.107493 C864.311346,360.920493 879.605931,375.914662 896.828719,388.623134 L896.828719,239.249463 L896.828719,234.127557 L896.828719,4.57554229 L271.828719,4.96265174 Z" id="Fill-4" fill="url(#linearGradient-11)"></path>
                            <path d="M651.016567,564.958299 C604.716861,574.466796 555.730127,570.469259 511.586653,553.576502 C473.056385,538.833274 436.730957,514.206109 395.494218,513.169279 C378.327959,512.739373 362.522714,515.046468 348.529559,520.928975 C354.667727,521.002896 361.266694,521.49505 368.373124,522.516318 C397.922653,526.762851 425.135129,540.062687 445.247008,562.135706 C481.891301,602.354239 514.33201,642.703104 571.951453,649.186701 C596.67522,651.970388 621.762572,649.130289 646.043038,643.687413 C664.140618,639.629572 682.018491,634.114721 700.501043,632.562393 C742.091646,629.070627 770.373489,653.761985 791.239757,687.382149 C809.846744,717.358816 813.229833,751.294114 826.960506,782.758915 L896.043403,782.758915 C896.043403,782.630527 896.043403,782.504085 896.043403,782.377642 L896.043403,749.148478 L896.043403,649.626333 L896.043403,490.781124 C863.241053,497.381438 821.480469,503.089844 777.171875,520.328125 C741.322802,536.289095 689.453509,557.064378 651.016567,564.958299 Z" id="Fill-7" fill="url(#linearGradient-12)"></path>
                            <path d="M243.881296,225.266836 C261.350866,232.324289 278.853489,239.290313 295.352851,248.345562 L295.352851,248.345562 C301.127433,251.514413 306.8048,254.990617 312.258572,258.7839 L312.258572,258.7839 C343.281884,263.787144 373.679129,273.050537 402.100962,285.910741 L402.100962,285.910741 C501.524881,330.895194 568.869732,422.136308 661.027787,479.446015 L661.027787,479.446015 C719.304405,515.686463 787.001175,536.026244 856.041458,540.504264 L856.041458,540.504264 L856.041458,420.095716 C775.557003,411.631831 696.703818,388.800154 625.297316,352.431318 L625.297316,352.431318 C576.003382,327.321726 530.40557,296.142881 481.901023,269.679378 L481.901023,269.679378 C433.39842,243.21004 380.789448,221.191488 325.061813,216.907995 L325.061813,216.907995 C319.13363,216.452801 313.170451,216.223247 307.187828,216.223247 L307.187828,216.223247 C285.773266,216.223247 264.197327,219.172294 243.881296,225.266836" id="Fill-10" fill="url(#linearGradient-13)"></path>
                            <g id="User" stroke-width="1" fill="none" transform="translate(101.000000, 463.000000)">
                                <path d="M279.65272,111.715528 C274.937406,100.632105 269.448834,89.8819445 263.239463,79.5663898 C261.762891,77.1107693 260.19112,74.6220175 257.902434,72.9050321 C255.038663,70.7573387 251.331691,70.0479372 247.756834,70.0187036 C243.59912,69.9855723 239.435577,70.7943679 235.592606,72.3827255 C234.613406,72.7880978 233.533177,73.3942073 233.346663,74.4388204 C233.19512,75.2807474 233.721634,76.1304701 234.434663,76.5982073 C235.147691,77.0678934 236.014206,77.2277036 236.857406,77.3426891 C239.435577,77.6954409 242.072034,77.7246745 244.574434,78.4360248 C247.076834,79.1473752 249.522891,80.7103971 250.447691,83.1484774 C248.23672,82.4410248 245.876149,82.2636745 243.554434,82.2656234 C243.076491,82.2656234 242.581063,82.2831635 242.153634,82.4955942 C241.724263,82.7060759 241.380377,83.1621197 241.442549,83.6376526 C241.514434,84.1736015 242.039006,84.5127109 242.51112,84.7719153 C246.581406,86.9936672 250.898434,88.7593752 255.357291,90.0222657 C257.478891,92.3531562 258.58632,95.8105139 259.373177,98.868346 C260.160034,101.926178 260.58552,105.069762 261.419006,108.113952 C262.252491,111.160091 263.544491,114.1692 265.772949,116.396799 C268.001406,118.628295 271.304263,119.957448 274.36232,119.214915 C277.42232,118.472382 280.888377,114.619397 279.65272,111.715528" id="Fill-1" fill="#FFB77D"></path>
                                <path d="M279.65272,111.715528 C277.733177,107.203813 275.652377,102.762258 273.47832,98.3655285 C271.280949,99.8408496 268.805749,100.828945 266.179006,101.244061 C264.117634,101.571477 262.038777,101.589018 259.95992,101.431156 C260.426206,103.664601 260.81672,105.913638 261.419006,108.113952 C262.252491,111.160091 263.544491,114.1692 265.772949,116.396799 C268.001406,118.628295 271.304263,119.957448 274.36232,119.214915 C277.42232,118.472382 280.888377,114.619397 279.65272,111.715528" id="Fill-3" fill="#F0974F"></path>
                                <polygon id="Fill-5" fill="#FFB77D" points="65.6359314 233.647607 56.6152457 251.949775 72.41456 252.049169 79.06496 237.601936"></polygon>
                                <path d="M230.905851,165.49498 C208.269623,148.907849 183.40688,135.382447 157.201623,125.396258 C147.263909,121.607586 136.286766,118.310039 126.174194,121.599791 C115.906194,124.936316 108.904137,134.285214 103.028937,143.369061 C83.7713371,173.146382 69.0755657,205.886039 59.6138514,240.087374 C65.11408,242.429958 72.5552229,244.809572 78.5275657,244.595192 C96.3357943,215.51363 110.440937,197.548623 123.139451,171.630134 C154.695337,173.136637 186.686423,173.48744 218.240366,174.991995 C221.788023,175.16155 225.545509,175.284331 228.652137,173.55955 C231.758766,171.83282 233.775451,167.5959 230.905851,165.49498" id="Fill-7" fill="#00123F"></path>
                                <path d="M44.0206743,252.367815 C40.7275314,253.250669 37.2401029,254.252407 34.9650171,256.797677 C33.5409029,258.397728 32.7307314,260.77929 33.6419314,262.720399 C34.3471886,264.221056 35.9364457,265.146786 37.5587314,265.480049 C39.1790743,265.809414 40.85576,265.641808 42.5033029,265.493691 C49.9483314,264.833012 57.4361029,264.673202 64.9025029,265.016209 C67.3835314,265.131195 69.9170171,265.294903 72.3106171,264.630326 C74.70616,263.967699 76.9831886,262.293589 77.6379314,259.886691 C78.10616,258.169706 77.69816,256.34748 77.29016,254.612954 C76.8743886,252.855042 76.3459314,250.927574 74.8382743,249.937531 C73.78136,249.241772 72.4524457,249.159918 71.1895886,249.10145 L64.0204457,248.758443 C62.1222743,248.670742 59.90936,248.177669 58.0655886,248.598633 C53.3522171,249.680275 48.6913029,251.114669 44.0206743,252.367815" id="Fill-9" fill="#0D0B30"></path>
                                <path d="M77.7778171,258.979671 C63.0567886,261.144904 48.1259314,261.815328 33.2708457,260.971452 C33.2747314,261.571715 33.3815886,262.164182 33.6419314,262.71962 C34.3471886,264.220277 35.9364457,265.146007 37.5587314,265.479269 C39.1790743,265.810583 40.85576,265.641028 42.5033029,265.494861 C49.9483314,264.834182 57.4361029,264.674372 64.9025029,265.017379 C67.3835314,265.130415 69.9170171,265.294123 72.3106171,264.629547 C74.70616,263.968868 76.9851314,262.292809 77.6379314,259.887861 C77.7195314,259.587729 77.7447886,259.2837 77.7778171,258.979671" id="Fill-11" fill="#D4E4EB"></path>
                                <path d="M42.8973143,252.674183 C39.9538857,253.49857 36.9832571,254.539285 34.9646286,256.798066 C33.5774286,258.357191 32.7847429,260.656899 33.5871429,262.568774 C37.3854286,262.822132 41.1798286,263.07549 44.9761714,263.326899 C45.8932,260.625716 45.6969714,257.563986 44.4477143,254.999227 C44.0358286,254.161198 43.5093143,253.379687 42.8973143,252.674183" id="Fill-13" fill="#D4E4EB"></path>
                                <polygon id="Fill-15" fill="#FFB77D" points="14.0381143 196.860269 30.4338857 189.824722 30.2765143 203.330634 12.3886286 209.953014"></polygon>
                                <path d="M135.173703,156.066372 C123.083303,157.206482 67.1503886,171.386715 22.5074171,191.316219 C21.6991886,196.837467 22.99896,202.489292 28.6993029,206.396847 C74.84216,191.023883 109.648446,196.521745 134.221703,182.546146 C191.69336,193.226146 203.408789,220.549796 263.39256,215.979613 C268.028217,215.626861 272.364674,213.218015 276.155189,210.516832 C279.945703,207.817599 283.00376,203.802854 283.677931,199.187847 C284.311303,194.845686 282.780331,190.404131 280.322617,186.777219 C277.864903,183.148358 274.532903,180.219153 271.17176,177.410781 C265.20136,172.423533 258.935646,167.638971 251.793703,164.571394 C244.65176,161.505766 142.484674,155.37646 135.173703,156.066372" id="Fill-17" fill="#032DAB"></path>
                                <path d="M280.322423,186.776829 C277.862766,183.149917 274.530766,180.218764 271.171566,177.410391 C265.201166,172.423143 258.935451,167.64053 251.791566,164.571004 C249.726309,163.684253 239.699223,162.540245 226.324594,161.380647 C222.518537,167.589858 223.421966,178.499829 224.333166,184.198428 C225.487223,191.411326 228.380137,198.269523 232.403794,204.371545 C239.378651,214.946304 256.536023,216.50153 263.392366,215.979223 C268.028023,215.626472 272.36448,213.217625 276.154994,210.518391 C279.945509,207.817209 283.003566,203.802464 283.677737,199.187457 C284.309166,194.847245 282.780137,190.403742 280.322423,186.776829" id="Fill-19" fill="#232563"></path>
                                <path d="M317.61712,33.5272095 C317.661806,46.2204285 327.894834,61.9149613 332.75392,73.6356766 C324.461806,77.0443117 315.52272,77.2625891 307.288891,73.7175307 C306.338834,69.3130051 307.127634,53.2637715 304.870034,49.3698591 C309.119063,44.5775015 299.32512,41.3364723 303.574149,36.5441146 C306.610834,33.1198883 314.580434,36.9514358 317.61712,33.5272095" id="Fill-21" fill="#FFB77D"></path>
                                <path d="M241.079234,153.799601 C235.938434,155.832309 227.757063,158.094988 227.405406,163.629878 C227.11592,168.233192 252.250663,230.781353 290.820263,203.079615 C341.653177,166.572725 344.357634,110.471542 336.763006,76.2877467 C335.974206,72.7426883 330.697406,69.8914401 328.744834,69.8076372 C294.006549,68.2894401 286.718891,99.2672869 283.820149,107.417608 C271.082777,143.248228 264.069063,144.704061 241.079234,153.799601" id="Fill-23" fill="#5344F3"></path>
                                <path d="M278.7184,120.61306 C273.810743,132.072622 269.379086,138.416308 263.772,142.824789 C277.882971,142.838374 292.040571,140.445118 304.434057,133.842228 C310.278171,130.727877 315.6016,126.605943 320.0624,121.706396 C323.872343,117.520147 338.614743,98.4033372 325.490743,97.3879577 C319.840914,96.949454 314.478629,102.098461 310.130514,105.078337 C304.484571,108.952761 298.817257,112.879804 292.541829,115.676483 C288.071314,117.666315 283.361829,119.057834 278.7184,120.61306" id="Fill-25" fill="#2420CE"></path>
                                <path d="M206.788971,106.260933 C207.430114,105.194882 207.167829,103.824801 206.171143,103.086166 C200.189086,98.6563051 180.404971,83.8933489 170.986,75.5189036 C169.967943,74.6146117 169.591029,73.1997066 169.997086,71.897838 L182.064171,30.0451007 C182.520743,28.5892686 181.9748,27.0048088 180.717771,26.1453416 C178.858457,24.8707577 176.305543,25.6854 175.534229,27.8077577 C171.182229,39.7935241 163.443829,54.7922978 160.449886,77.1014146 C160.313886,78.1245898 181.180171,92.661473 203.4084,107.032699 C204.544971,107.767436 206.089543,107.420531 206.788971,106.260933" id="Fill-27" fill="#0D0B30"></path>
                                <path d="M15.0466514,179.37138 C14.4832229,175.999774 13.8226514,172.421584 11.5106514,169.909445 C10.06128,168.332781 7.77259429,167.299861 5.75979429,168.022905 C4.20356571,168.58419 3.13499429,170.084847 2.65122286,171.673204 C2.16745143,173.259613 2.17522286,174.947365 2.16356571,176.607832 C2.11305143,184.10527 1.55933714,191.596861 0.508251429,199.020241 C0.158537143,201.487555 -0.243634286,204.001642 0.18768,206.455314 C0.617051429,208.908985 2.06253714,211.343168 4.38619429,212.226022 C6.04733714,212.857467 7.89305143,212.623599 9.65328,212.379985 C11.4387657,212.134423 13.4010514,211.787518 14.5279086,210.376511 C15.3186514,209.386467 15.5245943,208.067058 15.7033371,206.811964 C16.04528,204.436248 16.38528,202.062482 16.72528,199.684818 C16.9953371,197.800226 17.6947657,195.636942 17.4499657,193.754299 C16.8263086,188.944401 15.8471086,184.153993 15.0466514,179.37138" id="Fill-29" fill="#0D0B30"></path>
                                <path d="M5.27544,212.45151 C4.52549714,197.546284 5.27932571,182.572846 7.53109714,167.819634 C6.93464,167.765065 6.33624,167.815736 5.76115429,168.02232 C4.20298286,168.583605 3.13441143,170.086211 2.65064,171.67262 C2.16686857,173.260977 2.17464,174.948729 2.16298286,176.607247 C2.11246857,184.104685 1.55875429,191.598226 0.507668571,199.019656 C0.159897143,201.48697 -0.244217143,204.001058 0.187097143,206.456678 C0.618411429,208.91035 2.06195429,211.344532 4.38561143,212.227386 C4.67509714,212.334576 4.97624,212.391094 5.27544,212.45151" id="Fill-31" fill="#D4E4EB"></path>
                                <path d="M14.8492571,178.221915 C14.3130286,175.203061 13.5611429,172.137434 11.5094857,169.907886 C10.0970286,168.372149 7.888,167.364565 5.916,167.984317 L4.08,179.284069 C6.67371429,180.455361 9.73177143,180.552806 12.3934857,179.547171 C13.2658286,179.217806 14.0896,178.763711 14.8492571,178.221915" id="Fill-33" fill="#D4E4EB"></path>
                                <path d="M308.315497,80.2019277 C303.089211,83.8775628 299.248183,89.1551978 295.135154,94.0488985 C291.020183,98.9464971 273.276069,113.676322 267.946811,110.719833 C240.775954,95.6586942 227.94144,95.9939058 214.114126,84.1660007 C210.877326,86.7794825 208.388526,87.9741613 206.917783,92.5307015 C218.14944,101.961453 259.110697,135.287731 273.530583,132.699585 C284.70784,130.692212 305.84224,117.194096 314.412183,109.720045 C317.650926,106.894132 320.710926,103.779782 322.873326,100.059322 C325.035726,96.338862 326.250011,91.9460299 325.60304,87.6896212 C324.954126,83.4332124 322.249669,79.3911832 318.276526,77.7618985 C314.303383,76.1345628 311.830126,77.7287672 308.315497,80.2019277" id="Fill-35" fill="#FFB77D"></path>
                                <path d="M288.436377,130.169126 C300.680263,128.403418 317.077977,117.450572 323.767234,110.761929 C330.277749,104.248688 333.80792,96.1237029 333.833285,88.0026153 C333.840949,85.2877905 333.431006,82.5164474 331.845634,80.2011482 C329.434549,76.6833745 324.466663,74.6623599 319.386091,74.4850095 C314.30552,74.3076591 309.162777,75.8024693 304.71752,78.0631993 C295.277177,82.8691993 280.109291,98.1759 273.894091,105.692827 C274.754777,115.470484 280.422091,125.296864 288.436377,130.169126" id="Fill-37" fill="#5344F3"></path>
                                <path d="M210.86256,72.2921015 C208.325189,70.637481 205.317646,69.8618168 202.325646,69.4038241 C198.579817,68.8288971 194.628046,68.7392474 191.123131,70.185335 C190.097303,70.6082474 189.03456,71.2708752 188.758674,72.3466708 C188.53136,73.2314737 188.923817,74.1883861 189.547474,74.8549117 C190.171131,75.5214372 190.998789,75.9540942 191.816731,76.3594664 C194.169531,77.5249117 198.063017,79.9610431 200.524617,80.8731307 C200.926789,92.2371964 208.200846,93.7963204 210.380731,94.3225248 C212.787931,94.9032985 215.401074,93.825554 217.056389,91.977992 C218.707817,90.1304299 215.125189,75.0731891 210.86256,72.2921015" id="Fill-39" fill="#FFB77D"></path>
                                <path d="M306.674366,64.2852197 C308.269451,63.7804533 309.545909,62.3616504 310.394937,60.9077672 C312.005566,58.1461686 312.726366,54.8739569 312.425223,51.689446 C312.361109,51.0151248 312.24648,50.3252124 311.87928,49.758081 C311.514023,49.1909496 310.841794,48.7738839 310.17928,48.8947161 C308.566709,49.1851029 307.111509,52.2702197 306.068194,54.2191248 C306.427623,57.1639204 306.56168,60.8434533 306.674366,64.2852197" id="Fill-41" fill="#F0974F"></path>
                                <path d="M280.259863,32.6802153 C280.834949,38.7120766 282.56992,44.5724343 284.547749,50.2963686 C285.505577,53.0755073 286.614949,55.9618358 288.858949,57.8503248 C291.648891,60.1948577 295.754149,60.4910912 299.200777,59.3178504 C302.645463,58.1446095 305.520891,55.7026314 307.98832,53.020938 C312.410263,48.214938 315.841349,42.3799161 317.218834,35.9875073 C318.59632,29.5970474 317.805577,22.6394562 314.43472,17.0402518 C311.065806,11.4429964 305.000206,7.39706934 298.487749,7.08524453 C292.377463,6.79095985 286.492549,10.0826606 283.020663,15.0699088 C279.75472,19.7589745 279.74112,27.2408212 280.259863,32.6802153" id="Fill-43" fill="#FFB77D"></path>
                                <path d="M272.715166,22.3418584 C277.727737,24.5421723 282.04088,29.4748511 300.08808,20.9464423 C300.447509,25.6413547 298.935966,42.9554277 319.538023,44.2066248 C321.708194,37.9194569 323.748194,27.1537051 323.635509,23.2091212 C323.52088,19.1826832 322.60968,15.0354131 320.153909,11.8470044 C317.698137,8.65859562 314.649794,6.38422336 310.760194,7.38596058 C309.341909,4.50158102 306.583051,2.40066131 303.524994,1.43790219 C300.464994,0.477091971 297.020309,0.829843796 294.214823,2.38896788 C292.099051,3.56415766 290.457337,5.42146423 288.345451,6.62198978 C286.429794,7.70558102 270.733451,21.4726467 272.715166,22.3418584" id="Fill-45" fill="#0D0B30"></path>
                                <path d="M269.732686,0.245367153 C265.328229,1.22956423 262.0584,5.52884891 261.710629,10.0405642 C261.362857,14.5561774 263.651543,19.0445058 267.1448,21.9093964 C270.638057,24.7742869 275.199886,26.1229292 279.7112,26.2768927 C284.220571,26.4328051 288.702743,25.4622504 293.006171,24.0999657 C297.432,22.6987029 302.026857,20.6250679 304.373829,16.6083745 C306.124343,13.6090095 306.332229,9.76576861 304.8984,6.60269562 C303.814286,4.20749124 301.401257,1.28218467 298.541371,1.22761533 C295.934057,1.1788927 293.3384,2.92121387 290.824343,3.46495839 C287.307771,4.2289292 283.960229,3.24473212 280.6496,2.09877591 C277.168,0.894352555 273.472686,-0.592662044 269.732686,0.245367153" id="Fill-47" fill="#0D0B30"></path>
                                <path d="M309.934091,33.5272095 C309.934091,36.7779832 307.596834,39.4148518 304.711691,39.4148518 C301.828491,39.4148518 299.491234,36.7779832 299.491234,33.5272095 C299.491234,30.2764358 301.828491,27.6395672 304.711691,27.6395672 C307.596834,27.6395672 309.934091,30.2764358 309.934091,33.5272095" id="Fill-49" fill="#FFB77D"></path>
                                <polygon id="Fill-51" fill="#0D0B30" points="286.844594 35.7824825 286.628937 35.3478766 302.371909 27.4236285 302.589509 27.8582343"></polygon>
                                <path d="M287.974366,36.5951759 C288.887509,40.6644898 287.700423,44.398592 285.324309,44.9345409 C282.946251,45.4724387 280.278709,42.6094971 279.365566,38.5401832 C278.452423,34.4708693 279.639509,30.7367672 282.017566,30.2008182 C284.39368,29.6629204 287.061223,32.525862 287.974366,36.5951759" id="Fill-53" fill="#FFFFFF"></path>
                            </g>
                            <path d="M323.269324,388.419605 C330.510263,371.043476 333.389849,351.460884 328.749323,333.22701 C324.108796,314.995076 311.315625,298.414592 293.704271,291.539047 C283.331904,287.489016 269.781255,287.704422 262.962005,296.464289 C257.94274,302.910961 258.145775,312.163741 261.052693,319.786416 C263.961563,327.409092 269.166293,333.898457 273.761917,340.651744 C281.207843,351.594786 287.259855,363.696365 289.639662,376.694502 C291.763723,388.299288 290.791497,400.707483 285.614098,411.421534 C282.816507,417.212283 272.184489,429.329388 282.972688,432.471218 C301.562125,437.885492 318.353529,400.210689 323.269324,388.419605" id="Fill-1" fill="#FAD20B"></path>
                            <path d="M281.32725,459.1642 C281.32725,465.330117 276.3305,470.326867 270.164583,470.326867 C263.998667,470.326867 259,465.330117 259,459.1642 C259,452.998283 263.998667,447.999617 270.164583,447.999617 C276.3305,447.999617 281.32725,452.998283 281.32725,459.1642" id="Fill-1" fill="#FAD20B"></path>
                            <path d="M542.05175,669.737561 C548.637583,671.852683 555.587028,673.595122 560.961472,677.961951 C566.333972,682.32878 569.575361,690.324878 566.172583,696.363902 C562.779528,702.39122 554.778139,703.741463 547.881194,703.680976 C528.423139,703.515122 508.922306,697.222439 493.567028,685.226341 C478.213694,673.234146 467.235361,655.478049 464.238972,636.186341 C462.770917,626.72878 468.178417,621.163902 477.461194,625.487805 C483.47925,628.291707 485.612306,634.484878 489.839528,639.197073 C502.915917,653.772683 523.737028,663.854634 542.05175,669.737561" id="Fill-1" fill="#CC801F"></path>
                        </g>
                    </g>
                    <g id="1" mask="url(#mask-2)">
                        <g transform="translate(68.804688, 155.617188) rotate(153.000000) translate(-68.804688, -155.617188) translate(-114.195312, -43.882812)">
                            <g id="Group-10" transform="translate(77.000000, 0.000000)">
                                <g id="Group-3" transform="translate(90.558824, 0.000000)">
                                    <mask id="mask-15" fill="white">
                                        <use xlink:href="#path-14"></use>
                                    </mask>
                                    <g id="Clip-2"></g>
                                    <path d="M163.388846,398.867021 C155.838184,386.470149 158.972743,369.446846 165.429507,356.44634 C171.886272,343.447968 181.680169,332.399138 188.881125,319.7975 C196.082081,307.193729 200.602669,291.721101 195.320831,278.200149 C191.207522,267.669633 181.622596,259.562181 179.375096,248.483489 C174.796934,225.929372 202.553772,205.173356 195.802743,183.171681 C190.250096,165.071223 166.186493,161.146543 153.240978,147.331239 C134.689507,127.537197 144.097449,95.1991064 136.21414,69.2343564 C128.505684,43.8391117 105.086051,26.9992447 83.1356103,12.0875904 C75.3781103,6.817 67.2154632,1.39283511 57.8992132,0.322079787 C48.5829632,-0.750808511 37.8614926,4.11664894 35.6417132,13.230867 C32.6223015,25.6362713 45.947375,36.3459574 46.9325221,49.0755745 C47.5871544,57.5349681 42.5974485,65.4845798 36.4882574,71.3716011 C30.3833309,77.2586223 23.0437721,81.7506755 16.9601691,87.6632926 C-3.533875,107.581048 -5.22483088,143.70091 13.3181103,165.446628 C20.3058309,173.643665 29.4493603,179.675729 37.2623015,187.092096 C45.0752426,194.504197 51.8390662,204.172989 51.7601691,214.942399 C51.6428897,231.411128 35.8101691,244.944878 36.6567132,261.392277 C37.2153897,272.22141 44.9558309,281.275904 53.1334044,288.393654 C61.3109779,295.511404 70.5547279,301.886878 76.0476691,311.235723 C81.5384779,320.584569 82.8775956,334.933117 74.258625,341.511223 L163.388846,398.867021 Z" id="Fill-1" fill="#FAD20B" mask="url(#mask-15)"></path>
                                </g>
                                <path d="M230.176199,355.923974 C230.760463,356.297245 231.513184,356.38683 232.201934,356.096745 C235.104066,354.889479 237.210831,352.566665 238.291934,349.382128 C239.927449,344.570128 239.085169,338.137064 236.146787,332.996586 C234.933478,330.878538 233.509066,328.856474 232.131566,326.904798 C229.10789,322.613245 226.254801,318.55632 225.72811,313.850969 C225.122522,308.416139 227.743184,303.29699 230.517375,297.881357 C232.685978,293.647394 234.929213,289.259857 235.737375,284.44999 C237.458184,274.213825 232.163551,262.659479 221.580684,253.534596 C217.42686,249.951192 212.835904,246.879703 208.40061,243.908463 C203.758478,240.79858 198.958551,237.582048 194.787669,233.851469 C185.543919,225.564846 181.204581,215.414001 183.185537,206.698649 C184.245316,202.025293 186.996051,197.910777 189.91311,193.557368 C193.25664,188.564064 196.706787,183.402256 197.540537,177.180357 C198.819949,167.601149 193.612743,159.427575 188.576125,151.524889 C184.571566,145.243266 180.428404,138.74408 179.839875,131.786304 C179.127669,123.401564 183.417963,115.827357 187.959875,107.807357 C191.945243,100.764261 196.067081,93.4844048 196.830463,85.3044314 C198.246346,70.1752133 187.795684,57.0040697 179.814287,48.4188303 C178.957081,47.4973835 177.59664,47.4803197 176.709581,48.3015165 C175.822522,49.1269793 175.773478,50.5176814 176.596566,51.4028676 C184.008625,59.380208 193.710831,71.5211229 192.463404,84.8970324 C191.785316,92.1384952 187.898037,99.0024207 184.138699,105.642384 C179.470978,113.890612 174.639066,122.420394 175.464287,132.157442 C176.148772,140.19024 180.586199,147.154415 184.87436,153.883963 C189.699875,161.456038 194.256713,168.610048 193.190537,176.60232 C192.493257,181.806788 189.469581,186.330836 186.266787,191.110841 C183.258037,195.611426 180.146934,200.257054 178.905904,205.726011 C176.566713,216.017634 181.409287,227.755415 191.859949,237.119192 C196.258993,241.060937 201.191125,244.362788 205.961199,247.555857 C210.28561,250.454575 214.759287,253.453543 218.714801,256.864176 C228.122743,264.973761 232.873625,275.015825 231.410831,283.720511 C230.713551,287.867022 228.717669,291.759708 226.608772,295.880623 C223.66186,301.637532 220.614728,307.592809 221.367449,314.343687 C222.015684,320.164586 225.333625,324.876336 228.544949,329.430245 C229.862743,331.303001 231.227449,333.237612 232.33414,335.174357 C234.607228,339.145963 235.347154,344.410155 234.133846,347.967963 C233.462154,349.953766 232.240316,351.327405 230.51311,352.050485 C229.391493,352.513341 228.866934,353.80166 229.333919,354.917208 C229.510904,355.345937 229.811566,355.691479 230.176199,355.923974" id="Fill-4" fill="#FFE68D"></path>
                                <path d="M193.963728,371.940085 C185.349022,365.425968 182.862699,352.788069 183.777478,342.025058 C184.690125,331.262047 188.447331,320.936297 189.98689,310.243675 C191.524316,299.551053 190.42189,287.606372 183.069537,279.695154 C177.344169,273.532978 168.494904,270.544675 163.910346,263.493047 C154.574904,249.135968 168.108949,227.179085 157.421596,213.796776 C148.629904,202.788473 130.903654,206.657696 118.16711,200.63843 C99.9163015,192.012664 97.5835074,167.058946 85.0324779,151.247175 C72.750125,135.780946 51.9404926,130.533819 32.6704191,126.220936 C25.8618162,124.695856 18.7290956,123.172909 11.9908603,124.981675 C5.25049265,126.788308 -0.839507353,133.089127 0.115786765,140.004244 C1.41865441,149.414946 13.5666691,153.181787 17.7290221,161.722234 C20.4946838,167.395957 19.2152721,174.264148 16.598875,180.010393 C13.9803456,185.752372 10.1314485,190.869388 7.536375,196.626297 C-1.199875,216.015074 7.50652206,241.478574 26.2840221,251.454515 C33.3613015,255.212824 41.3405662,256.889345 48.7739485,259.884047 C56.2051985,262.876616 63.5319632,267.716345 66.4213015,275.192436 C70.8416691,286.623069 63.5852721,300.318925 68.6688015,311.470138 C72.0165956,318.811851 79.8487279,322.960494 87.4548309,325.648047 C95.0609338,328.337734 103.202257,330.221154 109.558801,335.188861 C115.913213,340.156569 120.764316,349.720845 116.597699,356.629563 L193.963728,371.940085 Z" id="Fill-6" fill="#5344F3"></path>
                                <path d="M165.770397,348.725171 C166.277897,348.823288 166.823779,348.680378 167.220397,348.290043 C168.896426,346.658314 169.721647,344.476277 169.597971,341.976426 C169.414588,338.198921 167.073265,333.977756 163.633779,331.22408 C162.215765,330.091469 160.676206,329.080437 159.189956,328.105665 C155.923191,325.962022 152.839809,323.937825 151.189368,320.825809 C149.285176,317.227474 149.698853,312.967915 150.135985,308.463064 C150.481426,304.937251 150.835397,301.287724 150.076279,297.738447 C148.468485,290.18557 141.647088,283.635192 131.827603,280.216027 C127.972309,278.872251 123.957088,278.001995 120.074074,277.159469 C116.011941,276.276415 111.809074,275.363501 107.904735,273.92374 C99.2388529,270.717873 93.4623088,264.877777 92.4494412,258.30607 C91.9056912,254.780256 92.6861324,251.181921 93.5113529,247.370288 C94.46025,243.001947 95.439,238.484298 94.3131176,233.949586 C92.5816471,226.970479 86.7411324,222.740782 81.0967941,218.647596 C76.6060588,215.396937 71.9617941,212.031096 69.6524559,207.376937 C66.8676029,201.771469 67.7653235,195.355469 68.7142206,188.559798 C69.5479706,182.59599 70.4094412,176.431681 68.7035588,170.561724 C65.5455441,159.702729 54.7110588,153.446703 46.8405441,149.690527 C45.9961324,149.285261 45.0493676,149.645735 44.6612794,150.458399 C44.2710588,151.271064 44.6186324,152.247969 45.4289265,152.634038 C52.7386324,156.125724 62.7756176,161.874102 65.569,171.472506 C67.0787059,176.670575 66.2641471,182.485075 65.4794412,188.107607 C64.5028235,195.095245 63.4920882,202.317511 66.7247353,208.829495 C69.3965735,214.204602 74.3692206,217.809336 79.1776765,221.294623 C84.5874559,225.215038 89.6987059,228.917889 91.1444412,234.740921 C92.0848088,238.533357 91.2297353,242.490032 90.3192206,246.674937 C89.4684118,250.612415 88.5856176,254.677873 89.2210588,258.803054 C90.4173088,266.564963 96.9785588,273.364899 106.770324,276.984564 C110.892162,278.511777 115.208044,279.448155 119.383191,280.350405 C123.168118,281.173735 127.083118,282.024793 130.755029,283.302447 C139.48275,286.344075 145.515176,291.992203 146.884147,298.418868 C147.534515,301.477559 147.218926,304.715421 146.884147,308.147384 C146.419294,312.938054 145.939515,317.89083 148.306426,322.359421 C150.347088,326.209447 153.931574,328.562123 157.398779,330.833745 C158.823191,331.772256 160.294515,332.736362 161.590985,333.775123 C164.250029,335.89957 166.201132,339.342197 166.335471,342.134266 C166.412235,343.695607 165.943118,344.977527 164.945176,345.950165 C164.296941,346.579394 164.284147,347.613889 164.913191,348.258048 C165.152015,348.505474 165.454809,348.663314 165.770397,348.725171" id="Fill-8" fill="#B0AEFF"></path>
                            </g>
                            <g id="Group-13" transform="translate(0.000000, 179.000000)">
                                <mask id="mask-17" fill="white">
                                    <use xlink:href="#path-16"></use>
                                </mask>
                                <g id="Clip-12"></g>
                                <path d="M15.9166761,0.240551724 C12.2799155,0.710896552 8.7686338,2.08772414 5.75076056,4.17862069 L5.75076056,4.17862069 C1.7205493,6.97289655 0.0212676056,11.0606207 0,15.3642759 L0,15.3642759 L0,15.5267586 C0.0170140845,18.8897241 1.04849296,22.3702759 2.7881831,25.4595862 L2.7881831,25.4595862 C5.49980282,30.272069 9.6044507,34.1224828 13.7899155,37.712069 L13.7899155,37.712069 C17.675507,41.0429655 21.4781549,44.3246897 24.9915634,48.0532414 L24.9915634,48.0532414 C28.334831,51.5957931 31.4930704,54.5012414 32.9477746,59.412069 L32.9477746,59.412069 C33.4645775,61.1544828 33.7368028,63.0935862 32.9775493,64.7462069 L32.9775493,64.7462069 C32.2310563,66.3688966 30.5743099,67.44 28.8367465,67.8269655 L28.8367465,67.8269655 C25.1340563,68.6522069 21.3101408,68.0557241 17.7456901,67.0487586 L17.7456901,67.0487586 C15.1510423,66.3154483 12.3968873,65.7296552 9.77671831,66.3688966 L9.77671831,66.3688966 C5.54021127,67.4057931 2.53722535,71.6923448 2.27988732,76.0686897 L2.27988732,76.0686897 C1.8715493,82.9891724 6.6333662,88.115931 12.6265775,90.7263448 L12.6265775,90.7263448 C15.7018732,92.0646897 18.8197042,92.5478621 22.099169,93.016069 L22.099169,93.016069 C26.8078169,93.6852414 30.3488732,92.9348276 34.8597324,91.218069 L34.8597324,91.218069 C38.3582535,89.8861379 42.0247887,88.549931 45.7381127,88.9668276 L45.7381127,88.9668276 C49.4556901,89.3815862 53.196662,92.1502069 53.400831,95.9044138 L53.400831,95.9044138 C53.5135493,97.9824828 52.5139718,100.037034 50.9890845,101.443793 L50.9890845,101.443793 C47.5224648,104.635724 43.496507,104.13331 39.2110845,103.84469 L39.2110845,103.84469 C34.2897606,103.515448 29.1834085,104.359931 24.9702958,106.94469 L24.9702958,106.94469 C20.7593099,109.52731 17.560662,113.99131 17.1523239,118.934207 L17.1523239,118.934207 C16.4185915,127.810897 24.9086197,135.338552 33.6857606,136.550759 L33.6857606,136.550759 C42.4650282,137.760828 51.1783662,134.293103 59.147338,130.397793 L59.147338,130.397793 C62.6182113,128.700276 66.2018028,126.863793 70.064,126.810345 L70.064,126.810345 C73.2647746,126.765448 78.6157042,128.497172 79.6280423,131.982 L79.6280423,131.982 C80.7105634,135.710552 76.752662,140.264345 74.0091408,142.113655 L74.0091408,142.113655 C70.3532394,144.57869 65.9359577,145.542897 61.6888169,146.699517 L61.6888169,146.699517 C52.4544225,149.220138 40.4339718,157.573034 43.1136901,168.968207 L43.1136901,168.968207 C44.8980423,176.566414 53.5454507,180.337724 61.2783521,181.073172 L61.2783521,181.073172 C68.9750986,181.804345 76.7696761,180.694759 84.5280986,179.583034 L84.5280986,179.583034 C94.8428873,178.107862 105.096,176.630552 114.985437,179.48469 L114.985437,179.48469 C119.492042,180.78669 123.907197,182.986621 128.590324,182.738621 L128.590324,182.738621 C133.273451,182.492759 139.755817,177.524207 137.607789,173.331724 L137.607789,173.331724 C132.320662,163.009793 133.233042,150.507172 136.457211,139.355724 L136.457211,139.355724 C139.68138,128.206414 145.028056,117.777586 148.458521,106.688138 L148.458521,106.688138 C150.168437,101.159448 151.399831,95.3271724 150.561887,89.5996552 L150.561887,89.5996552 C149.723944,83.8721379 146.487014,78.2386897 141.25731,75.8142759 L141.25731,75.8142759 C134.068859,72.4833793 125.040761,76.3081379 120.580944,82.8822759 L120.580944,82.8822759 C116.123254,89.4564138 115.474592,97.9782069 116.561366,105.860759 L116.561366,105.860759 C116.999479,109.046276 117.697056,112.274552 117.16962,115.447241 L117.16962,115.447241 C116.640056,118.619931 114.504789,121.799034 111.350803,122.344207 L111.350803,122.344207 C105.938197,123.282759 102.482211,116.509793 102.22062,110.991793 L102.22062,110.991793 C101.184887,88.9604138 120.215141,70.7922759 123.264915,48.9468966 L123.264915,48.9468966 C123.919958,44.252 123.783845,39.3133793 121.884648,34.9733793 L121.884648,34.9733793 C119.985451,30.6333793 116.087099,26.9924828 111.416732,26.3190345 L111.416732,26.3190345 C106.07431,25.5515172 100.765915,28.781931 97.6268169,33.1924828 L97.6268169,33.1924828 C94.4877183,37.6051724 93.1350986,43.0291034 92.11,48.3546897 L92.11,48.3546897 C90.6595493,55.8844828 89.7280282,63.5168966 89.3260704,71.1749655 L89.3260704,71.1749655 C89.0729859,76.0515862 87.8968873,82.3349655 83.1010423,83.1024828 L83.1010423,83.1024828 C79.3494366,83.7032414 76.1848169,80.1072414 74.9364085,76.5026897 L74.9364085,76.5026897 C72.6777887,69.9691724 74.0538028,62.7044828 76.5017042,56.2393793 L76.5017042,56.2393793 C78.9517324,49.7785517 82.4417465,43.7303448 84.5748873,37.1562069 L84.5748873,37.1562069 C86.7122817,30.579931 87.3651972,23.0928966 84.1856901,16.9591724 L84.1856901,16.9591724 C81.0061831,10.8254483 73.084,6.91731034 66.8951268,9.94248276 L66.8951268,9.94248276 C61.954662,12.354069 59.5705634,18.2248276 59.2494225,23.7364138 L59.2494225,23.7364138 C59.0261127,27.5889655 59.600338,31.4158621 60.0618451,35.2277931 L60.0618451,35.2277931 C60.5339859,39.1231034 59.9895352,42.6784828 60.2000845,46.5908966 L60.2000845,46.5908966 C60.3149296,48.7224138 59.9789014,51.1446897 58.2753662,52.4188966 L58.2753662,52.4188966 C57.1247887,53.2847586 55.5190845,53.4173103 54.1600845,52.9405517 L54.1600845,52.9405517 C49.5960563,51.3371034 48.7496056,42.9264828 48.1817606,38.825931 L48.1817606,38.825931 C47.5288451,34.113931 47.3268028,29.3271034 46.2783099,24.689931 L46.2783099,24.689931 C44.7023803,17.7181379 41.1145352,11.1183448 35.6934225,6.48544828 L35.6934225,6.48544828 C31.0102958,2.48324138 24.9256338,0.0566896552 18.8069437,0.0566896552 L18.8069437,0.0566896552 C17.8435211,0.0566896552 16.8779718,0.116551724 15.9166761,0.240551724" id="Fill-11" fill="url(#linearGradient-18)" mask="url(#mask-17)"></path>
                            </g>
                        </g>
                    </g>
                    <g id="Group-84" mask="url(#mask-2)">
                        <g transform="translate(477.000000, 95.000000)">
                            <path d="M225.333056,235 C225.333056,235 192.804989,211.609095 158,206.354335 L186.213559,135 C186.213559,135 233.571803,149.362723 246,167.846023 L225.333056,235 Z" id="Fill-1" fill="#FAD20B"></path>
                            <path d="M225,234.803156 C225,234.803156 265.244006,233.749138 297.127675,249 L314,174.002735 C314,174.002735 266.533044,159.224885 245.765439,167.536076 L225,234.803156 Z" id="Fill-3" fill="#FAD20B"></path>
                            <path d="M246,167.98067 L225.24012,235 C225.24012,235 201.203276,206.252529 157,195.33585 L185.152,121 C185.152,121 238.29816,133.763025 246,167.98067" id="Fill-5" fill="#D6D6D6"></path>
                            <path d="M245.830949,168.169001 L225,235.642263 C225,235.642263 261.272149,225.22793 304.146741,241 L323,163.279226 C323,163.279226 271.651764,144.012602 245.830949,168.169001" id="Fill-7" fill="#CCCCCC"></path>
                            <path d="M249,156.712713 L224.865837,235 C224.865837,235 207.718961,197.533833 169,188.674423 L198.334055,108 C198.334055,108 244.918853,118.237685 249,156.712713" id="Fill-9" fill="#FFFFFF"></path>
                            <path d="M249.013266,157.025483 L225,235 C225,235 260.103764,213.72855 296.925684,228.078064 L318,145.232157 C318,145.232157 273.932977,127.618553 249.013266,157.025483" id="Fill-11" fill="#F0F0F0"></path>
                            <g id="Group-15" stroke-width="1" fill="none" transform="translate(345.000000, 73.000000)">
                                <mask id="mask-20" fill="white">
                                    <use xlink:href="#path-19"></use>
                                </mask>
                                <g id="Clip-14"></g>
                                <path d="M85.0540721,30.3558476 C81.1689211,31.1653714 76.9482836,30.1788317 73.8271762,27.7329905 C72.219005,26.4722921 70.8337701,24.6481651 70.9008674,22.6081651 C70.9506493,21.0603556 71.8423943,19.6420698 72.9873775,18.592927 C75.9916057,15.8297524 80.9178473,15.5750222 84.4804983,17.425054 C87.7682668,19.1304508 91.9088205,23.5839111 89.6513205,27.5149587 C88.7249446,29.1232127 86.872193,29.9759111 85.0540721,30.3558476 M128.230112,97.4664508 C130.537394,79.8598476 123.273569,61.888419 111.503401,48.5668952 C105.945146,42.2785143 98.8782836,35.3619429 100.235381,27.0918476 C101.176908,21.3453079 107.213502,14.6575619 102.622747,9.09019683 C99.1077131,4.82454603 90.172948,3.35229206 85.1016896,2.28372063 C71.1714211,-0.656469841 56.4208339,0.299847619 42.9732332,4.9583873 C35.2960017,7.61794286 28.0300117,11.4950222 21.6449446,16.5183873 C12.4244748,23.7717206 4.79702517,33.464419 1.70189094,44.7632127 C-2.81743792,61.2580698 2.85120302,79.1258794 12.3573775,93.3562286 C26.3915386,114.358514 48.9730319,129.49553 73.7730654,134.523213 C80.8832164,135.965244 88.2747433,136.60207 95.3805654,135.142768 C112.819374,131.559276 125.927159,115.075213 128.230112,97.4664508" id="Fill-13" fill="#FFF7D9" mask="url(#mask-20)"></path>
                            </g>
                            <path d="M411.55773,131.435454 C409.836329,136.521513 412.490244,141.912217 414.235226,146.989634 C414.966232,149.117828 415.555753,151.323804 416.724076,153.242419 C417.890255,155.163195 419.778865,156.798771 422.006182,156.982423 C424.782289,157.211446 427.251845,155.167516 428.876779,152.890241 C430.501712,150.610805 431.642167,147.959745 433.595089,145.961187 C434.696957,144.833352 436.041064,143.93022 436.917842,142.618734 C438.744285,139.896375 438.049722,136.121802 436.384058,133.297894 C431.873688,125.65152 415.382112,120.124698 411.55773,131.435454" id="Fill-16" fill="#FFC400"></path>
                            <path d="M377.750346,98.4096529 C374.285253,100.789605 373.516204,105.321843 372.29927,109.255405 C371.788027,110.901767 371.150065,112.53548 371.021162,114.251407 C370.890074,115.965226 371.357621,117.826605 372.714382,118.941747 C374.407602,120.328822 376.95071,120.174937 379.056857,119.489831 C381.160819,118.806834 383.12277,117.676936 385.31194,117.314357 C386.544167,117.111987 387.833199,117.154148 389.006437,116.73676 C391.449043,115.868257 392.742445,113.218478 392.967479,110.718369 C393.579223,103.951632 385.451767,93.1164201 377.750346,98.4096529" id="Fill-18" fill="#FF2F00"></path>
                            <path d="M428.047326,170.725581 C425.029644,174.060413 421.822024,177.898251 422.007695,182.395351 C422.120804,185.162961 423.550682,187.727228 425.354035,189.822736 C428.538179,193.521445 433.696409,196.147785 438.280553,194.495352 C441.801893,193.226062 444.147319,189.65792 444.783294,185.959211 C445.417135,182.262643 444.58055,178.456911 443.310734,174.925157 C442.301283,172.114738 440.617442,167.39289 437.478115,166.292695 C433.786043,164.99986 430.27324,168.264056 428.047326,170.725581" id="Fill-20" fill="#2228B3"></path>
                            <path d="M373.338658,150.586195 C372.535182,153.567218 373.290229,156.724354 374.261003,159.658128 C375.038063,161.996986 375.975818,164.331548 377.525535,166.273079 C379.075252,168.21461 381.322781,169.737338 383.834467,169.96929 C386.762199,170.239902 389.654711,168.69355 391.497201,166.455635 C393.339691,164.219867 394.253231,161.376297 394.702297,158.541318 C395.23061,155.21666 395.14696,151.694414 393.700705,148.640368 C389.700938,140.206305 375.773298,141.537886 373.338658,150.586195" id="Fill-22" fill="#009245"></path>
                            <path d="M266.603804,439.051146 C248.627287,476.662489 203.563548,492.580398 165.950475,474.603671 C128.337402,456.626945 112.419678,411.562683 130.396196,373.95134 C148.372713,336.335662 193.436452,320.41992 231.049525,338.396647 C268.662598,356.373374 284.580322,401.437635 266.603804,439.051146" id="Fill-24" fill="#B29400"></path>
                            <path d="M231.243495,339.353607 C195.669166,322.373306 153.418985,335.812272 133.920229,369.244799 C120.117424,405.397451 136.182206,446.66704 171.754376,463.647341 C207.330864,480.625486 249.578887,467.188675 269.079801,433.756148 C282.882606,397.603497 266.817825,356.331752 231.243495,339.353607" id="Fill-26" fill="#FAD20B"></path>
                            <path d="M172.596886,336 C171.246286,336.4974 169.913056,337.038241 168.592855,337.611663 C170.709954,343.647798 170.918407,350.507141 170.510187,356.171855 C168.377888,385.803001 151.488865,414.017969 127,430.814454 C127.469019,432.224116 127.968437,433.620746 128.517797,435 C154.559202,417.543211 172.568658,387.766537 174.820383,356.482459 C175.267688,350.276904 175.00278,342.752913 172.596886,336" id="Fill-28" fill="#B57E11"></path>
                            <path d="M228.506856,475.300636 C226.384643,438.811506 240.322302,401.026396 266,374.988786 C265.360104,373.637019 264.6685,372.311 263.946732,371 C236.463538,398.252055 221.638212,438.416704 224.307675,477 C225.723202,476.476458 227.123647,475.907858 228.506856,475.300636" id="Fill-30" fill="#B57E11"></path>
                            <path d="M223.009832,336 C207.604185,383.641943 186.144712,428.85095 159,470.830434 C160.204336,471.583845 161.427959,472.311352 162.688012,473 C189.9463,430.811115 211.506492,385.392707 227,337.528411 C225.677802,336.973606 224.347031,336.472771 223.009832,336" id="Fill-32" fill="#B57E11"></path>
                            <path d="M134.127396,368 C133.384427,369.226077 132.680335,370.486812 132,371.769211 C173.347071,400.644829 217.964067,424.185065 265.1253,442 C265.501104,441.269986 265.885547,440.546471 266.241913,439.801294 C266.509727,439.238079 266.747304,438.668365 267,438.100817 C219.91436,420.348702 175.379436,396.85179 134.127396,368" id="Fill-34" fill="#B57E11"></path>
                            <g id="Group-38" stroke-width="1" fill="none" transform="translate(229.000000, 0.000000)">
                                <mask id="mask-22" fill="white">
                                    <use xlink:href="#path-21"></use>
                                </mask>
                                <g id="Clip-37"></g>
                                <path d="M174.232882,3.40599543 L174.232882,3.40599543 C171.435431,-0.185265151 166.248176,-0.832940067 162.648373,1.96002353 L17.1377843,114.855571 L0.077,138.522602 L27.2728824,127.856408 L172.785627,14.963012 C176.383275,12.1700484 177.03249,6.99510427 174.232882,3.40599543" id="Fill-36" fill="#494ED1" mask="url(#mask-22)"></path>
                            </g>
                            <path d="M403.900547,4.96804006 C400.696439,0.826238826 395.176812,-0.245552588 391.57057,2.57278152 L245.813931,116.540658 L244,119.291734 L248.367272,125 L404,5.12208296 C403.961084,5.07218174 403.939464,5.01794128 403.900547,4.96804006" id="Fill-39" fill="#2228B3"></path>
                            <path d="M255.960964,128.263119 C256.049665,127.33607 256.080711,126.305052 254.978593,124.86466 C253.969613,123.543397 251.379526,123.716678 250.284061,122.183147 C249.144245,120.58247 250.146573,118.663391 249.086589,116.969576 C248.370324,115.82376 247.126284,114.972521 245.769149,115.000679 L245.538525,115.176125 L228,139 L255.960964,128.263119 Z" id="Fill-41" fill="#FAB594"></path>
                            <path d="M232.392247,133 L228,139 L235,136.297175 C234.979304,135.546893 234.747043,134.821469 234.266426,134.213559 C233.783509,133.60565 233.125821,133.20339 232.392247,133" id="Fill-43" fill="#0D0B30"></path>
                            <g id="Group-47" stroke-width="1" fill="none" transform="translate(378.000000, 0.000000)">
                                <mask id="mask-24" fill="white">
                                    <use xlink:href="#path-23"></use>
                                </mask>
                                <g id="Clip-46"></g>
                                <path d="M25.2568854,3.42961667 C22.4762203,-0.18655 17.3200913,-0.838716667 13.7418878,1.97361667 L0.464587593,12.41045 L10.5388705,25.5036167 L23.8183146,15.0667833 C27.3943742,12.25445 28.0396943,7.04361667 25.2568854,3.42961667" id="Fill-45" fill="#1FDDFF" mask="url(#mask-24)"></path>
                            </g>
                            <polygon id="Fill-48" fill="#0D0B30" points="381 10.4265389 391.224801 24 393 22.5757077 382.775199 9"></polygon>
                            <polygon id="Fill-50" fill="#0D0B30" points="377 13.4265389 387.222625 27 389 25.5757077 378.773024 12"></polygon>
                            <path d="M105.226233,18.9827066 C89.4606893,16.3489524 73.3693484,19.230159 58.7257536,24.9904204 C40.5868554,32.1278081 24.0273164,43.9409703 13.0667356,60.3008012 C2.10615484,76.6627839 -2.84552488,97.771549 1.65953275,117.617231 C3.25399519,124.649183 6.33072516,131.887703 12.2446921,135.907191 C20.585953,141.57923 32.0125742,138.857254 39.4476454,132.533231 C46.8827165,126.21136 51.372671,117.055622 56.194895,108.442127 C61.0171191,99.8264798 66.7541632,91.1505836 75.4967367,86.862126 C85.5230791,81.9453545 97.5624572,83.7141012 108.639548,86.3198825 C119.718797,88.9256638 131.104424,92.2910164 142.123259,90.2446927 C146.740512,89.3861405 151.284406,87.4861364 154.430179,83.9873747 C159.304186,78.5670914 159.992458,70.1063713 157.845652,62.8355744 C154.451755,51.3602386 144.904399,40.6810539 135.995691,33.0853413 C127.201335,25.5864579 116.3249,20.8353719 105.226233,18.9827066" id="Fill-52" fill="#FAD20B"></path>
                            <path d="M112.299645,34.9522432 C113.983346,38.4314952 112.527054,42.6170943 109.048132,44.3009561 C105.56921,45.982631 101.384008,44.5261999 99.7003063,41.0469479 C98.0166044,37.567696 99.4728972,33.3820968 102.954006,31.7004219 C106.430741,30.0165602 110.615943,31.4729913 112.299645,34.9522432" id="Fill-54" fill="#0D0B30"></path>
                            <path d="M123.299647,57.9518542 C124.983343,61.4307638 123.527055,65.615951 120.048146,67.299647 C116.56705,68.983343 112.381862,67.5270553 110.700353,64.0481458 C109.016657,60.5670496 110.472945,56.384049 113.951854,54.700353 C117.430764,53.016657 121.615951,54.4729447 123.299647,57.9518542" id="Fill-56" fill="#0D0B30"></path>
                            <path d="M95.9530521,48.700353 C99.432304,47.016657 103.617903,48.4729447 105.299578,51.9518542 C106.98344,55.4329504 105.527009,59.6181376 102.047757,61.299647 C98.5685048,62.983343 94.3829057,61.5270553 92.6990439,58.0481458 C91.017369,54.5692362 92.4738001,50.384049 95.9530521,48.700353" id="Fill-58" fill="#0D0B30"></path>
                            <path d="M119.952229,37.700353 C123.431469,36.016657 127.617054,37.4729447 129.300909,40.9518542 C130.982578,44.4329504 129.526152,48.615951 126.0491,50.299647 C122.567673,51.983343 118.382088,50.5270553 116.700419,47.0481458 C115.016564,43.5692362 116.47299,39.384049 119.952229,37.700353" id="Fill-60" fill="#0D0B30"></path>
                            <path d="M29.299647,74.9530521 C30.983343,78.432304 29.5270553,82.6179032 26.0481458,84.2995781 C22.5670496,85.9834398 18.3818624,84.5270087 16.700353,81.0477568 C15.016657,77.5685048 16.4729447,73.3829057 19.9518542,71.6990439 C23.4307638,70.017369 27.615951,71.4738001 29.299647,74.9530521" id="Fill-62" fill="#0D0B30"></path>
                            <path d="M41.299647,97.9522294 C42.983343,101.431469 41.5270553,105.617054 38.0481458,107.300909 C34.5670496,108.982578 30.384049,107.526152 28.700353,104.0491 C27.016657,100.567673 28.4729447,96.3820885 31.9518542,94.7004195 C35.4307638,93.0165637 39.615951,94.4729896 41.299647,97.9522294" id="Fill-64" fill="#0D0B30"></path>
                            <path d="M13.9522294,88.700353 C17.4314691,87.016657 21.6170536,88.4729447 23.3009094,91.9518542 C24.9825784,95.4329504 23.5261525,99.615951 20.0490995,101.299647 C16.567673,102.983343 12.3820885,101.527055 10.7004195,98.0481458 C9.01656366,94.5692362 10.4729896,90.384049 13.9522294,88.700353" id="Fill-66" fill="#0D0B30"></path>
                            <path d="M37.9521235,77.7003555 C41.4312701,76.0166535 45.6167425,77.4729464 47.3005532,80.9518681 C48.9821771,84.4307899 47.527977,88.6159918 44.0488304,90.2996937 C40.5674971,91.9833956 36.3842114,90.5271028 34.7004007,87.0459944 C33.01659,83.5692593 34.4729769,79.3840574 37.9521235,77.7003555" id="Fill-68" fill="#0D0B30"></path>
                            <path d="M72.5421494,59.3917698 L58.1462085,66.5621398 C56.2568878,67.5017964 55.4657615,69.8443515 56.380568,71.7895284 C57.2953745,73.7347053 59.56853,74.5492207 61.4578506,73.6095641 L75.8537915,66.4391941 C77.7431122,65.4973421 78.5342385,63.1569825 77.619432,61.2118055 C76.7046255,59.2644331 74.43147,58.4499177 72.5421494,59.3917698" id="Fill-70" fill="#FFFFFF"></path>
                            <path d="M409.597805,309.51473 C414.837441,326.966416 404.937948,345.359157 387.486199,350.598774 C370.034449,355.836227 351.641642,345.93677 346.402007,328.487246 C341.162372,311.033396 351.064028,292.640655 368.515777,287.401039 C385.965363,282.163586 404.360334,292.065206 409.597805,309.51473" id="Fill-72" fill="#FAD20B"></path>
                            <path d="M408,306.84703 C406.703103,303.569711 404.936751,300.597611 402.788832,298 C398.364377,299.331276 393.753426,300.173334 389.181061,300.809749 C380.2314,302.050108 371.133828,302.641065 362.467127,305.210535 C355.924764,307.152249 350.259146,310.319169 345.281635,314.85633 C344.850765,318.168283 344.902212,321.579812 345.519578,325 C349.442423,322.443518 353.931187,320.685801 358.475685,319.525535 C365.787612,317.666079 373.361061,317.194179 380.844478,316.272028 C388.327895,315.35204 395.897058,313.925519 402.553033,310.349475 C404.460865,309.327748 406.261515,308.137176 408,306.84703" id="Fill-74" fill="#B57E11" opacity="0.41187686"></path>
                            <path d="M408.074388,333.354175 C409.688594,329.800226 410.692843,325.967148 411,322 C400.728769,327.718847 389.143954,331.037624 377.417542,331.474999 C371.322334,331.70138 365.120384,331.187079 359.197272,332.659649 C355.798943,333.686052 352.609742,335.057521 350,337.558692 C352.328727,341.207149 355.306621,344.299546 358.731091,346.741375 C365.540819,347.493045 372.398472,348.60077 379.23434,347.602938 C386.549461,346.532578 393.319977,343.09072 399.567674,339.105989 C402.451896,337.264178 405.257696,335.301484 408.074388,333.354175" id="Fill-76" fill="#B57E11" opacity="0.41187686"></path>
                            <path d="M385.85169,290.494256 C386.40657,292.34359 385.356338,294.294957 383.504615,294.851883 C381.652891,295.406683 379.703373,294.354475 379.148494,292.505141 C378.593614,290.655807 379.64172,288.70444 381.493443,288.147514 C383.343041,287.59484 385.294685,288.642796 385.85169,290.494256" id="Fill-78" fill="#FFFFFF"></path>
                            <path d="M378.935524,296.068185 C379.175445,296.862511 378.724927,297.696821 377.930524,297.936718 C377.138786,298.17395 376.30173,297.723476 376.064476,296.931815 C375.824555,296.137489 376.275073,295.303179 377.069476,295.063282 C377.863879,294.82605 378.69827,295.276524 378.935524,296.068185" id="Fill-80" fill="#FFFFFF"></path>
                            <path d="M387.914537,296.426076 C388.233173,297.482479 387.633168,298.59664 386.574774,298.915238 C385.518244,299.231973 384.402085,298.633903 384.085312,297.573774 C383.766676,296.51737 384.368544,295.40321 385.425075,295.084612 C386.481606,294.767877 387.597764,295.36781 387.914537,296.426076" id="Fill-82" fill="#FFFFFF"></path>
                        </g>
                    </g>
                    <g id="Group-45" mask="url(#mask-2)">
                        <g transform="translate(335.000000, 32.000000)">
                            <path d="M507,363.5 C507,364.882163 505.880145,366 504.5,366 C503.119855,366 502,364.882163 502,363.5 C502,362.119855 503.119855,361 504.5,361 C505.880145,361 507,362.119855 507,363.5" id="Fill-1" fill="#FFFFFF"></path>
                            <path d="M291,350 C291,354.417381 287.419217,358 283.001183,358 C278.580783,358 275,354.417381 275,350 C275,345.582619 278.580783,342 283.001183,342 C287.419217,342 291,345.582619 291,350" id="Fill-3" fill="#FFFFFF"></path>
                            <path d="M411,217.5 C411,218.881827 409.88,220 408.501176,220 C407.12,220 406,218.881827 406,217.5 C406,216.118173 407.12,215 408.501176,215 C409.88,215 411,216.118173 411,217.5" id="Fill-5" fill="#FFFFFF"></path>
                            <path d="M377,173.5 C377,175.985878 374.984207,178 372.501077,178 C370.015793,178 368,175.985878 368,173.5 C368,171.014122 370.015793,169 372.501077,169 C374.984207,169 377,171.014122 377,173.5" id="Fill-7" fill="#FFFFFF"></path>
                            <path d="M385,62.5 C385,64.4329759 383.433501,66 381.498827,66 C379.566499,66 378,64.4329759 378,62.5 C378,60.5670241 379.566499,59 381.498827,59 C383.433501,59 385,60.5670241 385,62.5" id="Fill-9" fill="#FFFFFF"></path>
                            <g id="Group-13" stroke-width="1" fill="none" transform="translate(0.000000, 62.000000)">
                                <mask id="mask-26" fill="white">
                                    <use xlink:href="#path-25"></use>
                                </mask>
                                <g id="Clip-12"></g>
                                <path d="M10.7536275,5.67696 C10.7536275,8.55696 8.3454525,10.88976 5.3779275,10.88976 C2.4079275,10.88976 -0.0002475,8.55696 -0.0002475,5.67696 C-0.0002475,2.79696 2.4079275,0.46416 5.3779275,0.46416 C8.3454525,0.46416 10.7536275,2.79696 10.7536275,5.67696" id="Fill-11" fill="#FFFFFF" mask="url(#mask-26)"></path>
                            </g>
                            <path d="M5,158 C5,159.103015 4.10552764,160 3,160 C1.89447236,160 1,159.103015 1,158 C1,156.896985 1.89447236,156 3,156 C4.10552764,156 5,156.896985 5,158" id="Fill-14" fill="#FFFFFF"></path>
                            <path d="M229,78.4988098 C229,80.9838667 226.986247,83 224.50119,83 C222.016133,83 220,80.9838667 220,78.4988098 C220,76.013753 222.016133,74 224.50119,74 C226.986247,74 229,76.013753 229,78.4988098" id="Fill-16" fill="#FFFFFF"></path>
                            <path d="M92,294.5 C92,296.985183 89.9857258,299 87.501212,299 C85.0142742,299 83,296.985183 83,294.5 C83,292.014817 85.0142742,290 87.501212,290 C89.9857258,290 92,292.014817 92,294.5" id="Fill-18" fill="#FFFFFF"></path>
                            <g id="Group-22" stroke-width="1" fill="none" transform="translate(595.000000, 0.000000)">
                                <mask id="mask-28" fill="white">
                                    <use xlink:href="#path-27"></use>
                                </mask>
                                <g id="Clip-21"></g>
                                <path d="M9.8582825,5.2998275 C9.8582825,7.9505525 7.7075075,10.1013275 5.0567825,10.1013275 C2.4060575,10.1013275 0.2552825,7.9505525 0.2552825,5.2998275 C0.2552825,2.6491025 2.4060575,0.4983275 5.0567825,0.4983275 C7.7075075,0.4983275 9.8582825,2.6491025 9.8582825,5.2998275" id="Fill-20" fill="#FFFFFF" mask="url(#mask-28)"></path>
                            </g>
                            <path d="M623,196.001178 C623,198.209131 621.209131,200 619.001178,200 C616.790869,200 615,198.209131 615,196.001178 C615,193.793225 616.790869,192 619.001178,192 C621.209131,192 623,193.793225 623,196.001178" id="Fill-23" fill="#FFFFFF"></path>
                            <path d="M390,581.498914 C390,582.880921 391.118593,584 392.5,584 C393.881407,584 395,582.880921 395,581.498914 C395,580.116906 393.881407,579 392.5,579 C391.118593,579 390,580.116906 390,581.498914" id="Fill-25" fill="#FFFFFF"></path>
                            <path d="M608,570.998819 C608,575.416359 604.418193,579 600,579 C595.581807,579 592,575.416359 592,570.998819 C592,566.581279 595.581807,563 600,563 C604.418193,563 608,566.581279 608,570.998819" id="Fill-27" fill="#FFFFFF"></path>
                            <path d="M373,651.498833 C373,655.089064 370.089064,658 366.498833,658 C362.908601,658 360,655.089064 360,651.498833 C360,647.908601 362.908601,645 366.498833,645 C370.089064,645 373,647.908601 373,651.498833" id="Fill-29" fill="#FFFFFF"></path>
                            <path d="M288,441.5 C288,443.985176 285.985176,446 283.5,446 C281.014824,446 279,443.985176 279,441.5 C279,439.014824 281.014824,437 283.5,437 C285.985176,437 288,439.014824 288,441.5" id="Fill-31" fill="#FFFFFF"></path>
                            <path d="M479,463.5 C479,464.878411 477.880866,466 476.501003,466 C475.119134,466 474,464.878411 474,463.5 C474,462.119583 475.119134,461 476.501003,461 C477.880866,461 479,462.119583 479,463.5" id="Fill-33" fill="#FFFFFF"></path>
                            <path d="M622,395 C622,397.209501 620.208955,399 617.998782,399 C615.791045,399 614,397.209501 614,395 C614,392.790499 615.791045,391 617.998782,391 C620.208955,391 622,392.790499 622,395" id="Fill-35" fill="#FFFFFF"></path>
                            <path d="M408,277.5 C408,278.881827 406.88,280 405.501176,280 C404.12,280 403,278.881827 403,277.5 C403,276.118173 404.12,275 405.501176,275 C406.88,275 408,276.118173 408,277.5" id="Fill-37" fill="#FFFFFF"></path>
                            <path d="M320.416422,37.5550306 L316.547157,37.5550306 C312.625669,37.5550306 309.444801,34.3765704 309.444801,30.4527505 L309.444801,26.5859009 C309.444801,25.306446 308.526148,24.1409315 307.2538,24.0127486 C305.789177,23.8655757 304.55481,25.0121002 304.55481,26.4458492 L304.55481,30.4527505 C304.55481,34.3765704 301.376316,37.5550306 297.454828,37.5550306 L293.585563,37.5550306 C292.306094,37.5550306 291.140567,38.4760482 291.012383,39.7483818 C290.867583,41.2129897 292.011745,42.4473432 293.44551,42.4473432 L297.454828,42.4473432 C301.376316,42.4473432 304.55481,45.6258034 304.55481,49.5472495 L304.55481,53.4164729 C304.55481,54.6959277 305.475838,55.8614423 306.748185,55.9872514 C308.212808,56.1344243 309.444801,54.9878998 309.444801,53.5541508 L309.444801,49.5472495 C309.444801,45.6258034 312.625669,42.4473432 316.547157,42.4473432 L320.556475,42.4473432 C321.99024,42.4473432 323.134403,41.2129897 322.987228,39.7483818 C322.861418,38.4760482 321.695891,37.5550306 320.416422,37.5550306" id="Fill-39" fill="#FFFFFF"></path>
                            <path d="M175.213674,333.737061 L172.482867,331.009406 C169.711761,328.243866 169.711761,323.756967 172.482867,320.991428 L175.213674,318.263772 C176.116831,317.359289 176.289877,315.888912 175.481539,314.901558 C174.549936,313.765035 172.871627,313.703473 171.857057,314.714505 L169.029059,317.541606 C166.257954,320.309514 161.768241,320.309514 158.999506,317.541606 L156.266328,314.813951 C155.363171,313.911836 153.891095,313.738989 152.9026,314.546394 C151.764763,315.474555 151.70313,317.153294 152.715331,318.164326 L155.545699,320.991428 C158.314434,323.756967 158.314434,328.243866 155.545699,331.009406 L152.812521,333.737061 C151.909363,334.639176 151.736317,336.109553 152.544655,337.096908 C153.476259,338.233431 155.156938,338.29736 156.169138,337.286328 L158.999506,334.459227 C161.768241,331.69132 166.257954,331.69132 169.029059,334.459227 L171.857057,337.286328 C172.871627,338.29736 174.549936,338.233431 175.481539,337.099276 C176.289877,336.109553 176.116831,334.639176 175.213674,333.737061" id="Fill-41" fill="#FFFFFF"></path>
                            <path d="M468.213674,572.73735 L465.482867,570.009654 C462.711761,567.244074 462.711761,562.75711 465.482867,559.99153 L468.213674,557.263834 C469.116831,556.359338 469.289877,554.88894 468.481539,553.901571 C467.549936,552.765031 465.871627,552.703469 464.857057,553.714516 L462.029059,556.541658 C459.260324,559.307238 454.768241,559.307238 451.999506,556.541658 L449.266328,553.813963 C448.363171,552.911834 446.891095,552.738986 445.9026,553.546402 C444.764763,554.474577 444.70313,556.15334 445.715331,557.164387 L448.545699,559.99153 C451.314434,562.75711 451.314434,567.244074 448.545699,570.009654 L445.814891,572.73735 C444.909363,573.639478 444.738688,575.109876 445.547026,576.099613 C446.476259,577.233785 448.156938,577.297715 449.169138,576.284301 L451.999506,573.459526 C454.768241,570.693946 459.260324,570.693946 462.029059,573.459526 L464.857057,576.284301 C465.871627,577.297715 467.549936,577.233785 468.481539,576.099613 C469.289877,575.109876 469.116831,573.639478 468.213674,572.73735" id="Fill-43" fill="#FFFFFF"></path>
                        </g>
                    </g>
                </g>
            </g>
        </g>
    </g>
</svg>