<?xml version="1.0" encoding="UTF-8"?>
<svg width="371px" height="333px" viewBox="0 0 371 333" version="1.1" xmlns="http://www.w3.org/2000/svg" xmlns:xlink="http://www.w3.org/1999/xlink">
    <!-- Generator: sketchtool 63.1 (101010) - https://sketch.com -->
    <title>2EA348D9-F5CA-412F-9065-B351DC8A1F4D</title>
    <desc>Created with sketchtool.</desc>
    <defs>
        <rect id="path-1" x="0" y="0" width="371" height="333"></rect>
        <path d="M17.7040556,16.3612634 C11.0462222,21.433569 5.117,27.8977095 2.39127778,35.8302119 L2.39127778,35.8302119 C-1.03677778,45.7954629 0.9675,56.8010028 4.11605556,66.8595211 L4.11605556,66.8595211 C24.7799444,132.926241 89.2441111,175.190672 121.955167,236.161172 L121.955167,236.161172 C150.430722,289.246999 169.056889,365.233532 207.859611,404.381878 L207.859611,404.381878 C234.679667,431.438957 268.162333,406.500719 254.820389,306.907996 L254.820389,306.907996 C245.754556,239.272473 224.163778,176.874266 196.500444,113.947544 L196.500444,113.947544 C180.683611,77.9655027 160.031667,42.4067514 127.686111,20.1923966 L127.686111,20.1923966 C109.912778,7.9863393 87.8800556,0.852586626 66.4636667,0.852586626 L66.4636667,0.852586626 C48.9053333,0.852586626 31.7650556,5.64269976 17.7040556,16.3612634" id="path-3"></path>
        <path d="M17.7040556,16.3612634 C11.0462222,21.433569 5.117,27.8977095 2.39127778,35.8302119 L2.39127778,35.8302119 C-1.03677778,45.7954629 0.9675,56.8010028 4.11605556,66.8595211 L4.11605556,66.8595211 C24.7799444,132.926241 89.2441111,175.190672 121.955167,236.161172 L121.955167,236.161172 C150.430722,289.246999 169.056889,365.233532 207.859611,404.381878 L207.859611,404.381878 C234.679667,431.438957 268.162333,406.500719 254.820389,306.907996 L254.820389,306.907996 C245.754556,239.272473 224.163778,176.874266 196.500444,113.947544 L196.500444,113.947544 C180.683611,77.9655027 160.031667,42.4067514 127.686111,20.1923966 L127.686111,20.1923966 C109.912778,7.9863393 87.8800556,0.852586626 66.4636667,0.852586626 L66.4636667,0.852586626 C48.9053333,0.852586626 31.7650556,5.64269976 17.7040556,16.3612634" id="path-5"></path>
        <path d="M17.7040556,16.3612634 C11.0462222,21.433569 5.117,27.8977095 2.39127778,35.8302119 L2.39127778,35.8302119 C-1.03677778,45.7954629 0.9675,56.8010028 4.11605556,66.8595211 L4.11605556,66.8595211 C24.7799444,132.926241 89.2441111,175.190672 121.955167,236.161172 L121.955167,236.161172 C150.430722,289.246999 169.056889,365.233532 207.859611,404.381878 L207.859611,404.381878 C234.679667,431.438957 268.162333,406.500719 254.820389,306.907996 L254.820389,306.907996 C245.754556,239.272473 224.163778,176.874266 196.500444,113.947544 L196.500444,113.947544 C180.683611,77.9655027 160.031667,42.4067514 127.686111,20.1923966 L127.686111,20.1923966 C109.912778,7.9863393 87.8800556,0.852586626 66.4636667,0.852586626 L66.4636667,0.852586626 C48.9053333,0.852586626 31.7650556,5.64269976 17.7040556,16.3612634" id="path-7"></path>
        <path d="M17.7040556,16.3612634 C11.0462222,21.433569 5.117,27.8977095 2.39127778,35.8302119 L2.39127778,35.8302119 C-1.03677778,45.7954629 0.9675,56.8010028 4.11605556,66.8595211 L4.11605556,66.8595211 C24.7799444,132.926241 89.2441111,175.190672 121.955167,236.161172 L121.955167,236.161172 C150.430722,289.246999 169.056889,365.233532 207.859611,404.381878 L207.859611,404.381878 C234.679667,431.438957 268.162333,406.500719 254.820389,306.907996 L254.820389,306.907996 C245.754556,239.272473 224.163778,176.874266 196.500444,113.947544 L196.500444,113.947544 C180.683611,77.9655027 160.031667,42.4067514 127.686111,20.1923966 L127.686111,20.1923966 C109.912778,7.9863393 87.8800556,0.852586626 66.4636667,0.852586626 L66.4636667,0.852586626 C48.9053333,0.852586626 31.7650556,5.64269976 17.7040556,16.3612634" id="path-9"></path>
        <path d="M17.7040556,16.3612634 C11.0462222,21.433569 5.117,27.8977095 2.39127778,35.8302119 L2.39127778,35.8302119 C-1.03677778,45.7954629 0.9675,56.8010028 4.11605556,66.8595211 L4.11605556,66.8595211 C24.7799444,132.926241 89.2441111,175.190672 121.955167,236.161172 L121.955167,236.161172 C150.430722,289.246999 169.056889,365.233532 207.859611,404.381878 L207.859611,404.381878 C234.679667,431.438957 268.162333,406.500719 254.820389,306.907996 L254.820389,306.907996 C245.754556,239.272473 224.163778,176.874266 196.500444,113.947544 L196.500444,113.947544 C180.683611,77.9655027 160.031667,42.4067514 127.686111,20.1923966 L127.686111,20.1923966 C109.912778,7.9863393 87.8800556,0.852586626 66.4636667,0.852586626 L66.4636667,0.852586626 C48.9053333,0.852586626 31.7650556,5.64269976 17.7040556,16.3612634" id="path-11"></path>
        <path d="M17.7040556,16.3612634 C11.0462222,21.433569 5.117,27.8977095 2.39127778,35.8302119 L2.39127778,35.8302119 C-1.03677778,45.7954629 0.9675,56.8010028 4.11605556,66.8595211 L4.11605556,66.8595211 C24.7799444,132.926241 89.2441111,175.190672 121.955167,236.161172 L121.955167,236.161172 C150.430722,289.246999 169.056889,365.233532 207.859611,404.381878 L207.859611,404.381878 C234.679667,431.438957 268.162333,406.500719 254.820389,306.907996 L254.820389,306.907996 C245.754556,239.272473 224.163778,176.874266 196.500444,113.947544 L196.500444,113.947544 C180.683611,77.9655027 160.031667,42.4067514 127.686111,20.1923966 L127.686111,20.1923966 C109.912778,7.9863393 87.8800556,0.852586626 66.4636667,0.852586626 L66.4636667,0.852586626 C48.9053333,0.852586626 31.7650556,5.64269976 17.7040556,16.3612634" id="path-13"></path>
        <path d="M17.7040556,16.3612634 C11.0462222,21.433569 5.117,27.8977095 2.39127778,35.8302119 L2.39127778,35.8302119 C-1.03677778,45.7954629 0.9675,56.8010028 4.11605556,66.8595211 L4.11605556,66.8595211 C24.7799444,132.926241 89.2441111,175.190672 121.955167,236.161172 L121.955167,236.161172 C150.430722,289.246999 169.056889,365.233532 207.859611,404.381878 L207.859611,404.381878 C234.679667,431.438957 268.162333,406.500719 254.820389,306.907996 L254.820389,306.907996 C245.754556,239.272473 224.163778,176.874266 196.500444,113.947544 L196.500444,113.947544 C180.683611,77.9655027 160.031667,42.4067514 127.686111,20.1923966 L127.686111,20.1923966 C109.912778,7.9863393 87.8800556,0.852586626 66.4636667,0.852586626 L66.4636667,0.852586626 C48.9053333,0.852586626 31.7650556,5.64269976 17.7040556,16.3612634" id="path-15"></path>
        <path d="M17.7040556,16.3612634 C11.0462222,21.433569 5.117,27.8977095 2.39127778,35.8302119 L2.39127778,35.8302119 C-1.03677778,45.7954629 0.9675,56.8010028 4.11605556,66.8595211 L4.11605556,66.8595211 C24.7799444,132.926241 89.2441111,175.190672 121.955167,236.161172 L121.955167,236.161172 C150.430722,289.246999 169.056889,365.233532 207.859611,404.381878 L207.859611,404.381878 C234.679667,431.438957 268.162333,406.500719 254.820389,306.907996 L254.820389,306.907996 C245.754556,239.272473 224.163778,176.874266 196.500444,113.947544 L196.500444,113.947544 C180.683611,77.9655027 160.031667,42.4067514 127.686111,20.1923966 L127.686111,20.1923966 C109.912778,7.9863393 87.8800556,0.852586626 66.4636667,0.852586626 L66.4636667,0.852586626 C48.9053333,0.852586626 31.7650556,5.64269976 17.7040556,16.3612634" id="path-17"></path>
        <path d="M17.7040556,16.3612634 C11.0462222,21.433569 5.117,27.8977095 2.39127778,35.8302119 L2.39127778,35.8302119 C-1.03677778,45.7954629 0.9675,56.8010028 4.11605556,66.8595211 L4.11605556,66.8595211 C24.7799444,132.926241 89.2441111,175.190672 121.955167,236.161172 L121.955167,236.161172 C150.430722,289.246999 169.056889,365.233532 207.859611,404.381878 L207.859611,404.381878 C234.679667,431.438957 268.162333,406.500719 254.820389,306.907996 L254.820389,306.907996 C245.754556,239.272473 224.163778,176.874266 196.500444,113.947544 L196.500444,113.947544 C180.683611,77.9655027 160.031667,42.4067514 127.686111,20.1923966 L127.686111,20.1923966 C109.912778,7.9863393 87.8800556,0.852586626 66.4636667,0.852586626 L66.4636667,0.852586626 C48.9053333,0.852586626 31.7650556,5.64269976 17.7040556,16.3612634" id="path-19"></path>
        <path d="M17.7040556,16.3612634 C11.0462222,21.433569 5.117,27.8977095 2.39127778,35.8302119 L2.39127778,35.8302119 C-1.03677778,45.7954629 0.9675,56.8010028 4.11605556,66.8595211 L4.11605556,66.8595211 C24.7799444,132.926241 89.2441111,175.190672 121.955167,236.161172 L121.955167,236.161172 C150.430722,289.246999 169.056889,365.233532 207.859611,404.381878 L207.859611,404.381878 C234.679667,431.438957 268.162333,406.500719 254.820389,306.907996 L254.820389,306.907996 C245.754556,239.272473 224.163778,176.874266 196.500444,113.947544 L196.500444,113.947544 C180.683611,77.9655027 160.031667,42.4067514 127.686111,20.1923966 L127.686111,20.1923966 C109.912778,7.9863393 87.8800556,0.852586626 66.4636667,0.852586626 L66.4636667,0.852586626 C48.9053333,0.852586626 31.7650556,5.64269976 17.7040556,16.3612634" id="path-21"></path>
        <path d="M17.7040556,16.3612634 C11.0462222,21.433569 5.117,27.8977095 2.39127778,35.8302119 L2.39127778,35.8302119 C-1.03677778,45.7954629 0.9675,56.8010028 4.11605556,66.8595211 L4.11605556,66.8595211 C24.7799444,132.926241 89.2441111,175.190672 121.955167,236.161172 L121.955167,236.161172 C150.430722,289.246999 169.056889,365.233532 207.859611,404.381878 L207.859611,404.381878 C234.679667,431.438957 268.162333,406.500719 254.820389,306.907996 L254.820389,306.907996 C245.754556,239.272473 224.163778,176.874266 196.500444,113.947544 L196.500444,113.947544 C180.683611,77.9655027 160.031667,42.4067514 127.686111,20.1923966 L127.686111,20.1923966 C109.912778,7.9863393 87.8800556,0.852586626 66.4636667,0.852586626 L66.4636667,0.852586626 C48.9053333,0.852586626 31.7650556,5.64269976 17.7040556,16.3612634" id="path-23"></path>
        <path d="M17.7040556,16.3612634 C11.0462222,21.433569 5.117,27.8977095 2.39127778,35.8302119 L2.39127778,35.8302119 C-1.03677778,45.7954629 0.9675,56.8010028 4.11605556,66.8595211 L4.11605556,66.8595211 C24.7799444,132.926241 89.2441111,175.190672 121.955167,236.161172 L121.955167,236.161172 C150.430722,289.246999 169.056889,365.233532 207.859611,404.381878 L207.859611,404.381878 C234.679667,431.438957 268.162333,406.500719 254.820389,306.907996 L254.820389,306.907996 C245.754556,239.272473 224.163778,176.874266 196.500444,113.947544 L196.500444,113.947544 C180.683611,77.9655027 160.031667,42.4067514 127.686111,20.1923966 L127.686111,20.1923966 C109.912778,7.9863393 87.8800556,0.852586626 66.4636667,0.852586626 L66.4636667,0.852586626 C48.9053333,0.852586626 31.7650556,5.64269976 17.7040556,16.3612634" id="path-25"></path>
        <path d="M17.7040556,16.3612634 C11.0462222,21.433569 5.117,27.8977095 2.39127778,35.8302119 L2.39127778,35.8302119 C-1.03677778,45.7954629 0.9675,56.8010028 4.11605556,66.8595211 L4.11605556,66.8595211 C24.7799444,132.926241 89.2441111,175.190672 121.955167,236.161172 L121.955167,236.161172 C150.430722,289.246999 169.056889,365.233532 207.859611,404.381878 L207.859611,404.381878 C234.679667,431.438957 268.162333,406.500719 254.820389,306.907996 L254.820389,306.907996 C245.754556,239.272473 224.163778,176.874266 196.500444,113.947544 L196.500444,113.947544 C180.683611,77.9655027 160.031667,42.4067514 127.686111,20.1923966 L127.686111,20.1923966 C109.912778,7.9863393 87.8800556,0.852586626 66.4636667,0.852586626 L66.4636667,0.852586626 C48.9053333,0.852586626 31.7650556,5.64269976 17.7040556,16.3612634" id="path-27"></path>
    </defs>
    <g id="Design" stroke="none" stroke-width="1" fill="none" fill-rule="evenodd">
        <g id="[U2]-Home-page-Default" transform="translate(-1549.000000, -7097.000000)">
            <g id="Footer" transform="translate(-10.000000, 6818.000000)">
                <g id="Vector" transform="translate(1559.000000, 279.000000)">
                    <mask id="mask-2" fill="white">
                        <use xlink:href="#path-1"></use>
                    </mask>
                    <use id="Mask" fill="#FFFFFF" xlink:href="#path-1"></use>
                    <g mask="url(#mask-2)">
                        <g transform="translate(34.000000, 36.000000)">
                            <g id="Group-5" transform="translate(0.000000, 106.000000)">
                                <path d="M225.990925,276.621971 L151.061809,293.183971 C151.061809,293.183971 38.0468726,179.284068 50.8209989,125.054215 C50.8209989,125.054215 -21.6947484,25.8328 6.51776737,3.84494634 C34.7326726,-18.1452976 94.3595989,64.0265073 94.3595989,64.0265073 C94.3595989,64.0265073 166.466746,45.6048976 225.990925,276.621971" id="Fill-1" fill="#F8C200"></path>
                                <path d="M6.51872316,3.84470732 C6.51872316,3.84470732 124.931481,138.315049 187.750744,285.073634" id="Stroke-3" stroke="#AF9B00" stroke-width="0.487" stroke-linecap="round" stroke-linejoin="round"></path>
                            </g>
                            <g id="Group-45" transform="translate(24.000000, 0.000000)">
                                <g id="Group-8">
                                    <mask id="mask-4" fill="white">
                                        <use xlink:href="#path-3"></use>
                                    </mask>
                                    <g id="Clip-7"></g>
                                    <path d="M196.5014,113.948501 C180.684567,77.9640678 160.030233,42.407708 127.684678,20.1933532 C95.3391222,-2.02100153 48.9158444,-7.43289569 17.7050111,16.3598286 C11.0471778,21.4345256 5.11795556,27.8986661 2.38984444,35.828777 C-1.03582222,45.794028 0.966066667,56.8019594 4.11462222,66.8604777 C24.7809,132.927198 89.2450667,175.189237 121.953733,236.162128 C150.431678,289.247955 169.057844,365.232097 207.860567,404.380443 C234.678233,431.439914 268.163289,406.499285 254.818956,306.908953 C245.755511,239.273429 224.162344,176.875222 196.5014,113.948501" id="Fill-6" fill="#8AB6FD" mask="url(#mask-4)"></path>
                                </g>
                                <g id="Group-11">
                                    <mask id="mask-6" fill="white">
                                        <use xlink:href="#path-5"></use>
                                    </mask>
                                    <g id="Clip-10"></g>
                                    <path d="M254.819194,306.905366 C245.75575,239.272233 224.162583,176.874026 196.501639,113.944913 C180.684806,77.9628721 160.030472,42.4041208 127.684917,20.189766 C100.004861,1.17997961 62.01675,-5.52091629 32.0744167,7.85217789 C75.3778056,46.4720094 110.114639,99.0962829 138.523306,148.468159 C200.285639,255.792501 221.616028,333.488934 236.998083,412.280661 C252.752806,403.692896 263.345139,370.537571 254.819194,306.905366" id="Fill-9" fill="#77A8FE" mask="url(#mask-6)"></path>
                                </g>
                                <g id="Group-14">
                                    <mask id="mask-8" fill="white">
                                        <use xlink:href="#path-7"></use>
                                    </mask>
                                    <g id="Clip-13"></g>
                                    <path d="M84.7670944,66.3898366 C93.4602611,38.2159413 95.4454278,7.98059977 90.5099833,-21.0948793" id="Stroke-12" stroke="#FFFFFF" stroke-width="0.272" mask="url(#mask-8)"></path>
                                </g>
                                <g id="Group-17">
                                    <mask id="mask-10" fill="white">
                                        <use xlink:href="#path-9"></use>
                                    </mask>
                                    <g id="Clip-16"></g>
                                    <path d="M17.0896333,120.999029 C35.0899111,113.709832 53.5345222,107.518319 72.2849111,102.474711 C83.2093,99.5332043 94.4514111,96.9647667 105.726967,97.8520016" id="Stroke-15" stroke="#FFFFFF" stroke-width="0.272" mask="url(#mask-10)"></path>
                                </g>
                                <g id="Group-20">
                                    <mask id="mask-12" fill="white">
                                        <use xlink:href="#path-11"></use>
                                    </mask>
                                    <g id="Clip-19"></g>
                                    <path d="M140.917689,156.177537 C154.916578,125.583475 175.525522,98.0552765 200.912244,76.0465881" id="Stroke-18" stroke="#FFFFFF" stroke-width="0.272" mask="url(#mask-12)"></path>
                                </g>
                                <g id="Group-23">
                                    <mask id="mask-14" fill="white">
                                        <use xlink:href="#path-13"></use>
                                    </mask>
                                    <g id="Clip-22"></g>
                                    <path d="M165.259272,196.036149 C137.514717,184.54275 106.043494,182.335424 76.9731056,189.835071" id="Stroke-21" stroke="#FFFFFF" stroke-width="0.272" mask="url(#mask-14)"></path>
                                </g>
                                <g id="Group-26">
                                    <mask id="mask-16" fill="white">
                                        <use xlink:href="#path-15"></use>
                                    </mask>
                                    <g id="Clip-25"></g>
                                    <path d="M182.247378,234.453663 C197.514767,210.01285 219.872378,190.096697 245.865878,177.780632" id="Stroke-24" stroke="#FFFFFF" stroke-width="0.272" mask="url(#mask-16)"></path>
                                </g>
                                <g id="Group-29">
                                    <mask id="mask-18" fill="white">
                                        <use xlink:href="#path-17"></use>
                                    </mask>
                                    <g id="Clip-28"></g>
                                    <path d="M204.088033,288.352828 C171.056867,268.553857 132.0057,259.016679 93.5995333,261.372276" id="Stroke-27" stroke="#FFFFFF" stroke-width="0.272" mask="url(#mask-18)"></path>
                                </g>
                                <g id="Group-32">
                                    <mask id="mask-20" fill="white">
                                        <use xlink:href="#path-19"></use>
                                    </mask>
                                    <g id="Clip-31"></g>
                                    <path d="M217.478711,328.914293 C233.429322,310.987842 251.525156,294.986524 271.257378,281.367108" id="Stroke-30" stroke="#FFFFFF" stroke-width="0.272" mask="url(#mask-20)"></path>
                                </g>
                                <g id="Group-35">
                                    <mask id="mask-22" fill="white">
                                        <use xlink:href="#path-21"></use>
                                    </mask>
                                    <g id="Clip-34"></g>
                                    <path d="M146.929567,163.795561 C158.840567,137.61376 176.160011,113.921477 197.471289,94.653412" id="Stroke-33" stroke="#FFFFFF" stroke-width="0.272" mask="url(#mask-22)"></path>
                                </g>
                                <g id="Group-38">
                                    <mask id="mask-24" fill="white">
                                        <use xlink:href="#path-23"></use>
                                    </mask>
                                    <g id="Clip-37"></g>
                                    <path d="M103.567889,91.8226302 C71.5687222,89.5507347 38.9651667,96.6677462 10.8025556,112.078372" id="Stroke-36" stroke="#FFFFFF" stroke-width="0.272" mask="url(#mask-24)"></path>
                                </g>
                                <g id="Group-41">
                                    <mask id="mask-26" fill="white">
                                        <use xlink:href="#path-25"></use>
                                    </mask>
                                    <g id="Clip-40"></g>
                                    <path d="M185.102817,240.712615 C200.711817,221.72196 220.322206,206.060231 242.268928,195.057082 C242.732372,194.827501 243.279428,194.447258 243.183872,193.935483 C243.090706,193.423709 242.046761,193.801561 242.45765,194.119626" id="Stroke-39" stroke="#FFFFFF" stroke-width="0.272" mask="url(#mask-26)"></path>
                                </g>
                                <g id="Group-44">
                                    <mask id="mask-28" fill="white">
                                        <use xlink:href="#path-27"></use>
                                    </mask>
                                    <g id="Clip-43"></g>
                                    <path d="M122.7607,281.809052 C152.867867,277.238955 184.685478,285.369949 208.944644,303.836872" id="Stroke-42" stroke="#FFFFFF" stroke-width="0.272" mask="url(#mask-28)"></path>
                                </g>
                            </g>
                            <g id="Group-58" transform="translate(55.000000, 7.000000)">
                                <path d="M0.0370218855,0.0721255195 C58.2247203,54.7550881 73.5328733,81.6993132 107.709937,140.968019 C190.942347,285.313957 200.72428,375.940845 221.503725,487.943215" id="Stroke-46" stroke="#FFFFFF" stroke-width="0.272"></path>
                                <path d="M233.034991,90.8467023 C232.934688,92.0325059 232.495265,93.1753629 231.871953,94.18938 C231.413425,94.931402 230.806831,95.6471788 229.978137,95.9120162 C229.295121,96.1291352 228.507025,95.9955235 227.933865,95.5660574 C226.78038,94.6951956 226.634702,92.0062607 226.711124,90.6892314 C226.761275,89.7658793 227.129053,88.8162821 227.876549,88.2675198 C228.547624,87.7736338 229.428858,87.6614955 230.262329,87.7092139 C231.062365,87.7545465 231.910164,87.9621217 232.445114,88.5586024 C232.984839,89.1622409 233.099471,90.0378745 233.034991,90.8467023 M220.492336,69.5499562 C220.275013,69.8171795 219.986044,70.0342985 219.651701,70.1225777 C219.317357,70.2132427 218.940027,70.1559806 218.672552,69.9340898 C218.268952,69.6000606 218.369255,68.9510896 218.765691,68.6576211 C218.994955,68.4882206 219.255265,68.3665385 219.534681,68.3068905 C219.785438,68.2472424 220.055301,68.2400846 220.294118,68.3426793 C220.532935,68.4428881 220.728764,68.6671648 220.745481,68.9248445 C220.75981,69.153893 220.640402,69.371012 220.492336,69.5499562 M217.858187,80.7113026 C217.144125,81.5821644 216.200799,82.2955553 215.114183,82.5794801 C214.027567,82.8634049 212.795272,82.6820748 211.930756,81.9639121 C210.614875,80.8735454 210.944443,78.7691615 212.236441,77.8076347 C212.976773,77.2588725 213.829349,76.8675811 214.7273,76.6647777 C215.548829,76.4786757 216.432451,76.4572024 217.208606,76.7816879 C217.982372,77.1109453 218.620013,77.8386517 218.67494,78.6784965 C218.72748,79.4252903 218.331044,80.1339093 217.858187,80.7113026 M216.310655,97.3865164 C216.04318,97.5893199 215.656297,97.4652519 215.362552,97.3030091 C214.278324,96.7041425 213.468735,95.6328632 213.186932,94.4255864 C213.160662,94.3086761 213.139168,94.1869941 213.158274,94.0724698 C213.217978,93.695494 213.683671,93.5070061 214.051448,93.6000571 C214.746405,93.7790013 215.716001,94.8168777 216.117213,95.3799554 C216.410958,95.795106 216.602011,96.2961498 216.566189,96.8043513 C216.554248,97.0238562 216.484991,97.2552907 216.310655,97.3865164 M210.963548,223.797473 C210.64831,224.444058 210.010669,224.921243 209.301383,225.042925 C207.880424,225.286289 205.8266,223.544566 204.923873,222.585425 C204.28862,221.912594 203.856362,220.991628 203.970994,220.075434 C204.073685,219.247519 204.60147,218.529356 205.210453,217.956735 C205.795554,217.407972 206.528721,216.93556 207.331145,216.954647 C208.140734,216.97612 208.854796,217.493866 209.39691,218.097504 C210.187393,218.985067 210.71279,220.089749 211.018476,221.237378 C211.242963,222.081995 211.343266,223.012505 210.963548,223.797473 M204.799688,66.0593513 C204.849839,65.9519848 204.909544,65.8446182 204.997906,65.7634969 C205.277321,65.5105891 205.757343,65.6513585 205.986607,65.9543707 C206.416477,66.531764 206.523945,67.9466161 206.485734,68.6385337 C206.454688,69.1443493 206.289904,69.6573227 205.948396,70.0319126 C205.80033,70.1941553 205.6045,70.3325388 205.384789,70.327767 C205.048057,70.3182233 204.82357,69.9818082 204.696997,69.6692523 C204.226528,68.5263954 204.264738,67.178349 204.799688,66.0593513 M203.600828,45.9436369 C203.390669,45.7503772 203.223497,45.5117849 203.108865,45.2493334 C203.006174,45.0083552 202.94647,44.738746 203.003786,44.4810663 C203.058714,44.2257726 203.242603,43.9895662 203.498137,43.9227604 C203.725013,43.8654982 203.961441,43.9442337 204.166823,44.0563721 C204.474897,44.2233866 204.74476,44.4715226 204.895215,44.7840785 C205.043281,45.1014062 205.05761,45.4903116 204.890438,45.7957097 C204.630128,46.2609646 203.968606,46.2824379 203.600828,45.9436369 M202.26823,53.4712231 C202.048519,53.7384464 201.759551,53.9555654 201.425207,54.0438445 C201.090864,54.1297377 200.713533,54.0748615 200.446059,53.8553566 C200.044847,53.5189415 200.14515,52.8723565 200.541585,52.578888 C200.768461,52.4094875 201.03116,52.2901913 201.308187,52.2257714 C201.558945,52.1685093 201.831196,52.1637374 202.067624,52.2639462 C202.306441,52.3641549 202.502271,52.5884317 202.521376,52.8437254 C202.535705,53.0751599 202.413909,53.2922789 202.26823,53.4712231 M201.09564,37.3089826 C201.207884,37.2230894 201.339233,37.1658273 201.472971,37.1348103 C201.597155,37.1085651 201.733281,37.1037933 201.847913,37.1538977 C201.964933,37.204002 202.062848,37.3137545 202.072401,37.4402084 C202.079565,37.5547327 202.019861,37.6620992 201.945828,37.7479924 C201.83836,37.8816041 201.697458,37.9889706 201.532675,38.0319172 C201.367891,38.0772498 201.179226,38.0486187 201.047877,37.9388662 C200.849659,37.7742376 200.89981,37.4545239 201.09564,37.3089826 M203.961441,30.9123239 C204.073685,30.8288166 204.202646,30.7691685 204.338772,30.7405374 C204.462956,30.7119064 204.596694,30.7071345 204.716102,30.754853 C204.830734,30.8073433 204.928649,30.9170957 204.935813,31.0459355 C204.945366,31.155688 204.885662,31.2630545 204.814017,31.3513336 C204.706549,31.4849453 204.560871,31.5923118 204.398476,31.6376444 C204.231304,31.678205 204.045027,31.649574 203.916066,31.5445934 C203.71546,31.3775788 203.765611,31.0578651 203.961441,30.9123239 M206.469017,25.2624589 C206.695893,25.0930584 206.958591,24.9737622 207.23323,24.9117282 C207.486376,24.8544661 207.758627,24.8473083 207.997444,24.949903 C208.233873,25.0501118 208.429702,25.2720026 208.446419,25.5296822 C208.463137,25.7611167 208.34134,25.9782357 208.19805,26.1571799 C207.978339,26.4220173 207.68937,26.6415222 207.352639,26.7298013 C207.018295,26.8156946 206.640965,26.7608183 206.375878,26.5389275 C205.972278,26.2048984 206.072581,25.5583133 206.469017,25.2624589 M210.101419,34.1524069 C210.21844,34.1738802 210.337848,34.2001254 210.440539,34.2645453 C210.758165,34.4673487 210.746225,34.9707784 210.514572,35.2714046 C210.07515,35.8392543 208.735388,36.3188247 208.059536,36.464366 C207.562797,36.5717325 207.02546,36.5478733 206.574096,36.3188247 C206.380655,36.218616 206.194378,36.063531 206.141838,35.8511839 C206.065417,35.5243125 206.330503,35.2189143 206.597978,35.013725 C207.577127,34.2526156 208.883454,33.932902 210.101419,34.1524069 M208.556275,43.3930855 C208.391492,43.4360322 208.205215,43.4074011 208.073865,43.3000346 C207.873259,43.1354059 207.923411,42.8156923 208.119241,42.670151 C208.231484,42.5842577 208.360445,42.5269956 208.498959,42.4935927 C208.620756,42.4673475 208.756881,42.4649616 208.873901,42.5126801 C208.990922,42.5651704 209.088836,42.6749228 209.098389,42.8013767 C209.103165,42.9135151 209.043461,43.0208816 208.971816,43.1091607 C208.864349,43.2427724 208.718671,43.3501389 208.556275,43.3930855 M214.123093,48.7160791 C214.705806,49.6966933 214.872978,50.8610236 215.025821,51.991951 C215.544053,55.8141992 216.04318,59.7414279 215.169111,63.4992562 C215.068808,63.9287223 214.913577,64.401135 214.526694,64.6063243 C214.27116,64.7447079 213.960698,64.7351642 213.674118,64.680288 C212.396448,64.4488534 211.36476,63.4586955 210.753389,62.3110667 C210.142018,61.1658238 209.888873,59.8678818 209.642891,58.5890273 C209.196304,56.2603667 208.780763,53.4473638 208.869125,51.0733707 C208.931217,49.4103826 209.661997,47.4372245 211.302668,47.1628434 C212.429883,46.9767415 213.542769,47.7354649 214.123093,48.7160791 M213.392314,28.1422676 C213.623966,27.9680952 213.889053,27.8487991 214.170857,27.7843792 C214.424002,27.727117 214.698642,27.7199593 214.942235,27.822554 C215.181051,27.9251486 215.379269,28.1518113 215.398375,28.4118769 C215.412704,28.6456973 215.288519,28.8628163 215.142841,29.0465323 C214.920741,29.3161416 214.626997,29.5380324 214.287877,29.6263115 C213.953533,29.7145907 213.569038,29.6573285 213.299176,29.4354377 C212.888411,29.0942508 212.991102,28.4405079 213.392314,28.1422676 M217.648028,34.4100865 C217.960878,34.2621593 218.328656,34.178652 218.641506,34.3194215 C219.121528,34.5341545 219.243324,35.1568804 219.243324,35.6841693 C219.240936,37.6263104 218.378808,39.5541359 216.936354,40.8544638 C216.797841,40.9809177 216.649774,41.1025997 216.470662,41.1670197 C215.914219,41.3674372 215.302848,40.8711652 215.15717,40.2961579 C214.875366,39.2034053 215.567935,37.0870918 216.038404,36.1088635 C216.3823,35.3907008 216.926802,34.7441157 217.648028,34.4100865 M201.902841,235.366813 C200.720698,235.743788 199.383324,235.595861 198.315813,234.970749 C198.213122,234.911101 198.110431,234.846681 198.038786,234.748859 C197.809522,234.450618 197.991023,233.980592 198.313425,233.777788 C198.922408,233.39604 200.343367,233.405584 201.028772,233.501021 C201.530287,233.570213 202.027025,233.777788 202.368533,234.149992 C202.518988,234.309849 202.640785,234.51981 202.616903,234.736929 C202.576304,235.070958 202.222855,235.266604 201.902841,235.366813 M195.657783,151.272581 C194.258317,150.924236 193.08095,148.502525 192.636751,147.259459 C192.32629,146.388597 192.30002,145.372194 192.775265,144.577682 C193.202747,143.861905 193.974125,143.413351 194.759832,143.136584 C195.514493,142.866975 196.376621,142.728592 197.102624,143.072164 C197.835792,143.415737 198.279991,144.179233 198.533137,144.949886 C198.900914,146.078427 198.939125,147.302405 198.755236,148.478665 C198.623887,149.342369 198.342083,150.234704 197.675785,150.800168 C197.131282,151.265423 196.355128,151.449139 195.657783,151.272581 M191.053396,225.436602 C190.508894,226.419602 189.527357,227.192641 188.412083,227.326253 C186.714096,227.531442 185.414933,225.844595 185.608375,224.248413 C185.720619,223.334604 186.021528,222.444655 186.494385,221.652529 C186.924255,220.929594 187.518909,220.273466 188.290287,219.934665 C189.061665,219.598249 190.028873,219.634038 190.678454,220.170871 C191.254002,220.645669 191.492819,221.421094 191.588346,222.163116 C191.72686,223.277342 191.593122,224.451216 191.053396,225.436602 M185.14507,213.585724 C184.977899,213.888736 184.676989,214.124943 184.333093,214.167889 C183.812473,214.229923 183.413649,213.712178 183.470965,213.220678 C183.506787,212.941525 183.599926,212.667144 183.743216,212.42378 C183.876953,212.201889 184.058454,211.999086 184.297271,211.894105 C184.533699,211.79151 184.829832,211.80344 185.02805,211.968069 C185.207163,212.11361 185.281196,212.352202 185.309854,212.578865 C185.352841,212.922438 185.312242,213.282712 185.14507,213.585724 M181.4052,205.793301 C180.863086,206.778687 179.879161,207.54934 178.763887,207.685337 C177.0659,207.890527 175.769125,206.203679 175.962567,204.607497 C176.070034,203.693689 176.37572,202.803739 176.848577,202.011613 C177.278447,201.288679 177.870712,200.630164 178.644479,200.291363 C179.415857,199.954948 180.380676,199.990737 181.030258,200.527569 C181.605806,201.004754 181.844623,201.777793 181.94015,202.519815 C182.081051,203.634041 181.944926,204.807915 181.4052,205.793301 M175.46344,224.090942 C175.222235,224.324762 174.823411,224.257956 174.510561,224.136274 C173.354688,223.692493 172.406585,222.74051 171.964774,221.583337 C171.919399,221.471199 171.881189,221.354289 171.885965,221.234992 C171.893129,220.855631 172.330164,220.607495 172.705106,220.648055 C173.419168,220.731563 174.520114,221.626284 174.995359,222.129713 C175.344031,222.499531 175.601953,222.971944 175.637776,223.47776 C175.652105,223.697265 175.616282,223.935857 175.46344,224.090942 M167.87862,208.038454 C167.7616,208.298519 167.589652,208.541884 167.417704,208.749459 C166.665431,209.684741 165.901217,210.128522 165.339998,210.176241 C164.783555,210.221573 164.394284,209.923333 164.012177,209.627478 C163.31722,209.085874 162.543454,208.331922 162.137466,207.341764 C161.850886,206.647461 161.877155,205.301801 162.736896,203.877405 C163.326773,202.901562 164.088598,202.305082 164.599666,202.216802 C165.113122,202.130909 165.42836,202.445851 165.729269,202.760793 C166.753793,203.824914 167.785481,204.93914 168.019522,207.096014 C168.04818,207.341764 168.052956,207.644777 167.87862,208.038454 M160.415597,196.368906 C159.429284,195.820144 158.368937,193.863687 157.984443,192.84967 C157.702639,192.105262 157.611888,191.267803 157.860258,190.511466 C157.970114,190.18698 158.163555,189.860109 158.481181,189.728883 C158.968367,189.528466 159.505705,189.867267 159.887812,190.229927 C161.292054,191.568429 162.099255,193.515342 162.046715,195.457483 C162.041939,195.645971 162.029998,195.836845 161.953577,196.008632 C161.71476,196.550236 160.933829,196.652831 160.415597,196.368906 M160.924277,215.780773 C160.757105,216.083785 160.456196,216.319992 160.114688,216.360552 C159.591679,216.424972 159.192855,215.907227 159.250171,215.415727 C159.285994,215.136574 159.379132,214.862193 159.52481,214.618829 C159.65616,214.396938 159.840049,214.194134 160.076477,214.089154 C160.312906,213.986559 160.611427,213.998489 160.809645,214.165503 C160.986369,214.308659 161.058014,214.547251 161.08906,214.773914 C161.134435,215.117487 161.091448,215.477761 160.924277,215.780773 M158.113404,203.285696 C158.032206,203.436009 157.881751,203.552919 157.71458,203.572007 C157.456658,203.60541 157.260828,203.34773 157.287098,203.106752 C157.303815,202.968368 157.351578,202.834756 157.423223,202.713074 C157.487704,202.603322 157.576066,202.503113 157.695474,202.453009 C157.812494,202.402904 157.958173,202.407676 158.056088,202.488798 C158.14445,202.560375 158.180272,202.677286 158.194601,202.789424 C158.216095,202.958824 158.194601,203.135383 158.113404,203.285696 M156.549154,208.63732 C156.264962,208.656408 155.973606,208.615847 155.706131,208.515638 C155.46015,208.427359 155.223721,208.284204 155.075655,208.069471 C154.929976,207.852352 154.884601,207.554112 155.013562,207.322677 C155.125806,207.117488 155.347906,207.002963 155.567617,206.929 C155.901961,206.819247 156.26735,206.795388 156.599305,206.902755 C156.933649,207.012507 157.225005,207.267801 157.330085,207.60183 C157.490092,208.107646 157.048281,208.603918 156.549154,208.63732 M152.747191,198.88844 C152.484493,199.322678 152.095222,199.697268 151.617588,199.866669 C151.409818,199.940632 151.171001,199.969263 150.982336,199.857125 C150.690979,199.69011 150.652769,199.289275 150.686203,198.955246 C150.810388,197.721724 151.479075,196.552622 152.477329,195.817758 C152.575243,195.74618 152.675546,195.679374 152.790178,195.650743 C153.157956,195.557692 153.513793,195.910809 153.573497,196.283013 C153.680965,196.996404 153.107805,198.296731 152.747191,198.88844 M150.387682,189.299417 C150.418728,189.015492 150.514255,188.733953 150.662321,188.490589 C150.796059,188.263926 150.982336,188.058737 151.221152,187.953757 C151.459969,187.848776 151.763266,187.860706 151.963873,188.02772 C152.142985,188.175647 152.217018,188.419011 152.248064,188.64806 C152.288663,188.996405 152.248064,189.359065 152.080893,189.666849 C151.911333,189.974633 151.605647,190.213225 151.259363,190.256172 C150.72919,190.318206 150.32559,189.795689 150.387682,189.299417 M149.38704,204.707706 C149.303454,204.855633 149.155388,204.972543 148.985828,204.994017 C148.727906,205.022648 148.529688,204.76974 148.560734,204.526376 C148.577451,204.387992 148.622826,204.251995 148.694471,204.132698 C148.758952,204.025332 148.849702,203.925123 148.969111,203.872633 C149.086131,203.822528 149.229421,203.8273 149.327336,203.908422 C149.415698,203.979999 149.453909,204.099296 149.468238,204.211434 C149.489731,204.378448 149.468238,204.557393 149.38704,204.707706 M146.719457,198.232312 C146.638259,198.380239 146.490193,198.497149 146.320633,198.518622 C146.062711,198.552025 145.866881,198.294346 145.895539,198.053367 C145.914645,197.914984 145.96002,197.778986 146.029277,197.65969 C146.096145,197.549938 146.186896,197.449729 146.303916,197.397239 C146.418548,197.347134 146.566614,197.354292 146.664529,197.435413 C146.752891,197.504605 146.788714,197.623901 146.803043,197.73604 C146.822148,197.90544 146.805431,198.081998 146.719457,198.232312 M145.200582,192.713672 C145.033411,193.016685 144.730114,193.255277 144.388606,193.295837 C143.865597,193.360257 143.466773,192.840126 143.528865,192.351012 C143.5623,192.069473 143.655438,191.797478 143.801116,191.554114 C143.930077,191.329837 144.116354,191.12942 144.350395,191.024439 C144.589212,190.919458 144.885344,190.931388 145.083562,191.098403 C145.260287,191.243944 145.33432,191.482536 145.362978,191.709199 C145.408353,192.052772 145.367754,192.41066 145.200582,192.713672 M185.644197,157.466436 C185.474637,157.755133 185.071037,157.793308 184.736694,157.757519 C183.506787,157.626293 182.341362,156.953463 181.615359,155.951375 C181.543714,155.853552 181.479233,155.750958 181.450575,155.634048 C181.362213,155.269001 181.71805,154.913499 182.092992,154.856237 C182.804666,154.74887 184.099053,155.331035 184.68893,155.696082 C185.1188,155.960919 185.491354,156.349824 185.65375,156.827009 C185.725395,157.03697 185.754053,157.277948 185.644197,157.466436 M180.605164,141.506999 C180.28515,142.587822 179.692884,143.606611 178.802098,144.291371 C177.908923,144.976131 176.70051,145.286301 175.625835,144.964201 C173.987552,144.467929 173.478873,142.396948 174.295626,141.013113 C174.766095,140.220987 175.398959,139.526683 176.151232,138.994623 C176.834248,138.505508 177.643836,138.140462 178.482083,138.140462 C179.325106,138.140462 180.194399,138.565156 180.57173,139.314336 C180.908461,139.98478 180.817711,140.791222 180.605164,141.506999 M176.769767,130.052184 C176.915445,129.806434 177.111275,129.594087 177.342927,129.429458 C177.553086,129.279145 177.799067,129.169393 178.056989,129.169393 C178.3173,129.169393 178.582386,129.298233 178.699406,129.529667 C178.802098,129.734857 178.77344,129.980607 178.708959,130.202497 C178.611044,130.534141 178.429544,130.849082 178.157292,131.059044 C177.882653,131.266619 177.510099,131.362056 177.180532,131.261847 C176.676629,131.111534 176.521398,130.474493 176.769767,130.052184 M171.291311,127.969274 C171.105034,128.191165 170.816066,128.303303 170.531874,128.367723 C169.266145,128.649262 167.926383,128.136288 166.918577,127.315531 C165.913158,126.497159 165.175215,125.399635 164.453988,124.321198 C163.138108,122.34804 161.66222,119.921556 160.826362,117.700262 C160.238873,116.142255 160.145734,114.040257 161.554753,113.150308 C162.521961,112.541897 163.840229,112.809121 164.757285,113.484337 C165.67673,114.161939 166.280936,115.171184 166.861261,116.154184 C168.819558,119.473003 170.801737,122.894416 171.451318,126.695191 C171.525352,127.131815 171.568339,127.625701 171.291311,127.969274 M165.4809,136.296144 C165.409255,136.501333 165.280294,136.706523 165.074911,136.785258 C164.762062,136.90694 164.42533,136.682663 164.186513,136.446457 C163.307668,135.573209 162.82287,134.3206 162.882574,133.082306 C162.88735,132.96301 162.899291,132.841328 162.949443,132.731575 C163.111838,132.388003 163.610965,132.335512 163.935756,132.526386 C164.556679,132.88666 165.206261,134.148814 165.435525,134.802556 C165.607473,135.279741 165.652848,135.816574 165.4809,136.296144 M158.070417,94.9719627 C157.972502,95.3083778 157.788613,95.6257055 157.509197,95.8380526 C157.234558,96.0527856 156.857228,96.1506085 156.522884,96.0480138 C156.011816,95.8929288 155.854197,95.2511156 156.107343,94.8192636 C156.255409,94.5735136 156.453627,94.3563946 156.685279,94.18938 C156.897826,94.036681 157.150972,93.9245426 157.411282,93.9245426 C157.671593,93.9245426 157.943844,94.0581543 158.060864,94.2895888 C158.165943,94.497164 158.139673,94.7500718 158.070417,94.9719627 M157.559349,110.745298 C157.425611,110.850278 157.241722,110.895611 157.076939,110.847892 C156.830958,110.773929 156.754536,110.458987 156.876333,110.249026 C156.947978,110.127344 157.043505,110.022363 157.158137,109.941242 C157.260828,109.869664 157.382624,109.812402 157.511585,109.812402 C157.640546,109.812402 157.769507,109.879208 157.829212,109.98896 C157.876975,110.091555 157.865034,110.213237 157.833988,110.322989 C157.783836,110.485232 157.695474,110.642703 157.559349,110.745298 M156.217199,102.504321 C156.030922,103.198624 154.982516,104.160151 154.41652,104.556214 C153.998591,104.847297 153.494688,105.035785 152.988396,104.99761 C152.771073,104.980908 152.539421,104.914103 152.41046,104.735158 C152.209854,104.465549 152.336427,104.081416 152.50121,103.787947 C153.112581,102.707124 154.192033,101.905454 155.402834,101.633459 C155.519854,101.607214 155.639262,101.58574 155.758671,101.607214 C156.131225,101.669248 156.315114,102.136889 156.217199,102.504321 M155.66792,122.469722 C155.567617,122.801365 155.386116,123.111535 155.111477,123.323882 C154.839226,123.533843 154.46906,123.62928 154.137105,123.529072 C153.633202,123.378758 153.477971,122.741717 153.728728,122.317023 C153.872018,122.073659 154.067848,121.861312 154.297112,121.696683 C154.507271,121.54637 154.758028,121.434231 155.013562,121.434231 C155.271484,121.434231 155.541347,121.565457 155.658367,121.794506 C155.761059,122.002081 155.732401,122.247831 155.66792,122.469722 M152.861823,113.904259 C152.811672,113.648966 152.890481,113.357883 153.098252,113.19564 C153.284529,113.057257 153.535287,113.038169 153.769327,113.062029 C154.115611,113.093046 154.461896,113.217114 154.722206,113.450934 C154.980128,113.682369 155.1473,114.035485 155.109089,114.381444 C155.051773,114.911119 154.449955,115.187886 153.977098,115.018485 C153.709623,114.923048 153.461253,114.765577 153.255871,114.569932 C153.067206,114.388602 152.907199,114.161939 152.861823,113.904259 M150.545301,95.0077515 C150.447386,95.3393948 150.265886,95.6543366 149.991246,95.8642978 C149.714219,96.071873 149.344053,96.1673099 149.014486,96.0694871 C148.510582,95.9167881 148.355352,95.2821326 148.606109,94.8574384 C148.749399,94.6116883 148.945229,94.3993412 149.176881,94.2347125 C149.38704,94.0843994 149.635409,93.974647 149.893331,93.974647 C150.151253,93.974647 150.418728,94.1034868 150.53336,94.3349213 C150.63844,94.5401106 150.609782,94.7858607 150.545301,95.0077515 M149.16494,101.53325 C149.028815,101.633459 148.847314,101.681177 148.684919,101.633459 C148.436549,101.557109 148.35774,101.242168 148.484313,101.034592 C148.55357,100.915296 148.649096,100.810316 148.763728,100.729194 C148.868808,100.652845 148.990604,100.597968 149.117177,100.597968 C149.24375,100.597968 149.377487,100.662388 149.434803,100.776913 C149.487343,100.877121 149.473014,101.001189 149.43958,101.108556 C149.391816,101.270799 149.298678,101.42827 149.16494,101.53325 M149.002545,108.535933 C148.868808,108.638528 148.684919,108.686246 148.520135,108.636142 C148.274154,108.562178 148.197733,108.247237 148.319529,108.037275 C148.391174,107.917979 148.489089,107.812999 148.601333,107.731877 C148.704024,107.657914 148.828209,107.600652 148.954782,107.600652 C149.083743,107.600652 149.212704,107.667457 149.272408,107.781982 C149.322559,107.88219 149.30823,108.003872 149.277184,108.111239 C149.227033,108.275868 149.138671,108.430953 149.002545,108.535933 M162.459868,98.9397521 C162.69152,98.6844584 162.999594,98.4625676 163.341102,98.4697254 C163.868887,98.4840409 164.224724,99.0113298 164.42533,99.4956721 C165.177603,101.285114 165.129839,103.396656 164.305922,105.155081 C164.227112,105.324481 164.133974,105.496268 163.997848,105.620336 C163.558425,106.021171 162.803764,105.801666 162.443151,105.329253 C161.762523,104.434532 161.578634,102.215624 161.63595,101.132415 C161.674161,100.335517 161.929695,99.531461 162.459868,98.9397521 M305.363028,208.362939 C301.186124,209.424675 295.607365,212.881877 293.668173,209.038156 C292.758281,207.234398 293.758923,205.087068 294.764342,203.331028 C310.418779,175.966881 331.895568,148.612277 329.724724,117.180131 C329.52173,114.233517 329.056037,111.17715 327.355662,108.767368 C322.949493,102.525794 312.876203,104.0671 306.941607,108.898594 C301.009399,113.732473 297.267141,120.825821 291.399414,125.73605 C285.531686,130.646279 275.57064,132.466738 270.91849,126.404108 C281.834803,108.094538 287.439832,86.6617939 286.878613,65.3626618 C286.656513,56.9809154 282.809176,46.1917729 274.445813,46.7190618 C269.893966,47.0053725 266.423959,50.8133052 263.734883,54.5067135 C257.90059,62.5162561 253.207841,71.3584856 249.845301,80.6826716 C248.199854,85.2469417 244.359681,95.5899166 238.723606,90.5985663 C235.666751,87.89293 239.702754,73.0357893 239.807834,69.3137499 C240.209046,54.8455145 237.030395,40.2532113 230.489204,27.3477553 C227.563699,21.5762083 223.188577,15.5899282 216.771571,14.7453116 C213.810243,14.3516343 210.786823,15.1556903 208.114464,16.5037366 C193.412906,23.9120266 191.516701,44.3784716 195.366427,60.3808552 C199.213764,76.3832388 206.796196,92.3808506 203.748894,108.564564 C190.322617,104.630178 184.753411,87.7354591 172.065077,81.8493878 C162.985265,77.6406201 151.424147,80.3748875 144.534284,87.6543377 C137.644421,94.9337879 135.447307,106.052188 138.196088,115.679386 C144.290691,137.021464 169.352119,146.090357 183.136621,163.467032 C186.874103,168.174457 189.859313,173.833866 189.799608,179.851163 C189.737516,185.86846 185.88779,192.121964 180.012899,193.410362 C167.439197,196.168488 156.962307,176.575291 144.990424,181.30419 C139.831982,183.341768 137.26709,189.542781 137.868909,195.059034 C138.470727,200.570516 141.561015,205.478359 144.923555,209.885158 C152.857047,220.283009 162.791823,229.146712 174.025763,235.841611 C178.128634,238.287182 182.489428,240.515634 185.691961,244.061115 C188.896881,247.606596 190.704724,252.927204 188.672393,257.260039 C182.573014,270.260932 155.756282,257.701435 150.982336,271.243932 C148.219226,279.079303 157.041116,285.747957 164.494587,289.381717 C182.040453,297.937636 199.591095,306.49594 217.139349,315.054245 C226.684854,319.706794 237.61072,324.452395 247.559825,320.70411 C252.672891,318.776285 256.730388,314.83474 260.529962,310.900354 C281.3309,289.357858 299.160958,264.949868 313.361001,238.58065 C316.518158,232.718438 319.582177,226.314622 318.825128,219.705616 C318.065691,213.091838 311.81108,206.721425 305.363028,208.362939" id="Fill-48" fill="#3B2CE0"></path>
                                <path d="M228.799815,124.967306 C244.277528,197.408691 248.454432,272.259858 241.297095,346.023045" id="Stroke-50" stroke="#C8DCFE" stroke-width="0.662" stroke-linecap="round" stroke-linejoin="round"></path>
                                <path d="M283.025544,236.779279 C277.004974,259.056639 266.814663,276.812676 244.65247,283.180704 C240.960363,284.242439 222.167874,280.761378 209.018624,269.266002" id="Stroke-52" stroke="#C8DCFE" stroke-width="0.662" stroke-linecap="round" stroke-linejoin="round"></path>
                                <path d="M274.19816,161.499361 C271.191458,186.997717 248.692533,208.845612 223.136753,211.081221 C215.227143,211.773139 206.560484,210.479969 200.92202,204.892138" id="Stroke-54" stroke="#C8DCFE" stroke-width="0.662" stroke-linecap="round" stroke-linejoin="round"></path>
                                <path d="M253.812525,107.715892 C251.808852,117.125971 248.24093,126.204407 243.304588,134.464471 C239.180223,141.359788 233.329213,148.157282 225.395721,149.371716 C219.848008,150.218719 214.183275,148.107177 209.648145,144.812218 C205.110627,141.519645 201.5236,137.115231 197.984336,132.763308" id="Stroke-56" stroke="#C8DCFE" stroke-width="0.662" stroke-linecap="round" stroke-linejoin="round"></path>
                            </g>
                        </g>
                    </g>
                </g>
            </g>
        </g>
    </g>
</svg>