<?xml version="1.0" encoding="UTF-8"?>
<svg width="179px" height="28px" viewBox="0 0 179 28" version="1.1" xmlns="http://www.w3.org/2000/svg" xmlns:xlink="http://www.w3.org/1999/xlink">
    <!-- Generator: sketchtool 63.1 (101010) - https://sketch.com -->
    <title>3CE7071B-FBD2-455B-A6E1-0B0B35FF478F</title>
    <desc>Created with sketchtool.</desc>
    <defs>
        <polygon id="path-1" points="0.00544562028 0.00406937911 2.04729391 0.00406937911 2.04729391 4.39186668 0.00544562028 4.39186668"></polygon>
    </defs>
    <g id="Web" stroke="none" stroke-width="1" fill="none" fill-rule="evenodd">
        <g id="[U2]-Home-page" transform="translate(-128.000000, -42.000000)">
            <g id="Header-User-Scoll">
                <g id="Logo-VibloLearning" transform="translate(128.000000, 41.000000)">
                    <g id="logo-Viblo" transform="translate(30.263885, 6.926040)">
                        <polygon id="Fill-26" fill="#6B717B" points="15.4123971 14.8216989 17.4797507 14.8216989 17.4797507 0.0982782743 15.4123971 0.0982782743"></polygon>
                        <path d="M21.7863785,8.0788772 L23.9170646,8.0788772 C24.1749183,8.08334561 24.4011058,8.09675085 24.6046745,8.1146245 C25.0977633,8.15484022 25.5275195,8.24420847 25.8758482,8.38272928 C26.8710731,8.78488644 27.3505906,9.46855362 27.3505906,10.4694781 C27.3505906,11.5240236 26.9208344,12.2121592 26.0387032,12.578569 C25.6496607,12.7349635 25.2379995,12.8332686 24.8218145,12.8690159 L24.1522996,12.9047632 L21.7909022,12.9137 L21.7909022,8.0788772 L21.7863785,8.0788772 Z M25.5591857,5.81339183 C25.2606182,5.96978629 24.8987183,6.07255978 24.4689621,6.12618074 C24.2789646,6.15299122 24.0844433,6.16639646 23.8899221,6.17086487 L21.7909022,6.17980169 L21.7909022,2.01077242 L23.3742146,2.01077242 C23.6592109,2.01077242 23.9125408,2.01524083 24.1206333,2.02864607 C24.3694396,2.04651972 24.613722,2.08673544 24.8580045,2.14482481 C25.3691882,2.26100354 25.7672782,2.47101895 26.0341794,2.77933945 C26.3689369,3.14574931 26.5544107,3.62386949 26.5498869,4.11539492 C26.5453632,4.91077242 26.2241769,5.46932404 25.5591857,5.81339183 L25.5591857,5.81339183 Z M27.3189244,6.92602666 C27.6808243,6.59983251 27.9612968,6.26916995 28.155818,5.94297581 C28.4589093,5.42910832 28.6126715,4.8348094 28.6126715,4.16454746 C28.6126715,3.62386949 28.5086705,3.09212835 28.296009,2.5916661 C27.9160593,1.69798351 27.2601156,1.03218998 26.3508419,0.616627581 C25.6044232,0.268091371 24.686102,0.0938232666 23.6275446,0.0938232666 L19.7235486,0.0938232666 L19.7235486,14.8172439 L23.9758733,14.8172439 C24.7539583,14.8172439 25.3827595,14.7725598 25.844182,14.6831915 C26.4775069,14.5625444 27.0836894,14.3301869 27.6310631,13.9905875 C28.8208092,13.248831 29.4269465,12.0647015 29.4269465,10.4694781 C29.422468,8.8385074 28.716763,7.64990955 27.3189244,6.92602666 L27.3189244,6.92602666 Z" id="Fill-27" fill="#6B717B"></path>
                        <polygon id="Fill-28" fill="#6B717B" points="33.0007268 0.0982872111 30.9334184 0.0982872111 30.9334184 14.8217079 38.8906489 14.8217079 38.8906489 12.9181639 33.0007268 12.9181639"></polygon>
                        <path d="M46.5991455,13.0298921 C45.0791204,13.0298921 43.7446142,12.4847458 42.631817,11.4078582 C41.5099271,10.3309707 40.9444584,9.02619414 40.9444584,7.52927581 C40.9444584,5.99214176 41.5008796,4.65161787 42.5910581,3.54791988 C43.6858507,2.44422188 45.0384519,1.88567026 46.5991455,1.88567026 C48.1417442,1.88567026 49.4897763,2.43975347 50.598095,3.53004622 C51.7064137,4.62033898 52.2718824,5.94745763 52.2718824,7.47118644 C52.2718824,8.99491525 51.7064137,10.3130971 50.5890927,11.394453 C49.4717266,12.4758089 48.1372204,13.0298921 46.5991455,13.0298921 M52.0230761,2.16718028 C50.5167127,0.72835131 48.6936416,0 46.5991455,0 C44.4820307,0 42.649912,0.732819723 41.1570746,2.18505393 C39.6551897,3.65069337 38.8951998,5.44699538 38.8951998,7.52927581 C38.8951998,9.55793529 39.6778085,11.3229584 41.2158834,12.7751926 C42.7313395,14.2006163 44.5453632,14.9200308 46.5991455,14.9200308 C48.6845941,14.9200308 50.50762,14.1916795 52.0140739,12.7528505 C53.547625,11.2961479 54.32571,9.51325116 54.32571,7.45331279 C54.32571,5.39337442 53.547625,3.61941448 52.0230761,2.16718028" id="Fill-29" fill="#6B717B"></path>
                        <polygon id="Fill-31" fill="#5387C6" points="6.20206082 14.8217079 8.40512692 14.8217079 14.584569 0.0982872111 12.3679316 0.0982872111 9.01583312 8.07887273 5.55064086 8.07887273 2.2121136 0.0982872111 -7.71436195e-15 0.0982872111"></polygon>
                        <polygon id="Fill-32" fill="#5285C5" points="0.882113094 17.931759 13.6933722 17.931759 13.6933722 16.0863045 0.882113094 16.0863045"></polygon>
                    </g>
                    <path d="M95.9074742,21.761171 L95.9074742,19.5219599 L90.9327972,19.5219599 L90.9327972,7.12336518 L87.9731792,7.12336518 L87.9731792,21.761171 L95.9074742,21.761171 Z M102.89721,21.9063051 C103.862759,21.9063051 104.740849,21.7266153 105.53148,21.3672357 C106.322111,21.0078562 106.969309,20.5102537 107.473074,19.8744284 C107.976838,19.238603 108.305685,18.5198439 108.459613,17.718151 L108.459613,17.718151 L105.332073,17.718151 C105.206132,18.2848649 104.915768,18.7340894 104.46098,19.0658243 C104.006193,19.3975593 103.435959,19.5634268 102.750279,19.5634268 C101.980638,19.5634268 101.336939,19.3215367 100.819181,18.8377565 C100.301422,18.3539764 100.021553,17.6006615 99.9795728,16.577812 L99.9795728,16.577812 L108.501593,16.577812 C108.571561,16.2046102 108.606544,15.8728752 108.606544,15.5826071 C108.606544,14.532113 108.372154,13.5956528 107.903373,12.7732265 C107.434592,11.9508002 106.769902,11.3046081 105.909304,10.8346502 C105.048706,10.3646923 104.044675,10.1297134 102.89721,10.1297134 C101.76374,10.1297134 100.75621,10.3646923 99.8746218,10.8346502 C98.9930334,11.3046081 98.3073536,11.9853559 97.8175823,12.8768937 C97.327811,13.7684314 97.0829254,14.81547 97.0829254,16.0180092 C97.0829254,17.2205485 97.327811,18.2641315 97.8175823,19.1487581 C98.3073536,20.0333847 98.9930334,20.7141325 99.8746218,21.1910015 C100.75621,21.6678706 101.76374,21.9063051 102.89721,21.9063051 Z M105.625936,15.292339 L99.9795728,15.292339 C100.035547,14.3524232 100.336406,13.6405752 100.882151,13.1567951 C101.427896,12.6730149 102.099583,12.4311248 102.89721,12.4311248 C103.680844,12.4311248 104.342036,12.6730149 104.880784,13.1567951 C105.419533,13.6405752 105.667917,14.3524232 105.625936,15.292339 L105.625936,15.292339 Z M115.260437,21.9063051 C116.23998,21.9063051 117.079588,21.6747817 117.779261,21.211735 C118.478934,20.7486882 118.975702,20.1301407 119.269565,19.3560924 L119.269565,19.3560924 L119.269565,21.761171 L122.208193,21.761171 L122.208193,10.2748475 L119.269565,10.2748475 L119.269565,12.6591926 C118.975702,11.8851443 118.478934,11.2700524 117.779261,10.8139168 C117.079588,10.3577812 116.23998,10.1297134 115.260437,10.1297134 C114.280895,10.1297134 113.399306,10.3646923 112.615672,10.8346502 C111.832038,11.3046081 111.219824,11.9853559 110.77903,12.8768937 C110.338236,13.7684314 110.117839,14.81547 110.117839,16.0180092 C110.117839,17.2205485 110.338236,18.2675871 110.77903,19.1591248 C111.219824,20.0506626 111.832038,20.7314104 112.615672,21.2013683 C113.399306,21.6713261 114.280895,21.9063051 115.260437,21.9063051 Z M116.184006,19.335359 C115.260437,19.335359 114.518784,19.0416353 113.959045,18.454188 C113.399306,17.8667406 113.119437,17.054681 113.119437,16.0180092 C113.119437,14.9813374 113.399306,14.1658223 113.959045,13.5714638 C114.518784,12.9771053 115.260437,12.679926 116.184006,12.679926 C117.079588,12.679926 117.817743,12.9805609 118.398472,13.5818305 C118.979201,14.1831002 119.269565,14.9951597 119.269565,16.0180092 C119.269565,17.0270365 118.979201,17.8321849 118.398472,18.4334545 C117.817743,19.0347242 117.079588,19.335359 116.184006,19.335359 Z M127.854556,21.761171 L127.854556,16.2253436 C127.854556,14.2349337 128.93905,13.2397288 131.108037,13.2397288 L131.108037,13.2397288 L131.968635,13.2397288 L131.968635,10.10898 C131.087047,10.10898 130.289419,10.3197699 129.575753,10.7413498 C128.862086,11.1629296 128.288354,11.7400103 127.854556,12.4725917 L127.854556,12.4725917 L127.854556,10.2748475 L124.894938,10.2748475 L124.894938,21.761171 L127.854556,21.761171 Z M136.565489,21.761171 L136.565489,15.6655408 C136.565489,14.6565136 136.817371,13.8824653 137.321136,13.343396 C137.824901,12.8043267 138.496587,12.534792 139.336195,12.534792 C140.161809,12.534792 140.812506,12.7870488 141.288283,13.2915624 C141.764061,13.796076 142.00195,14.5044684 142.00195,15.4167396 L142.00195,15.4167396 L142.00195,21.761171 L144.940578,21.761171 L144.940578,15.0850046 C144.940578,13.5092635 144.541764,12.2859908 143.744137,11.4151864 C142.946509,10.5443821 141.876009,10.10898 140.532636,10.10898 C139.609068,10.10898 138.793948,10.326681 138.087278,10.7620832 C137.380608,11.1974854 136.873345,11.8022106 136.565489,12.5762589 L136.565489,12.5762589 L136.565489,10.2748475 L133.605871,10.2748475 L133.605871,21.761171 L136.565489,21.761171 Z M149.033667,8.55397227 C149.579412,8.55397227 150.020206,8.40538264 150.356049,8.10820339 C150.691892,7.81102414 150.859814,7.43436672 150.859814,6.97823112 C150.859814,6.50827324 150.691892,6.12470467 150.356049,5.82752542 C150.020206,5.53034617 149.579412,5.38175655 149.033667,5.38175655 C148.487922,5.38175655 148.047127,5.53034617 147.711284,5.82752542 C147.375441,6.12470467 147.207519,6.50827324 147.207519,6.97823112 C147.207519,7.43436672 147.375441,7.81102414 147.711284,8.10820339 C148.047127,8.40538264 148.487922,8.55397227 149.033667,8.55397227 Z M150.502981,21.761171 L150.502981,10.2748475 L147.543363,10.2748475 L147.543363,21.761171 L150.502981,21.761171 Z M156.149344,21.761171 L156.149344,15.6655408 C156.149344,14.6565136 156.401226,13.8824653 156.904991,13.343396 C157.408756,12.8043267 158.080442,12.534792 158.92005,12.534792 C159.745665,12.534792 160.396361,12.7870488 160.872139,13.2915624 C161.347917,13.796076 161.585805,14.5044684 161.585805,15.4167396 L161.585805,15.4167396 L161.585805,21.761171 L164.524433,21.761171 L164.524433,15.0850046 C164.524433,13.5092635 164.12562,12.2859908 163.327992,11.4151864 C162.530364,10.5443821 161.459864,10.10898 160.116492,10.10898 C159.192923,10.10898 158.377803,10.326681 157.671133,10.7620832 C156.964463,11.1974854 156.4572,11.8022106 156.149344,12.5762589 L156.149344,12.5762589 L156.149344,10.2748475 L153.189726,10.2748475 L153.189726,21.761171 L156.149344,21.761171 Z M173.004473,27.4006656 C174.207912,27.4006656 175.232933,27.1587756 176.079538,26.6749954 C176.926142,26.1912152 177.562845,25.5242897 177.989646,24.6742188 C178.416446,23.8241479 178.629847,22.8669543 178.629847,21.8026379 L178.629847,21.8026379 L178.629847,10.2748475 L175.691219,10.2748475 L175.691219,12.6591926 C175.397356,11.8851443 174.900588,11.2700524 174.200915,10.8139168 C173.501242,10.3577812 172.661634,10.1297134 171.682091,10.1297134 C170.702548,10.1297134 169.82096,10.3646923 169.037326,10.8346502 C168.253692,11.3046081 167.641478,11.9853559 167.200684,12.8768937 C166.759889,13.7684314 166.539492,14.81547 166.539492,16.0180092 C166.539492,17.2205485 166.759889,18.2675871 167.200684,19.1591248 C167.641478,20.0506626 168.253692,20.7314104 169.037326,21.2013683 C169.82096,21.6713261 170.702548,21.9063051 171.682091,21.9063051 C172.661634,21.9063051 173.501242,21.6747817 174.200915,21.211735 C174.900588,20.7486882 175.397356,20.1301407 175.691219,19.3560924 L175.691219,19.3560924 L175.691219,21.8026379 C175.691219,22.8254874 175.425343,23.589169 174.893591,24.0936826 C174.36184,24.5981962 173.662166,24.850453 172.794572,24.850453 C172.038924,24.850453 171.419713,24.6880411 170.936939,24.3632173 C170.454164,24.0383934 170.128816,23.5857134 169.960895,23.0051772 L169.960895,23.0051772 L167.043257,23.0051772 C167.267153,24.3597617 167.896859,25.4309892 168.932375,26.2188598 C169.967891,27.0067304 171.325258,27.4006656 173.004473,27.4006656 Z M172.60566,19.335359 C171.682091,19.335359 170.940437,19.0416353 170.380699,18.454188 C169.82096,17.8667406 169.541091,17.054681 169.541091,16.0180092 C169.541091,14.9813374 169.82096,14.1658223 170.380699,13.5714638 C170.940437,12.9771053 171.682091,12.679926 172.60566,12.679926 C173.501242,12.679926 174.239397,12.9805609 174.820126,13.5818305 C175.400854,14.1831002 175.691219,14.9951597 175.691219,16.0180092 C175.691219,17.0270365 175.400854,17.8321849 174.820126,18.4334545 C174.239397,19.0347242 173.501242,19.335359 172.60566,19.335359 Z" id="Learning" fill="#FAD20B" fill-rule="nonzero"></path>
                    <g id="Group-17" transform="translate(0.000000, 0.983051)">
                        <path d="M11.3792477,14.2698379 L5.12377576,11.1897257 C4.72325053,10.992619 4.2523247,11.2791064 4.2523247,11.7200366 L4.2523247,17.7917336 C4.2523247,18.0163585 4.38099533,18.2217846 4.58526536,18.3222578 L11.3792477,22.2846572 C12.0187017,22.5995159 12.7714466,22.5995159 13.410684,22.2846572 L20.2048829,18.3222578 C20.4091529,18.2217846 20.5378236,18.0163585 20.5378236,17.7917336 L20.5378236,11.7200366 C20.5378236,11.2793197 20.0666811,10.992619 19.6663725,11.1897257 L13.410684,14.2698379 C12.7714466,14.5846967 12.0187017,14.5846967 11.3792477,14.2698379" id="Fill-1" fill="#F8D10C"></path>
                        <path d="M23.1769364,5.98945946 L13.1041403,0.170812748 C12.643572,-0.0569375827 12.1014469,-0.0569375827 11.6406623,0.170812748 L1.56764991,5.98945946 C1.10599992,6.21763749 1.10599992,6.86923867 1.56764991,7.0974167 L11.6270334,12.069431 C12.096255,12.3014583 12.6485476,12.3014583 13.1177692,12.069431 L20.931855,8.2072986 C19.924835,5.72514077 17.2161567,5.16079042 17.2161567,5.16079042 C19.7779464,5.15801037 21.0648985,6.78198784 21.6373099,7.85850912 L23.1769364,7.0974167 C23.639019,6.86923867 23.639019,6.21763749 23.1769364,5.98945946" id="Fill-3" fill="#F8D10C"></path>
                        <path d="M17.2354863,5.15227142 C17.2354863,5.15227142 20.3356129,5.58548047 21.3398854,8.44530046 L22.2568485,8.44530046 C22.2568485,8.44530046 21.0343027,4.89234598 17.2354863,5.15227142" id="Fill-5" fill="#FFC816"></path>
                        <path d="M20.8544861,9.20503845 C20.8544861,9.79724577 21.3407539,10.2773498 21.9402951,10.2773498 C22.5398363,10.2773498 23.0258859,9.79724577 23.0258859,9.20503845 C23.0258859,8.61261556 22.5398363,8.13251156 21.9402951,8.13251156 C21.3407539,8.13251156 20.8544861,8.61261556 20.8544861,9.20503845" id="Fill-7" fill="#FFC816"></path>
                        <g id="Group-11" transform="translate(22.935411, 9.696456)">
                            <mask id="mask-2" fill="white">
                                <use xlink:href="#path-1"></use>
                            </mask>
                            <g id="Clip-10"></g>
                            <path d="M2.04733713,4.39186668 L2.04733713,1.00067228 L2.04560836,1.00067228 C2.03653233,0.448981391 1.5844594,0.00406937911 1.02628333,0.00406937911 C0.468107248,0.00406937911 0.0162504224,0.448981391 0.00717438862,1.00067228 L0.00544562028,1.00067228 L0.00544562028,2.86844507 C0.581773766,3.80501166 1.66203788,4.17595035 2.04733713,4.39186668" id="Fill-9" fill="#5387C6" mask="url(#mask-2)"></path>
                        </g>
                        <path d="M22.9277646,15.5825727 L22.9277646,18.7847911 C22.9277646,19.2409384 22.6007967,19.8002797 22.2013854,20.0282466 L13.2121446,25.1558981 C12.8127334,25.3838649 12.1585812,25.3838649 11.7589536,25.1558981 L2.76992914,20.0282466 C2.37030161,19.8002797 2.04333363,19.2409384 2.04333363,18.7847911 L2.04333363,10.6895113 L2.04160364,10.6895113 C2.03273744,10.1395706 1.58012899,9.69645609 1.02155869,9.69645609 C0.46298839,9.69645609 0.0105961846,10.1395706 0.00151374065,10.6895113 L0,10.6895113 L0,18.7847911 C0,19.9592369 0.719026809,21.1892323 1.74837045,21.7763484 L10.7373949,26.9042136 C11.2451468,27.1937123 11.8495618,27.3466872 12.4855491,27.3466872 C13.1215365,27.3466872 13.7261677,27.1934986 14.2339196,26.904 L23.2227278,21.7763484 C24.2522877,21.189446 24.9710983,19.9592369 24.9710983,18.7847911 L24.9710983,14.3703104 C24.9179011,14.484828 24.8497828,14.5893039 24.7704195,14.6843791 C24.2654789,15.2883737 23.3131198,15.5135631 22.9277646,15.5825727" id="Fill-12" fill="#5387C6"></path>
                        <g id="Group-16" transform="translate(21.125911, 9.741140)" fill="#FFC816">
                            <path d="M0.306402717,0.512213946 C0.306402717,0.512213946 -0.885519563,2.61931075 1.63073665,5.89525478 C1.63073665,5.89525478 3.37078663,5.69680364 3.85629602,4.65247057 C3.85629602,4.65247057 0.823221261,3.24809655 1.33743071,0.37891307 C1.33743071,0.37891307 0.573835115,-0.538977045 0.306402717,0.512213946" id="Fill-14"></path>
                        </g>
                    </g>
                </g>
            </g>
        </g>
    </g>
</svg>