<?xml version="1.0" encoding="UTF-8"?>
<svg width="18px" height="12px" viewBox="0 0 18 12" version="1.1" xmlns="http://www.w3.org/2000/svg" xmlns:xlink="http://www.w3.org/1999/xlink">
    <!-- Generator: sketchtool 63.1 (101010) - https://sketch.com -->
    <title>DC6952AF-9C6B-4348-B444-3A837557B083</title>
    <desc>Created with sketchtool.</desc>
    <g id="Design" stroke="none" stroke-width="1" fill="none" fill-rule="evenodd">
        <g id="[U2]-Home-page-Default" transform="translate(-1074.000000, -5539.000000)">
            <g id="Top-Welcome-Copy" transform="translate(0.000000, 4931.000000)">
                <g id="Courses1-Copy-7" transform="translate(693.000000, 502.000000)">
                    <g id="Group-2" transform="translate(244.000000, 100.000000)">
                        <g id="Users" transform="translate(134.000000, 0.000000)">
                            <g id="24x24/Arrow/slider/R-Copy">
                                <g id="24x24/Users">
                                    <g id="-Round-/-Navigation-/-chevron_right">
                                        <polygon id="Path" points="0 0 24 0 24 24 0 24"></polygon>
                                        <path d="M17.6024023,11.2658128 C18.458205,11.2859462 19.240923,10.7856829 19.58205,10.0005486 C19.923177,9.21541427 19.7547267,8.30188512 19.1560063,7.69005401 C18.5572859,7.0782229 17.6476193,6.89002687 16.855281,7.2140693 C16.0629427,7.53811173 15.5458445,8.30981145 15.5474382,9.16584937 C15.5386665,10.31173 16.4566005,11.2497648 17.6024023,11.2658128 L17.6024023,11.2658128 Z M17.6024023,7.89837147 C18.1164695,7.88434263 18.5878268,8.18304288 18.7946282,8.6538879 C19.0014296,9.12473292 18.9024762,9.67392118 18.5443409,10.0429753 C18.1862055,10.4120294 17.6402357,10.5274265 17.1633941,10.3348547 C16.6865525,10.1422828 16.3738352,9.68010598 16.3724238,9.16584937 C16.3652954,8.47748033 16.9141296,7.9119134 17.6024023,7.89837147 L17.6024023,7.89837147 Z M17.6024023,12.1057981 C17.0436453,12.1063712 16.4941114,12.2482696 16.0049302,12.5182909 C15.8034428,12.6309339 15.7272144,12.882819 15.8324332,13.088281 C15.8837473,13.1861473 15.9720573,13.2594374 16.0777044,13.2918358 C16.1833514,13.3242342 16.2975663,13.3130518 16.3949234,13.260778 C16.7652238,13.0585474 17.1804789,12.9527992 17.6024023,12.9532834 C18.8775217,12.9611376 19.9566978,13.8970603 20.144858,15.1582449 L17.6024023,15.1582449 C17.3704468,15.1582449 17.1824097,15.346282 17.1824097,15.5782376 C17.1824097,15.8101932 17.3704468,15.9982303 17.6024023,15.9982303 L20.5873503,15.9982303 C20.8168897,15.9953488 21.0010976,15.8077916 20.9998431,15.5782376 C21.0177624,13.6822943 19.498285,12.1292743 17.6024023,12.1057981 L17.6024023,12.1057981 Z M6.435097,15.1582449 L3.85514197,15.1582449 C4.0433022,13.8970603 5.12247834,12.9611376 6.39759766,12.9532834 C6.81952109,12.9527992 7.23477619,13.0585474 7.60507661,13.260778 C7.70243366,13.3130518 7.81664862,13.3242342 7.92229564,13.2918358 C8.02794267,13.2594374 8.11625274,13.1861473 8.1675668,13.088281 C8.27278561,12.882819 8.19655723,12.6309339 7.99506981,12.5182909 C7.50588858,12.2482696 6.95635475,12.1063712 6.39759766,12.1057981 C4.50171499,12.1292743 2.98223756,13.6822943 3.00015688,15.5782376 C2.99890239,15.8077916 3.1831103,15.9953488 3.41264969,15.9982303 L6.435097,15.9982303 C6.66705255,15.9982303 6.85508968,15.8101932 6.85508968,15.5782376 C6.85508968,15.346282 6.66705255,15.1582449 6.435097,15.1582449 Z M6.39759766,11.2658128 C7.25279829,11.282882 8.03324982,10.7806209 8.3719965,9.99518464 C8.71074317,9.20974835 8.54038374,8.29741703 7.94101845,7.6871542 C7.34165316,7.07689136 6.43253922,6.8901225 5.64112736,7.21466334 C4.84971551,7.53920418 4.33347492,8.31048002 4.33513361,9.16584937 C4.32556208,10.3149555 5.24850563,11.2546798 6.39759766,11.2658128 L6.39759766,11.2658128 Z M6.39759766,7.89837147 C6.91064021,7.8877151 7.37918935,8.18835696 7.58329961,8.65917033 C7.78740987,9.12998369 7.68655111,9.6774792 7.32806826,10.0446525 C6.9695854,10.4118259 6.42466235,10.5257675 5.94909586,10.3329911 C5.47352936,10.1402148 5.1617526,9.67899999 5.16011923,9.16584937 C5.15220112,8.47427134 5.70602834,7.907018 6.39759766,7.89837147 L6.39759766,7.89837147 Z M12,11.4158102 C13.1006261,11.440505 14.1066751,10.7964785 14.5450184,9.78660579 C14.9833617,8.77673314 14.766758,7.60200437 13.9970724,6.81487553 C13.2273869,6.0277467 12.0578063,5.78487617 11.0383656,6.20048206 C10.0189248,6.61608795 9.35251828,7.60745425 9.35254615,8.70835735 C9.33713125,10.1866111 10.521772,11.3980992 12,11.4158102 L12,11.4158102 Z M12,6.8408899 C12.7589793,6.82534754 13.451899,7.27061911 13.7531108,7.9674423 C14.0543226,8.6642655 13.9039282,9.47407169 13.3726078,10.0162799 C12.8412873,10.558488 12.034698,10.7252759 11.331909,10.438259 C10.62912,10.151242 10.1698863,9.46749574 10.1700319,8.70835735 C10.1650339,8.21803943 10.3550316,7.74582086 10.6982226,7.39559725 C11.0414136,7.04537365 11.5096816,6.84583748 12,6.8408899 L12,6.8408899 Z M12,12.2632954 C9.50627733,12.294595 7.50757009,14.3368982 7.53007792,16.8307158 C7.52882343,17.0602698 7.71303134,17.247827 7.94257072,17.2507084 L16.0574293,17.2507084 C16.2869687,17.247827 16.4711766,17.0602698 16.4699221,16.8307158 C16.4924299,14.3368982 14.4937227,12.294595 12,12.2632954 L12,12.2632954 Z M8.37756314,16.4107231 C8.5482136,14.5374465 10.1189665,13.1032807 12,13.1032807 C13.8810335,13.1032807 15.4517864,14.5374465 15.6224369,16.4107231 L8.37756314,16.4107231 L8.37756314,16.4107231 Z" id="🔹-Icon-Color" fill="#FAD20B" fill-rule="nonzero"></path>
                                    </g>
                                </g>
                            </g>
                        </g>
                    </g>
                </g>
            </g>
        </g>
    </g>
</svg>